<svg width="24" height="24" viewBox="0 0 24 24" fill="none" xmlns="http://www.w3.org/2000/svg">
<g clip-path="url(#clip0_11418_8137)">
<rect x="5" y="3" width="14" height="20" rx="2" fill="#EEEEEE"/>
<path d="M5 5C5 3.89543 5.89543 3 7 3H17C18.1046 3 19 3.89543 19 5V5.5H5V5Z" fill="#999999"/>
<path d="M5 20.5H19V21C19 22.1046 18.1046 23 17 23H7C5.89543 23 5 22.1046 5 21V20.5Z" fill="#999999"/>
<circle cx="17.5" cy="17.5" r="6.5" fill="#4FBBB9"/>
<path d="M17.5 14.25C17.9142 14.25 18.25 14.5858 18.25 15V16.75H20C20.4142 16.75 20.75 17.0858 20.75 17.5C20.75 17.9142 20.4142 18.25 20 18.25H18.25V20C18.25 20.4142 17.9142 20.75 17.5 20.75C17.0858 20.75 16.75 20.4142 16.75 20V18.25H15C14.5858 18.25 14.25 17.9142 14.25 17.5C14.25 17.0858 14.5858 16.75 15 16.75H16.75V15C16.75 14.5858 17.0858 14.25 17.5 14.25Z" fill="white"/>
</g>
<defs>
<clipPath id="clip0_11418_8137">
<rect width="24" height="24" fill="white"/>
</clipPath>
</defs>
</svg>
