<svg width="20" height="14" viewBox="0 0 20 14" fill="none" xmlns="http://www.w3.org/2000/svg">
<path fill-rule="evenodd" clip-rule="evenodd" d="M19.5606 -0.200828C19.8419 0.0806168 20 0.462287 20 0.86025C20 1.25821 19.8419 1.63988 19.5606 1.92133L8.31146 13.1705C8.1628 13.3191 7.9863 13.4371 7.79205 13.5176C7.5978 13.598 7.3896 13.6395 7.17934 13.6395C6.96908 13.6395 6.76088 13.598 6.56663 13.5176C6.37238 13.4371 6.19588 13.3191 6.04722 13.1705L0.458182 7.58241C0.314838 7.44396 0.200503 7.27836 0.121847 7.09525C0.0431903 6.91214 0.00178833 6.71521 5.66658e-05 6.51593C-0.001675 6.31665 0.0362984 6.11903 0.111761 5.93458C0.187223 5.75014 0.298664 5.58257 0.439579 5.44165C0.580495 5.30073 0.748064 5.1893 0.932509 5.11383C1.11695 5.03837 1.31458 5.0004 1.51386 5.00213C1.71314 5.00386 1.91007 5.04526 2.09318 5.12392C2.27628 5.20257 2.44189 5.31691 2.58034 5.46025L7.17884 10.0588L17.4374 -0.200828C17.5768 -0.340294 17.7423 -0.450929 17.9244 -0.526412C18.1066 -0.601896 18.3018 -0.640747 18.499 -0.640747C18.6962 -0.640747 18.8914 -0.601896 19.0736 -0.526412C19.2557 -0.450929 19.4212 -0.340294 19.5606 -0.200828Z" fill="white"/>
</svg>
