<svg width="52" height="52" viewBox="0 0 52 52" fill="none" xmlns="http://www.w3.org/2000/svg">
<path d="M42.464 2C45.5225 2 48 4.4768 48 7.5344V23.1584V44.4656C48 47.5232 45.5225 50 42.464 50H9.53601C6.47752 50 4 47.5232 4 44.4656V16.088C4 13.736 5.01789 11.4944 6.79441 9.944L13.5836 4.016C15.0672 2.7152 16.9782 2 18.9516 2H42.464Z" fill="#D0DEF7"/>
<path d="M39.8957 49.9999H11.9004V30.8817C11.9004 29.2905 13.2022 27.9999 14.8072 27.9999H36.9935C38.5986 27.9999 39.9004 29.2905 39.9004 30.8817V49.9999H39.8957Z" fill="white"/>
<path d="M32.3981 36H19.4165C18.4127 36 17.5996 35.105 17.5996 34C17.5996 32.895 18.4127 32 19.4165 32H32.3981C33.4019 32 34.215 32.895 34.215 34C34.215 35.105 33.4019 36 32.3981 36Z" fill="#6270F4"/>
<path d="M27.9004 6.00024H21.9004V15.0002H27.9004V6.00024Z" fill="white"/>
<path d="M35.9004 6.00024H29.9004V15.0002H35.9004V6.00024Z" fill="white"/>
<path d="M43.8994 6.00024H37.8994V15.0002H43.8994V6.00024Z" fill="white"/>
</svg>
