<svg width="52" height="52" viewBox="0 0 52 52" fill="none" xmlns="http://www.w3.org/2000/svg">
<path d="M44.8269 8.64859L29.5726 3.12519C27.2771 2.2916 24.7308 2.2916 22.4274 3.12519L7.17308 8.64859C5.2614 9.34446 4 11.0479 4 12.947V26.1974C4 39.0636 16.9038 46.8558 22.9523 49.7987C24.864 50.7338 27.1439 50.7338 29.0556 49.7987C35.0962 46.863 48 39.0853 48 26.1901V12.947C48 11.0479 46.7386 9.33721 44.8269 8.64859Z" fill="#D0DEF7"/>
<path d="M24.2151 36.5C23.5055 36.5 22.8226 36.215 22.3206 35.6992L15.7799 29.0418C14.7356 27.9763 14.7423 26.2594 15.7866 25.2007C16.8377 24.142 18.5314 24.1488 19.5758 25.2075L23.9406 29.6526L32.1884 18.5772C33.0788 17.3828 34.7591 17.1453 35.9374 18.0479C37.1156 18.9504 37.3499 20.6538 36.4596 21.8482L26.3574 35.421C25.8888 36.0521 25.1792 36.4389 24.4026 36.4932C24.3423 36.4932 24.2821 36.4932 24.2218 36.4932L24.2151 36.5Z" fill="#6270F4"/>
<path d="M24.2151 36.5C23.5055 36.5 22.8226 36.215 22.3206 35.6992L15.7799 29.0418C14.7356 27.9763 14.7423 26.2594 15.7866 25.2007C16.8377 24.142 18.5314 24.1488 19.5758 25.2075L23.9406 29.6526L32.1884 18.5772C33.0788 17.3828 34.7591 17.1453 35.9374 18.0479C37.1156 18.9504 37.3499 20.6538 36.4596 21.8482L26.3574 35.421C25.8888 36.0521 25.1792 36.4389 24.4026 36.4932C24.3423 36.4932 24.2821 36.4932 24.2218 36.4932L24.2151 36.5Z" fill="white"/>
</svg>
