<svg width="52" height="52" viewBox="0 0 52 52" fill="none" xmlns="http://www.w3.org/2000/svg">
<rect x="2" y="6.5" width="48" height="40" rx="8" fill="#D0DEF7"/>
<rect x="8" y="12.5" width="10" height="10" rx="2" fill="white"/>
<path d="M33.9211 37.8335H33.663C33.06 37.8335 32.5703 37.3438 32.5703 36.7407V35.0546H35.0138V36.7407C35.0138 37.3438 34.5241 37.8335 33.9211 37.8335Z" fill="#425293"/>
<path d="M42.3322 37.8335H42.0741C41.4711 37.8335 40.9814 37.3438 40.9814 36.7407V35.0546H43.4249V36.7407C43.4249 37.3438 42.9352 37.8335 42.3322 37.8335Z" fill="#425293"/>
<path d="M44.0302 35.5209H31.9648C31.4318 35.5209 31 35.0891 31 34.556V23.3946C31 21.7952 32.2953 20.4999 33.8945 20.4999H42.1005C43.6997 20.4999 44.995 21.7952 44.995 23.3946V34.556C44.995 35.0891 44.5632 35.5209 44.0302 35.5209Z" fill="#6270F4"/>
<path d="M34.3818 33.2398C35.1811 33.2398 35.8291 32.5918 35.8291 31.7924C35.8291 30.9931 35.1811 30.3451 34.3818 30.3451C33.5825 30.3451 32.9346 30.9931 32.9346 31.7924C32.9346 32.5918 33.5825 33.2398 34.3818 33.2398Z" fill="#FFD255"/>
<path d="M41.6103 33.2398C42.4096 33.2398 43.0576 32.5918 43.0576 31.7924C43.0576 30.9931 42.4096 30.3451 41.6103 30.3451C40.811 30.3451 40.1631 30.9931 40.1631 31.7924C40.1631 32.5918 40.811 33.2398 41.6103 33.2398Z" fill="#FFD255"/>
<path d="M42.098 22.5951H33.8896C33.3541 22.5951 32.9199 23.0293 32.9199 23.5648V27.1904C32.9199 27.726 33.3541 28.1601 33.8896 28.1601H42.098C42.6335 28.1601 43.0676 27.726 43.0676 27.1904V23.5648C43.0676 23.0293 42.6335 22.5951 42.098 22.5951Z" fill="white"/>
</svg>
