<svg width="40" height="40" viewBox="0 0 40 40" fill="none" xmlns="http://www.w3.org/2000/svg">
<circle cx="20" cy="20" r="19" fill="#FFEB00"/>
<path d="M19.8477 12.8845C15.4293 12.8845 11.8477 15.7536 11.8477 19.2927C11.8477 21.5808 13.345 23.5885 15.5975 24.7222C15.475 25.1515 14.81 27.4842 14.7836 27.6675C14.7836 27.6675 14.7677 27.8052 14.8554 27.8577C14.9432 27.9102 15.0464 27.8694 15.0464 27.8694C15.2981 27.8337 17.9651 25.9305 18.4267 25.6C18.8879 25.6663 19.3627 25.7008 19.8477 25.7008C24.266 25.7008 27.8477 22.8318 27.8477 19.2927C27.8477 15.7536 24.266 12.8845 19.8477 12.8845Z" fill="#060B11"/>
</svg>
