<svg width="31" height="30" viewBox="0 0 31 30" fill="none" xmlns="http://www.w3.org/2000/svg">
<g clip-path="url(#clip0_10445_31449)">
<path d="M12.6268 3.49135C14.1153 1.68262 16.8847 1.68262 18.3732 3.49135C19.1607 4.44819 20.3728 4.95025 21.6062 4.83047C23.9377 4.60404 25.896 6.56234 25.6695 8.89384C25.5497 10.1272 26.0518 11.3393 27.0087 12.1268C28.8174 13.6153 28.8174 16.3847 27.0087 17.8732C26.0518 18.6607 25.5497 19.8728 25.6695 21.1062C25.896 23.4377 23.9377 25.396 21.6062 25.1695C20.3728 25.0497 19.1607 25.5518 18.3732 26.5087C16.8847 28.3174 14.1153 28.3174 12.6268 26.5087C11.8393 25.5518 10.6272 25.0497 9.39384 25.1695C7.06234 25.396 5.10404 23.4377 5.33047 21.1062C5.45025 19.8728 4.94819 18.6607 3.99135 17.8732C2.18262 16.3847 2.18262 13.6153 3.99135 12.1268C4.94819 11.3393 5.45025 10.1272 5.33047 8.89384C5.10404 6.56234 7.06234 4.60404 9.39384 4.83047C10.6272 4.95025 11.8393 4.44819 12.6268 3.49135Z" fill="#6B3BE9"/>
<path fill-rule="evenodd" clip-rule="evenodd" d="M15.5008 16.2018C14.51 17.2146 13.0054 18.5 11.7502 18.5C9.67903 18.5 8 16.933 8 15C8 13.067 9.67903 11.5 11.7502 11.5C13.0054 11.5 14.51 12.7854 15.5008 13.7982C16.4916 12.7854 17.9962 11.5 19.2514 11.5C21.3226 11.5 23.0016 13.067 23.0016 15C23.0016 16.933 21.3226 18.5 19.2514 18.5C17.9962 18.5 16.4916 17.2146 15.5008 16.2018ZM13.8497 14.4389C14.0548 14.6285 14.2476 14.8194 14.4221 15C14.2476 15.1806 14.0548 15.3715 13.8497 15.5611C13.4214 15.957 12.9745 16.3146 12.556 16.5646C12.1121 16.8299 11.8484 16.8846 11.7502 16.8846C10.4524 16.8846 9.60724 15.9302 9.60724 15C9.60724 14.0698 10.4524 13.1154 11.7502 13.1154C11.8484 13.1154 12.1121 13.1701 12.556 13.4354C12.9745 13.6854 13.4214 14.043 13.8497 14.4389ZM21.3944 15C21.3944 15.9302 20.5492 16.8846 19.2514 16.8846C19.1532 16.8846 18.8895 16.8299 18.4456 16.5646C18.0271 16.3146 17.5803 15.957 17.1519 15.5611C16.9468 15.3715 16.7541 15.1806 16.5795 15C16.7541 14.8194 16.9468 14.6285 17.1519 14.4389C17.5803 14.043 18.0271 13.6854 18.4456 13.4354C18.8895 13.1701 19.1532 13.1154 19.2514 13.1154C20.5492 13.1154 21.3944 14.0698 21.3944 15Z" fill="white"/>
</g>
<defs>
<clipPath id="clip0_10445_31449">
<rect width="30" height="30" fill="white" transform="translate(0.5)"/>
</clipPath>
</defs>
</svg>
