<svg width="30" height="30" viewBox="0 0 30 30" fill="none" xmlns="http://www.w3.org/2000/svg">
<g clip-path="url(#clip0_1398_35955)">
<path d="M9.25977 13.0609C9.25977 13.0609 10.4389 13.0074 10.9883 12.3382C11.5377 11.669 12.7302 9.88884 13.561 9.19285C14.3917 8.49686 16.0131 7.13878 16.6831 6.46956C17.353 5.13113 17.0582 2.78174 18.3579 2.54082C19.6577 2.2999 20.944 3.11635 21.011 5.23108C21.078 7.34581 19.6711 9.98253 19.6711 10.2234C19.6711 10.4644 20.542 11.776 23.5033 11.776C26.4646 11.776 26.478 13.2349 26.478 13.7435C26.478 14.2521 25.674 15.5103 25.339 15.5103C25.6472 15.5103 27.0005 16.1393 27.0005 17.5179C27.0005 18.8965 25.2854 19.3382 25.2854 19.3382C25.2854 19.3382 26.6253 19.8468 26.6253 21.1317C26.6253 22.4166 24.5216 23.0992 24.5216 23.0992C24.5216 23.0992 25.004 23.2464 25.004 24.0227C25.004 24.799 24.2537 26.4988 21.3728 26.4988C18.4919 26.4988 12.8776 25.0533 11.953 24.8793C11.0285 24.7053 9.25977 24.7321 9.25977 24.7321V13.0609Z" fill="#FACEAD"/>
<path d="M8.1198 10.4998H4.27995C3.57305 10.4998 3 11.0967 3 11.8331V25.1659C3 25.9023 3.57305 26.4992 4.27995 26.4992H8.1198C8.8267 26.4992 9.39975 25.9023 9.39975 25.1659V11.8331C9.39975 11.0967 8.8267 10.4998 8.1198 10.4998Z" fill="#07BFE0"/>
</g>
<defs>
<clipPath id="clip0_1398_35955">
<rect width="30" height="30" fill="white"/>
</clipPath>
</defs>
</svg>
