<svg width="24" height="24" viewBox="0 0 24 24" fill="none" xmlns="http://www.w3.org/2000/svg">
<g clip-path="url(#clip0_9206_2524)">
<path d="M3.15224 5.23463C3 5.60218 3 6.06812 3 7V15.8C3 16.9201 3 17.4802 3.21799 17.908C3.40973 18.2843 3.71569 18.5903 4.09202 18.782C4.51984 19 5.0799 19 6.2 19H17.8C18.9201 19 19.4802 19 19.908 18.782C20.2843 18.5903 20.5903 18.2843 20.782 17.908C21 17.4802 21 16.9201 21 15.8V10.2C21 9.0799 21 8.51984 20.782 8.09202C20.5903 7.71569 20.2843 7.40973 19.908 7.21799C19.4802 7 18.9201 7 17.8 7H13L11.1716 5.17157C10.5935 4.59351 10.3045 4.30448 9.93694 4.15224C9.5694 4 9.16065 4 8.34315 4H6C5.06812 4 4.60218 4 4.23463 4.15224C3.74458 4.35523 3.35523 4.74458 3.15224 5.23463Z" fill="#07BFE0"/>
<path d="M3.15224 5.23463C3 5.60218 3 6.06812 3 7V15.8C3 16.9201 3 17.4802 3.21799 17.908C3.40973 18.2843 3.71569 18.5903 4.09202 18.782C4.51984 19 5.0799 19 6.2 19H17.8C18.9201 19 19.4802 19 19.908 18.782C20.2843 18.5903 20.5903 18.2843 20.782 17.908C21 17.4802 21 16.9201 21 15.8V10.2C21 9.0799 21 8.51984 20.782 8.09202C20.5903 7.71569 20.2843 7.40973 19.908 7.21799C19.4802 7 18.9201 7 17.8 7H13L11.1716 5.17157C10.5935 4.59351 10.3045 4.30448 9.93694 4.15224C9.5694 4 9.16065 4 8.34315 4H6C5.06812 4 4.60218 4 4.23463 4.15224C3.74458 4.35523 3.35523 4.74458 3.15224 5.23463Z" fill="#9E78FF"/>
<path d="M9.5 12.75L11.3939 14.6439C11.4525 14.7025 11.5475 14.7025 11.6061 14.6439L15.5 10.75" stroke="white" stroke-width="1.5" stroke-linecap="round"/>
</g>
<defs>
<clipPath id="clip0_9206_2524">
<rect width="24" height="24" fill="white"/>
</clipPath>
</defs>
</svg>
