<svg width="31" height="30" viewBox="0 0 31 30" fill="none" xmlns="http://www.w3.org/2000/svg">
<g clip-path="url(#clip0_10445_31433)">
<path d="M6.75977 13.0609C6.75977 13.0609 7.93891 13.0074 8.48828 12.3382C9.03766 11.669 10.2302 9.88884 11.061 9.19285C11.8917 8.49686 13.5131 7.13878 14.1831 6.46956C14.853 5.13113 14.5582 2.78174 15.8579 2.54082C17.1577 2.2999 18.444 3.11635 18.511 5.23108C18.578 7.34581 17.1711 9.98253 17.1711 10.2234C17.1711 10.4644 18.042 11.776 21.0033 11.776C23.9646 11.776 23.978 13.2349 23.978 13.7435C23.978 14.2521 23.174 15.5103 22.839 15.5103C23.1472 15.5103 24.5005 16.1393 24.5005 17.5179C24.5005 18.8965 22.7854 19.3382 22.7854 19.3382C22.7854 19.3382 24.1253 19.8468 24.1253 21.1317C24.1253 22.4166 22.0216 23.0992 22.0216 23.0992C22.0216 23.0992 22.504 23.2464 22.504 24.0227C22.504 24.799 21.7537 26.4988 18.8728 26.4988C15.9919 26.4988 10.3776 25.0533 9.45304 24.8793C8.52848 24.7053 6.75977 24.7321 6.75977 24.7321V13.0609Z" fill="#FACEAD"/>
<path d="M5.6198 10.4998H1.77995C1.07305 10.4998 0.5 11.0967 0.5 11.8331V25.1659C0.5 25.9023 1.07305 26.4992 1.77995 26.4992H5.6198C6.3267 26.4992 6.89975 25.9023 6.89975 25.1659V11.8331C6.89975 11.0967 6.3267 10.4998 5.6198 10.4998Z" fill="#6B3BE9"/>
</g>
<defs>
<clipPath id="clip0_10445_31433">
<rect width="30" height="30" fill="white" transform="translate(0.5)"/>
</clipPath>
</defs>
</svg>
