<svg width="114" height="38" viewBox="0 0 114 38" fill="none" xmlns="http://www.w3.org/2000/svg">
<path d="M16.3703 16.1522H19.3545V17.9389C19.3545 18.3971 19.1199 18.6262 18.6509 18.6262H16.3703V28.1086C16.3703 28.5668 16.1438 28.7958 15.6909 28.7958H13.4346V9.39443C13.4346 8.93628 13.6691 8.7072 14.1382 8.7072H16.3703V16.1522ZM10.2805 22.4517C10.2805 22.9099 10.1834 23.2382 9.98935 23.4367C9.79525 23.62 9.46367 23.7116 8.99461 23.7116H1.49765C1.02858 23.7116 0.688915 23.62 0.478644 23.4367C0.284548 23.2382 0.1875 22.9099 0.1875 22.4517V11.6623C0.1875 11.2041 0.284548 10.8834 0.478644 10.7002C0.688915 10.5016 1.02858 10.4024 1.49765 10.4024H10.2805V22.4517ZM3.70549 12.7389C3.46287 12.7389 3.30112 12.7771 3.22025 12.8535C3.15555 12.9298 3.1232 13.0825 3.1232 13.3116V20.8024C3.1232 21.0315 3.15555 21.1842 3.22025 21.2605C3.30112 21.3369 3.46287 21.3751 3.70549 21.3751H6.7625C6.98895 21.3751 7.14261 21.3369 7.22348 21.2605C7.30435 21.1842 7.34479 21.0315 7.34479 20.8024V12.7389H3.70549Z" fill="#333333"/>
<path d="M38.0114 28.1086C38.0114 28.5668 37.785 28.7958 37.3321 28.7958H35.0757V9.39443C35.0757 8.93628 35.3103 8.7072 35.7793 8.7072H38.0114V28.1086ZM26.3899 10.3565C28.3471 10.3565 29.7785 10.8834 30.6843 11.9372C31.6063 12.9909 32.0672 14.6479 32.0672 16.9081C32.0672 19.1836 31.6144 20.8482 30.7086 21.9019C29.8028 22.9404 28.3632 23.4597 26.3899 23.4597C24.4166 23.4597 22.9771 22.9404 22.0713 21.9019C21.1655 20.8482 20.7126 19.1836 20.7126 16.9081C20.7126 14.6479 21.1655 12.9909 22.0713 11.9372C22.9933 10.8834 24.4328 10.3565 26.3899 10.3565ZM26.4385 12.8077H26.3414C25.4356 12.8077 24.7563 13.136 24.3034 13.7927C23.8667 14.4341 23.6483 15.4726 23.6483 16.9081C23.6483 18.3589 23.8667 19.405 24.3034 20.0464C24.7563 20.6878 25.4356 21.0085 26.3414 21.0085H26.4385C27.3442 21.0085 28.0155 20.6878 28.4522 20.0464C28.9051 19.405 29.1315 18.3589 29.1315 16.9081C29.1315 15.4726 28.9051 14.4341 28.4522 13.7927C28.0155 13.136 27.3442 12.8077 26.4385 12.8077Z" fill="#333333"/>
<path d="M111.585 10.1836C111.585 10.4489 111.485 10.6518 111.287 10.7922C111.105 10.9171 110.8 11.0029 110.37 11.0497C109.94 11.0966 109.312 11.12 108.486 11.12H96.4155V9.4111C96.4155 8.95852 96.6551 8.73223 97.1343 8.73223H108.61C109.965 8.73223 110.957 8.58398 111.585 8.28746V10.1836ZM110.841 19.8281C112.212 19.8281 113.204 19.6799 113.815 19.3834V21.2795C113.815 21.5448 113.716 21.7477 113.518 21.8881C113.336 22.0286 113.03 22.1222 112.601 22.1691C112.171 22.2159 111.551 22.2393 110.742 22.2393H94.2344V20.5304C94.2344 20.0622 94.474 19.8281 94.9532 19.8281H102.513V18.0256H96.366V16.3402C96.366 15.872 96.6056 15.6379 97.0848 15.6379H99.2163V12.5479C99.2163 12.0953 99.4559 11.8691 99.9351 11.8691H102.166V15.6379H105.884V12.5479C105.884 12.0953 106.123 11.8691 106.603 11.8691H108.833V15.6379H111.634V17.3468C111.634 17.7994 111.395 18.0256 110.915 18.0256H105.512V19.8281H110.841ZM108.462 27.2956C109.833 27.2956 110.824 27.1474 111.436 26.8509V28.7938C111.436 29.0591 111.337 29.262 111.138 29.4025C110.957 29.5429 110.651 29.6366 110.221 29.6834C109.792 29.7302 109.172 29.7536 108.362 29.7536H98.2745C97.7953 29.7536 97.4565 29.6522 97.2583 29.4493C97.06 29.262 96.9608 28.9343 96.9608 28.4661V24.1354C96.9608 23.6828 97.1756 23.4566 97.6053 23.4566H99.9599V26.7104C99.9599 26.9601 99.993 27.1162 100.059 27.1786C100.142 27.2566 100.307 27.2956 100.555 27.2956H108.462Z" fill="#333333"/>
<path d="M88.9719 9.75129C88.9719 10.0168 88.8811 10.2199 88.6993 10.3605C88.5175 10.4855 88.2201 10.5714 87.807 10.6182C87.3939 10.6651 86.7908 10.6885 85.9976 10.6885H84.6592C84.4279 10.6885 84.3122 10.8057 84.3122 11.04V12.9847C84.3122 13.219 84.4279 13.3362 84.6592 13.3362H86.1959C87.5839 13.3362 88.5506 13.1956 89.0959 12.9144V14.6952C89.0959 15.0388 88.8728 15.2809 88.4267 15.4215C87.997 15.5621 87.2204 15.6324 86.0968 15.6324H82.8003C82.3211 15.6324 81.9823 15.5387 81.784 15.3512C81.5857 15.1482 81.4866 14.8201 81.4866 14.3671V9.65757C81.4866 9.20458 81.5857 8.88436 81.784 8.69691C81.9823 8.49385 82.3211 8.39231 82.8003 8.39231H86.1216C87.4435 8.39231 88.3936 8.24392 88.9719 7.94713V9.75129ZM80.5943 10.009C80.5943 10.462 80.3547 10.6885 79.8755 10.6885H76.3559C76.108 10.6885 75.9841 10.8057 75.9841 11.04V12.9847C75.9841 13.2034 76.108 13.3128 76.3559 13.3128C76.9508 13.344 77.6365 13.3362 78.4131 13.2893C79.1898 13.2425 79.9086 13.1644 80.5695 13.055L80.8174 14.6717C80.8504 14.8904 80.8009 15.0544 80.6687 15.1638C80.553 15.2731 80.363 15.3434 80.0986 15.3747C79.4707 15.484 78.628 15.5621 77.5704 15.609C76.5129 15.6558 75.4801 15.6714 74.4722 15.6558C73.993 15.6402 73.6542 15.5387 73.4559 15.3512C73.2577 15.1638 73.1585 14.8358 73.1585 14.3671V9.65757C73.1585 9.20458 73.2577 8.88436 73.4559 8.69691C73.6542 8.49385 73.9847 8.39231 74.4474 8.39231H80.5943V10.009ZM90.8309 18.4675C90.8309 18.7331 90.7317 18.9361 90.5335 19.0767C90.3517 19.2173 90.046 19.311 89.6164 19.3579C89.1868 19.4047 88.5671 19.4282 87.7574 19.4282H71.25V17.7412C71.25 17.2725 71.4896 17.0382 71.9688 17.0382H87.8566C89.2281 17.0382 90.2195 16.8898 90.8309 16.5931V18.4675ZM86.766 20.834C87.2452 20.834 87.5839 20.9355 87.7822 21.1386C87.9805 21.326 88.0797 21.6541 88.0797 22.1227V25.239C88.0797 25.7076 87.9805 26.0434 87.7822 26.2465C87.5839 26.4496 87.2452 26.5511 86.766 26.5511H76.926V27.582C76.926 27.8007 77.0499 27.9101 77.2978 27.9101H85.7993C87.1543 27.9101 88.1375 27.7617 88.7489 27.4649V29.1988C88.7489 29.4643 88.6497 29.6674 88.4514 29.808C88.2697 29.9485 87.964 30.0423 87.5344 30.0891C87.1047 30.136 86.4851 30.1594 85.6754 30.1594H75.2653C74.7861 30.1594 74.4474 30.0579 74.2491 29.8548C74.0508 29.6674 73.9517 29.3393 73.9517 28.8707V25.7076C73.9517 25.239 74.0508 24.9109 74.2491 24.7235C74.4474 24.5204 74.7861 24.4189 75.2653 24.4189H85.1053V23.4348C85.1053 23.2005 84.9814 23.0833 84.7336 23.0833H74.6457C74.1665 23.0833 73.9269 22.849 73.9269 22.3804V20.834H86.766Z" fill="#333333"/>
<path fill-rule="evenodd" clip-rule="evenodd" d="M67.2037 7.10923C68.3175 8.59784 68.3175 10.5564 68.3175 14.4737V23.7972C68.3175 27.7145 68.3175 29.6731 67.2037 31.1617C66.0899 32.6503 64.1343 33.3053 60.223 34.6154L58.5811 35.1654C51.1922 37.6404 47.4977 38.8778 44.9246 37.1627C42.3516 35.4476 42.3516 31.7474 42.3516 24.3472V13.9237C42.3516 6.52346 42.3516 2.82332 44.9246 1.10819C47.4977 -0.606952 51.1922 0.630542 58.5812 3.10553L60.223 3.65548C64.1343 4.96558 66.0899 5.62063 67.2037 7.10923ZM66.1259 12.4018H63.0783V8.00102H60.7988C60.3198 8.00102 60.0802 8.2351 60.0802 8.70327V19.0732H62.3598C62.8388 19.0732 63.0783 18.8391 63.0783 18.3709V14.9299H65.4074C65.8864 14.9299 66.1259 14.6958 66.1259 14.2276V12.4018ZM56.2645 10.0844C55.2734 9.21045 53.8446 8.77349 51.9781 8.77349C50.1115 8.77349 48.6744 9.21825 47.6668 10.1078C46.6757 10.9817 46.1802 12.1989 46.1802 13.7595C46.1802 15.3512 46.6757 16.5841 47.6668 17.458C48.6744 18.3163 50.1115 18.7455 51.9781 18.7455C53.8446 18.7455 55.2734 18.3163 56.2645 17.458C57.2721 16.5841 57.776 15.3512 57.776 13.7595C57.776 12.1833 57.2721 10.9583 56.2645 10.0844ZM49.872 11.7698C50.351 11.3172 51.0365 11.0909 51.9285 11.0909H52.0276C52.9196 11.0909 53.6051 11.3172 54.0841 11.7698C54.5632 12.2067 54.8027 12.87 54.8027 13.7595C54.8027 14.649 54.5632 15.32 54.0841 15.7726C53.6051 16.2096 52.9196 16.428 52.0276 16.428H51.9285C51.0365 16.428 50.351 16.2096 49.872 15.7726C49.393 15.32 49.1534 14.649 49.1534 13.7595C49.1534 12.87 49.393 12.2067 49.872 11.7698ZM62.7562 20.4777C62.558 20.2904 62.2194 20.1968 61.7403 20.1968H49.2773V21.8822C49.2773 22.3503 49.5168 22.5844 49.9959 22.5844H59.7334C59.9646 22.5844 60.0802 22.7015 60.0802 22.9356V24.0123H50.6896C50.2106 24.0123 49.872 24.1138 49.6738 24.3166C49.4755 24.5039 49.3764 24.8316 49.3764 25.2998V28.8111C49.3764 29.2792 49.4755 29.6069 49.6738 29.7942C49.872 29.9971 50.2106 30.0985 50.6896 30.0985H60.6253C61.4347 30.0985 62.0542 30.0751 62.4836 30.0283C62.9131 29.9815 63.2187 29.8878 63.4004 29.7474C63.5986 29.6069 63.6977 29.4041 63.6977 29.1388V27.2661C63.0866 27.5626 62.1037 27.7109 60.7492 27.7109H52.7214C52.4901 27.7109 52.3745 27.5938 52.3745 27.3597V26.3064H61.7403C62.2194 26.3064 62.558 26.2049 62.7562 26.002C62.9709 25.8148 63.0783 25.4871 63.0783 25.0189V21.4608C63.0783 20.9927 62.9709 20.6649 62.7562 20.4777Z" fill="#499690"/>
</svg>
