<svg width="40" height="40" viewBox="0 0 40 40" fill="none" xmlns="http://www.w3.org/2000/svg">
<circle cx="20" cy="20" r="19" fill="#FFEB00"/>
<path d="M19.8438 12.8845C15.4254 12.8845 11.8438 15.7536 11.8438 19.2927C11.8438 21.5808 13.3411 23.5885 15.5936 24.7222C15.4711 25.1515 14.8061 27.4842 14.7797 27.6675C14.7797 27.6675 14.7638 27.8052 14.8515 27.8577C14.9393 27.9102 15.0425 27.8694 15.0425 27.8694C15.2942 27.8337 17.9612 25.9305 18.4228 25.6C18.884 25.6663 19.3588 25.7008 19.8438 25.7008C24.2621 25.7008 27.8438 22.8318 27.8438 19.2927C27.8438 15.7536 24.2621 12.8845 19.8438 12.8845Z" fill="#060B11"/>
</svg>
