<svg width="205" height="160" viewBox="0 0 205 160" fill="none" xmlns="http://www.w3.org/2000/svg">
<g filter="url(#filter0_i_796_1810)">
<rect x="1.5" y="15" width="64" height="20" rx="2" fill="#499690" fill-opacity="0.2"/>
</g>
<rect x="1" y="14.5" width="65" height="21" rx="2.5" stroke="black"/>
<g filter="url(#filter1_i_796_1810)">
<rect x="1.5" y="39" width="64" height="20" rx="2" fill="#499690" fill-opacity="0.2"/>
</g>
<rect x="1" y="38.5" width="65" height="21" rx="2.5" stroke="black"/>
<g filter="url(#filter2_i_796_1810)">
<rect x="1.5" y="63" width="64" height="20" rx="2" fill="#499690" fill-opacity="0.2"/>
</g>
<rect x="1" y="62.5" width="65" height="21" rx="2.5" stroke="black"/>
<g filter="url(#filter3_i_796_1810)">
<rect x="1.5" y="87" width="64" height="20" rx="2" fill="#499690" fill-opacity="0.2"/>
</g>
<rect x="1" y="86.5" width="65" height="21" rx="2.5" stroke="black"/>
<g filter="url(#filter4_i_796_1810)">
<rect x="1.5" y="111" width="64" height="20" rx="2" fill="#499690" fill-opacity="0.2"/>
</g>
<rect x="1" y="110.5" width="65" height="21" rx="2.5" stroke="black"/>
<path d="M13.6484 156.137C12.9694 156.137 12.3564 156.011 11.8096 155.761C11.2673 155.51 10.8389 155.164 10.5244 154.722C10.2145 154.275 10.0527 153.771 10.0391 153.211H12.0352C12.0488 153.466 12.1286 153.692 12.2744 153.888C12.4202 154.084 12.6139 154.236 12.8555 154.346C13.097 154.455 13.3613 154.51 13.6484 154.51C13.9857 154.51 14.2865 154.437 14.5508 154.291C14.8197 154.141 15.027 153.933 15.1729 153.669C15.3232 153.4 15.3984 153.097 15.3984 152.76C15.3984 152.413 15.3232 152.106 15.1729 151.837C15.0225 151.568 14.8105 151.358 14.5371 151.208C14.2682 151.053 13.9629 150.973 13.6211 150.969C12.8783 150.969 12.3587 151.247 12.0625 151.803H10.2031L10.7363 146.102H16.834V147.783H12.4316L12.1582 150.285H12.2402C12.4271 150.035 12.696 149.834 13.0469 149.684C13.4023 149.529 13.7943 149.451 14.2227 149.451C14.8242 149.451 15.3643 149.59 15.8428 149.868C16.3258 150.146 16.7041 150.534 16.9775 151.03C17.2555 151.522 17.3945 152.081 17.3945 152.705C17.3945 153.366 17.2373 153.956 16.9229 154.476C16.6084 154.995 16.1663 155.403 15.5967 155.699C15.0316 155.991 14.3822 156.137 13.6484 156.137ZM22.6309 156.137C21.806 156.137 21.0951 155.938 20.498 155.542C19.9056 155.141 19.4499 154.56 19.1309 153.799C18.8118 153.038 18.6523 152.122 18.6523 151.051C18.6523 149.98 18.8118 149.064 19.1309 148.303C19.4499 147.542 19.9056 146.963 20.498 146.566C21.0951 146.165 21.806 145.965 22.6309 145.965C23.4512 145.965 24.1598 146.165 24.7568 146.566C25.3538 146.963 25.8118 147.544 26.1309 148.31C26.4499 149.071 26.6094 149.984 26.6094 151.051C26.6094 152.126 26.4499 153.045 26.1309 153.806C25.8118 154.567 25.3538 155.146 24.7568 155.542C24.1644 155.938 23.4557 156.137 22.6309 156.137ZM22.6309 154.441C23.0137 154.441 23.3441 154.318 23.6221 154.072C23.9046 153.826 24.1211 153.455 24.2715 152.958C24.4264 152.461 24.5039 151.848 24.5039 151.119C24.5039 149.984 24.3398 149.123 24.0117 148.535C23.6836 147.943 23.2233 147.646 22.6309 147.646C22.0384 147.646 21.5781 147.943 21.25 148.535C20.9219 149.123 20.7578 149.984 20.7578 151.119C20.7578 151.848 20.833 152.461 20.9834 152.958C21.1383 153.455 21.3548 153.826 21.6328 154.072C21.9154 154.318 22.248 154.441 22.6309 154.441ZM31.873 156.137C31.0482 156.137 30.3372 155.938 29.7402 155.542C29.1478 155.141 28.6921 154.56 28.373 153.799C28.054 153.038 27.8945 152.122 27.8945 151.051C27.8945 149.98 28.054 149.064 28.373 148.303C28.6921 147.542 29.1478 146.963 29.7402 146.566C30.3372 146.165 31.0482 145.965 31.873 145.965C32.6934 145.965 33.402 146.165 33.999 146.566C34.596 146.963 35.054 147.544 35.373 148.31C35.6921 149.071 35.8516 149.984 35.8516 151.051C35.8516 152.126 35.6921 153.045 35.373 153.806C35.054 154.567 34.596 155.146 33.999 155.542C33.4066 155.938 32.6979 156.137 31.873 156.137ZM31.873 154.441C32.2559 154.441 32.5863 154.318 32.8643 154.072C33.1468 153.826 33.3633 153.455 33.5137 152.958C33.6686 152.461 33.7461 151.848 33.7461 151.119C33.7461 149.984 33.582 149.123 33.2539 148.535C32.9258 147.943 32.4655 147.646 31.873 147.646C31.2806 147.646 30.8203 147.943 30.4922 148.535C30.1641 149.123 30 149.984 30 151.119C30 151.848 30.0752 152.461 30.2256 152.958C30.3805 153.455 30.597 153.826 30.875 154.072C31.1576 154.318 31.4902 154.441 31.873 154.441ZM39.8711 146.102L42.6191 152.814H42.7285L45.4766 146.102H48.0195V156H46.0234V149.52H45.9414L43.3574 155.959H41.9902L39.4062 149.492H39.3242V156H37.3281V146.102H39.8711ZM49.6875 146.102H53.625C54.3359 146.102 54.9375 146.209 55.4297 146.423C55.9219 146.637 56.291 146.936 56.5371 147.318C56.7832 147.697 56.9062 148.139 56.9062 148.645C56.9062 149.205 56.7422 149.668 56.4141 150.032C56.0905 150.397 55.6621 150.641 55.1289 150.764V150.859C55.5117 150.878 55.8672 150.987 56.1953 151.188C56.528 151.388 56.7946 151.668 56.9951 152.028C57.2002 152.384 57.3027 152.796 57.3027 153.266C57.3027 153.799 57.1706 154.271 56.9062 154.681C56.6465 155.091 56.2591 155.414 55.7441 155.651C55.2337 155.884 54.6139 156 53.8848 156H49.6875V146.102ZM53.4746 154.305C54.0488 154.305 54.4749 154.198 54.7529 153.983C55.0309 153.765 55.1699 153.462 55.1699 153.074C55.1699 152.796 55.1016 152.55 54.9648 152.336C54.8327 152.122 54.6436 151.955 54.3975 151.837C54.1514 151.714 53.862 151.652 53.5293 151.652H51.7383V154.305H53.4746ZM53.3242 150.244C53.6113 150.244 53.8688 150.194 54.0967 150.094C54.3245 149.989 54.5023 149.841 54.6299 149.649C54.762 149.458 54.8281 149.232 54.8281 148.973C54.8281 148.608 54.6982 148.316 54.4385 148.098C54.1833 147.879 53.8255 147.77 53.3652 147.77H51.7383V150.244H53.3242Z" fill="black"/>
<path d="M149.68 156H147.615V148.057H147.561L145.291 149.479V147.66L147.738 146.102H149.68V156ZM158.607 149.287C158.471 148.818 158.218 148.451 157.849 148.187C157.484 147.918 157.035 147.783 156.502 147.783C155.992 147.783 155.543 147.911 155.155 148.166C154.768 148.421 154.467 148.795 154.253 149.287C154.039 149.775 153.932 150.358 153.932 151.037C153.932 151.725 154.036 152.315 154.246 152.808C154.46 153.3 154.761 153.676 155.148 153.936C155.536 154.191 155.992 154.318 156.516 154.318C156.98 154.318 157.382 154.236 157.719 154.072C158.061 153.904 158.323 153.664 158.505 153.354C158.692 153.045 158.79 152.682 158.799 152.268H156.652V150.723H160.781V151.953C160.781 152.805 160.599 153.548 160.234 154.182C159.874 154.811 159.371 155.294 158.724 155.631C158.076 155.968 157.336 156.137 156.502 156.137C155.581 156.137 154.768 155.932 154.062 155.521C153.36 155.107 152.813 154.519 152.421 153.758C152.034 152.992 151.84 152.094 151.84 151.064C151.84 150.021 152.04 149.114 152.441 148.344C152.842 147.574 153.394 146.986 154.096 146.58C154.798 146.17 155.586 145.965 156.461 145.965C157.195 145.965 157.865 146.106 158.471 146.389C159.081 146.667 159.58 147.059 159.968 147.564C160.355 148.066 160.594 148.64 160.686 149.287H158.607ZM162.285 146.102H166.223C166.934 146.102 167.535 146.209 168.027 146.423C168.52 146.637 168.889 146.936 169.135 147.318C169.381 147.697 169.504 148.139 169.504 148.645C169.504 149.205 169.34 149.668 169.012 150.032C168.688 150.397 168.26 150.641 167.727 150.764V150.859C168.109 150.878 168.465 150.987 168.793 151.188C169.126 151.388 169.392 151.668 169.593 152.028C169.798 152.384 169.9 152.796 169.9 153.266C169.9 153.799 169.768 154.271 169.504 154.681C169.244 155.091 168.857 155.414 168.342 155.651C167.831 155.884 167.212 156 166.482 156H162.285V146.102ZM166.072 154.305C166.646 154.305 167.073 154.198 167.351 153.983C167.629 153.765 167.768 153.462 167.768 153.074C167.768 152.796 167.699 152.55 167.562 152.336C167.43 152.122 167.241 151.955 166.995 151.837C166.749 151.714 166.46 151.652 166.127 151.652H164.336V154.305H166.072ZM165.922 150.244C166.209 150.244 166.466 150.194 166.694 150.094C166.922 149.989 167.1 149.841 167.228 149.649C167.36 149.458 167.426 149.232 167.426 148.973C167.426 148.608 167.296 148.316 167.036 148.098C166.781 147.879 166.423 147.77 165.963 147.77H164.336V150.244H165.922Z" fill="black"/>
<g filter="url(#filter5_d_796_1810)">
<g filter="url(#filter6_i_796_1810)">
<rect x="125.5" y="111" width="30" height="20" rx="2" fill="#499690" fill-opacity="0.2"/>
</g>
<rect x="125" y="110.5" width="31" height="21" rx="2.5" stroke="black"/>
<g filter="url(#filter7_i_796_1810)">
<rect x="125.5" y="63" width="30" height="20" rx="2" fill="#499690"/>
</g>
<rect x="125" y="62.5" width="31" height="21" rx="2.5" stroke="black"/>
<g filter="url(#filter8_i_796_1810)">
<rect x="125.5" y="39" width="30" height="20" rx="2" fill="#499690"/>
</g>
<rect x="125" y="38.5" width="31" height="21" rx="2.5" stroke="black"/>
<g filter="url(#filter9_i_796_1810)">
<rect x="125.5" y="15" width="30" height="20" rx="2" fill="#499690"/>
</g>
<rect x="125" y="14.5" width="31" height="21" rx="2.5" stroke="black"/>
<g filter="url(#filter10_i_796_1810)">
<rect x="159.5" y="39" width="30" height="20" rx="2" fill="#499690"/>
</g>
<rect x="159" y="38.5" width="31" height="21" rx="2.5" stroke="black"/>
<g filter="url(#filter11_i_796_1810)">
<rect x="159.5" y="15" width="30" height="20" rx="2" fill="#499690"/>
</g>
<rect x="159" y="14.5" width="31" height="21" rx="2.5" stroke="black"/>
<g filter="url(#filter12_i_796_1810)">
<rect x="159.5" y="111" width="30" height="20" rx="2" fill="#499690" fill-opacity="0.2"/>
</g>
<rect x="159" y="110.5" width="31" height="21" rx="2.5" stroke="black"/>
<g filter="url(#filter13_i_796_1810)">
<rect x="159.5" y="63" width="30" height="20" rx="2" fill="#499690" fill-opacity="0.2"/>
</g>
<rect x="159" y="62.5" width="31" height="21" rx="2.5" stroke="black"/>
<g filter="url(#filter14_i_796_1810)">
<rect x="125.5" y="87" width="30" height="20" rx="2" fill="#499690" fill-opacity="0.2"/>
</g>
<rect x="125" y="86.5" width="31" height="21" rx="2.5" stroke="black"/>
<g filter="url(#filter15_i_796_1810)">
<rect x="159.5" y="87" width="30" height="20" rx="2" fill="#499690" fill-opacity="0.2"/>
</g>
<rect x="159" y="86.5" width="31" height="21" rx="2.5" stroke="black"/>
</g>
<path d="M189.046 28.2302C196.527 28.2302 202.591 22.1345 202.591 14.6151C202.591 7.09569 196.527 1 189.046 1C181.565 1 175.5 7.09569 175.5 14.6151C175.5 22.1345 181.565 28.2302 189.046 28.2302Z" fill="#FF5758"/>
<path d="M189 6.59961V22.5996" stroke="white" stroke-width="3"/>
<path d="M197 14.5996L181 14.5996" stroke="white" stroke-width="3"/>
<defs>
<filter id="filter0_i_796_1810" x="-1.5" y="14" width="68" height="24" filterUnits="userSpaceOnUse" color-interpolation-filters="sRGB">
<feFlood flood-opacity="0" result="BackgroundImageFix"/>
<feBlend mode="normal" in="SourceGraphic" in2="BackgroundImageFix" result="shape"/>
<feColorMatrix in="SourceAlpha" type="matrix" values="0 0 0 0 0 0 0 0 0 0 0 0 0 0 0 0 0 0 127 0" result="hardAlpha"/>
<feMorphology radius="2" operator="erode" in="SourceAlpha" result="effect1_innerShadow_796_1810"/>
<feOffset dx="-6" dy="2"/>
<feComposite in2="hardAlpha" operator="arithmetic" k2="-1" k3="1"/>
<feColorMatrix type="matrix" values="0 0 0 0 0.286275 0 0 0 0 0.588235 0 0 0 0 0.564706 0 0 0 0.08 0"/>
<feBlend mode="normal" in2="shape" result="effect1_innerShadow_796_1810"/>
</filter>
<filter id="filter1_i_796_1810" x="-1.5" y="38" width="68" height="24" filterUnits="userSpaceOnUse" color-interpolation-filters="sRGB">
<feFlood flood-opacity="0" result="BackgroundImageFix"/>
<feBlend mode="normal" in="SourceGraphic" in2="BackgroundImageFix" result="shape"/>
<feColorMatrix in="SourceAlpha" type="matrix" values="0 0 0 0 0 0 0 0 0 0 0 0 0 0 0 0 0 0 127 0" result="hardAlpha"/>
<feMorphology radius="2" operator="erode" in="SourceAlpha" result="effect1_innerShadow_796_1810"/>
<feOffset dx="-6" dy="2"/>
<feComposite in2="hardAlpha" operator="arithmetic" k2="-1" k3="1"/>
<feColorMatrix type="matrix" values="0 0 0 0 0.286275 0 0 0 0 0.588235 0 0 0 0 0.564706 0 0 0 0.08 0"/>
<feBlend mode="normal" in2="shape" result="effect1_innerShadow_796_1810"/>
</filter>
<filter id="filter2_i_796_1810" x="-1.5" y="62" width="68" height="24" filterUnits="userSpaceOnUse" color-interpolation-filters="sRGB">
<feFlood flood-opacity="0" result="BackgroundImageFix"/>
<feBlend mode="normal" in="SourceGraphic" in2="BackgroundImageFix" result="shape"/>
<feColorMatrix in="SourceAlpha" type="matrix" values="0 0 0 0 0 0 0 0 0 0 0 0 0 0 0 0 0 0 127 0" result="hardAlpha"/>
<feMorphology radius="2" operator="erode" in="SourceAlpha" result="effect1_innerShadow_796_1810"/>
<feOffset dx="-6" dy="2"/>
<feComposite in2="hardAlpha" operator="arithmetic" k2="-1" k3="1"/>
<feColorMatrix type="matrix" values="0 0 0 0 0.286275 0 0 0 0 0.588235 0 0 0 0 0.564706 0 0 0 0.08 0"/>
<feBlend mode="normal" in2="shape" result="effect1_innerShadow_796_1810"/>
</filter>
<filter id="filter3_i_796_1810" x="-1.5" y="86" width="68" height="24" filterUnits="userSpaceOnUse" color-interpolation-filters="sRGB">
<feFlood flood-opacity="0" result="BackgroundImageFix"/>
<feBlend mode="normal" in="SourceGraphic" in2="BackgroundImageFix" result="shape"/>
<feColorMatrix in="SourceAlpha" type="matrix" values="0 0 0 0 0 0 0 0 0 0 0 0 0 0 0 0 0 0 127 0" result="hardAlpha"/>
<feMorphology radius="2" operator="erode" in="SourceAlpha" result="effect1_innerShadow_796_1810"/>
<feOffset dx="-6" dy="2"/>
<feComposite in2="hardAlpha" operator="arithmetic" k2="-1" k3="1"/>
<feColorMatrix type="matrix" values="0 0 0 0 0.286275 0 0 0 0 0.588235 0 0 0 0 0.564706 0 0 0 0.08 0"/>
<feBlend mode="normal" in2="shape" result="effect1_innerShadow_796_1810"/>
</filter>
<filter id="filter4_i_796_1810" x="-1.5" y="110" width="68" height="24" filterUnits="userSpaceOnUse" color-interpolation-filters="sRGB">
<feFlood flood-opacity="0" result="BackgroundImageFix"/>
<feBlend mode="normal" in="SourceGraphic" in2="BackgroundImageFix" result="shape"/>
<feColorMatrix in="SourceAlpha" type="matrix" values="0 0 0 0 0 0 0 0 0 0 0 0 0 0 0 0 0 0 127 0" result="hardAlpha"/>
<feMorphology radius="2" operator="erode" in="SourceAlpha" result="effect1_innerShadow_796_1810"/>
<feOffset dx="-6" dy="2"/>
<feComposite in2="hardAlpha" operator="arithmetic" k2="-1" k3="1"/>
<feColorMatrix type="matrix" values="0 0 0 0 0.286275 0 0 0 0 0.588235 0 0 0 0 0.564706 0 0 0 0.08 0"/>
<feBlend mode="normal" in2="shape" result="effect1_innerShadow_796_1810"/>
</filter>
<filter id="filter5_d_796_1810" x="118.5" y="10" width="78" height="130" filterUnits="userSpaceOnUse" color-interpolation-filters="sRGB">
<feFlood flood-opacity="0" result="BackgroundImageFix"/>
<feColorMatrix in="SourceAlpha" type="matrix" values="0 0 0 0 0 0 0 0 0 0 0 0 0 0 0 0 0 0 127 0" result="hardAlpha"/>
<feOffset dy="2"/>
<feGaussianBlur stdDeviation="3"/>
<feComposite in2="hardAlpha" operator="out"/>
<feColorMatrix type="matrix" values="0 0 0 0 0.466667 0 0 0 0 0.466667 0 0 0 0 0.466667 0 0 0 0.08 0"/>
<feBlend mode="normal" in2="BackgroundImageFix" result="effect1_dropShadow_796_1810"/>
<feBlend mode="normal" in="SourceGraphic" in2="effect1_dropShadow_796_1810" result="shape"/>
</filter>
<filter id="filter6_i_796_1810" x="122.5" y="110" width="34" height="24" filterUnits="userSpaceOnUse" color-interpolation-filters="sRGB">
<feFlood flood-opacity="0" result="BackgroundImageFix"/>
<feBlend mode="normal" in="SourceGraphic" in2="BackgroundImageFix" result="shape"/>
<feColorMatrix in="SourceAlpha" type="matrix" values="0 0 0 0 0 0 0 0 0 0 0 0 0 0 0 0 0 0 127 0" result="hardAlpha"/>
<feMorphology radius="2" operator="erode" in="SourceAlpha" result="effect1_innerShadow_796_1810"/>
<feOffset dx="-6" dy="2"/>
<feComposite in2="hardAlpha" operator="arithmetic" k2="-1" k3="1"/>
<feColorMatrix type="matrix" values="0 0 0 0 0.286275 0 0 0 0 0.588235 0 0 0 0 0.564706 0 0 0 0.08 0"/>
<feBlend mode="normal" in2="shape" result="effect1_innerShadow_796_1810"/>
</filter>
<filter id="filter7_i_796_1810" x="122.5" y="62" width="34" height="24" filterUnits="userSpaceOnUse" color-interpolation-filters="sRGB">
<feFlood flood-opacity="0" result="BackgroundImageFix"/>
<feBlend mode="normal" in="SourceGraphic" in2="BackgroundImageFix" result="shape"/>
<feColorMatrix in="SourceAlpha" type="matrix" values="0 0 0 0 0 0 0 0 0 0 0 0 0 0 0 0 0 0 127 0" result="hardAlpha"/>
<feMorphology radius="2" operator="erode" in="SourceAlpha" result="effect1_innerShadow_796_1810"/>
<feOffset dx="-6" dy="2"/>
<feComposite in2="hardAlpha" operator="arithmetic" k2="-1" k3="1"/>
<feColorMatrix type="matrix" values="0 0 0 0 0.223958 0 0 0 0 0.5375 0 0 0 0 0.513068 0 0 0 1 0"/>
<feBlend mode="normal" in2="shape" result="effect1_innerShadow_796_1810"/>
</filter>
<filter id="filter8_i_796_1810" x="122.5" y="38" width="34" height="24" filterUnits="userSpaceOnUse" color-interpolation-filters="sRGB">
<feFlood flood-opacity="0" result="BackgroundImageFix"/>
<feBlend mode="normal" in="SourceGraphic" in2="BackgroundImageFix" result="shape"/>
<feColorMatrix in="SourceAlpha" type="matrix" values="0 0 0 0 0 0 0 0 0 0 0 0 0 0 0 0 0 0 127 0" result="hardAlpha"/>
<feMorphology radius="2" operator="erode" in="SourceAlpha" result="effect1_innerShadow_796_1810"/>
<feOffset dx="-6" dy="2"/>
<feComposite in2="hardAlpha" operator="arithmetic" k2="-1" k3="1"/>
<feColorMatrix type="matrix" values="0 0 0 0 0.223958 0 0 0 0 0.5375 0 0 0 0 0.513068 0 0 0 1 0"/>
<feBlend mode="normal" in2="shape" result="effect1_innerShadow_796_1810"/>
</filter>
<filter id="filter9_i_796_1810" x="122.5" y="14" width="34" height="24" filterUnits="userSpaceOnUse" color-interpolation-filters="sRGB">
<feFlood flood-opacity="0" result="BackgroundImageFix"/>
<feBlend mode="normal" in="SourceGraphic" in2="BackgroundImageFix" result="shape"/>
<feColorMatrix in="SourceAlpha" type="matrix" values="0 0 0 0 0 0 0 0 0 0 0 0 0 0 0 0 0 0 127 0" result="hardAlpha"/>
<feMorphology radius="2" operator="erode" in="SourceAlpha" result="effect1_innerShadow_796_1810"/>
<feOffset dx="-6" dy="2"/>
<feComposite in2="hardAlpha" operator="arithmetic" k2="-1" k3="1"/>
<feColorMatrix type="matrix" values="0 0 0 0 0.223958 0 0 0 0 0.5375 0 0 0 0 0.513068 0 0 0 1 0"/>
<feBlend mode="normal" in2="shape" result="effect1_innerShadow_796_1810"/>
</filter>
<filter id="filter10_i_796_1810" x="156.5" y="38" width="34" height="24" filterUnits="userSpaceOnUse" color-interpolation-filters="sRGB">
<feFlood flood-opacity="0" result="BackgroundImageFix"/>
<feBlend mode="normal" in="SourceGraphic" in2="BackgroundImageFix" result="shape"/>
<feColorMatrix in="SourceAlpha" type="matrix" values="0 0 0 0 0 0 0 0 0 0 0 0 0 0 0 0 0 0 127 0" result="hardAlpha"/>
<feMorphology radius="2" operator="erode" in="SourceAlpha" result="effect1_innerShadow_796_1810"/>
<feOffset dx="-6" dy="2"/>
<feComposite in2="hardAlpha" operator="arithmetic" k2="-1" k3="1"/>
<feColorMatrix type="matrix" values="0 0 0 0 0.223958 0 0 0 0 0.5375 0 0 0 0 0.513068 0 0 0 1 0"/>
<feBlend mode="normal" in2="shape" result="effect1_innerShadow_796_1810"/>
</filter>
<filter id="filter11_i_796_1810" x="156.5" y="14" width="34" height="24" filterUnits="userSpaceOnUse" color-interpolation-filters="sRGB">
<feFlood flood-opacity="0" result="BackgroundImageFix"/>
<feBlend mode="normal" in="SourceGraphic" in2="BackgroundImageFix" result="shape"/>
<feColorMatrix in="SourceAlpha" type="matrix" values="0 0 0 0 0 0 0 0 0 0 0 0 0 0 0 0 0 0 127 0" result="hardAlpha"/>
<feMorphology radius="2" operator="erode" in="SourceAlpha" result="effect1_innerShadow_796_1810"/>
<feOffset dx="-6" dy="2"/>
<feComposite in2="hardAlpha" operator="arithmetic" k2="-1" k3="1"/>
<feColorMatrix type="matrix" values="0 0 0 0 0.223958 0 0 0 0 0.5375 0 0 0 0 0.513068 0 0 0 1 0"/>
<feBlend mode="normal" in2="shape" result="effect1_innerShadow_796_1810"/>
</filter>
<filter id="filter12_i_796_1810" x="156.5" y="110" width="34" height="24" filterUnits="userSpaceOnUse" color-interpolation-filters="sRGB">
<feFlood flood-opacity="0" result="BackgroundImageFix"/>
<feBlend mode="normal" in="SourceGraphic" in2="BackgroundImageFix" result="shape"/>
<feColorMatrix in="SourceAlpha" type="matrix" values="0 0 0 0 0 0 0 0 0 0 0 0 0 0 0 0 0 0 127 0" result="hardAlpha"/>
<feMorphology radius="2" operator="erode" in="SourceAlpha" result="effect1_innerShadow_796_1810"/>
<feOffset dx="-6" dy="2"/>
<feComposite in2="hardAlpha" operator="arithmetic" k2="-1" k3="1"/>
<feColorMatrix type="matrix" values="0 0 0 0 0.286275 0 0 0 0 0.588235 0 0 0 0 0.564706 0 0 0 0.08 0"/>
<feBlend mode="normal" in2="shape" result="effect1_innerShadow_796_1810"/>
</filter>
<filter id="filter13_i_796_1810" x="156.5" y="62" width="34" height="24" filterUnits="userSpaceOnUse" color-interpolation-filters="sRGB">
<feFlood flood-opacity="0" result="BackgroundImageFix"/>
<feBlend mode="normal" in="SourceGraphic" in2="BackgroundImageFix" result="shape"/>
<feColorMatrix in="SourceAlpha" type="matrix" values="0 0 0 0 0 0 0 0 0 0 0 0 0 0 0 0 0 0 127 0" result="hardAlpha"/>
<feMorphology radius="2" operator="erode" in="SourceAlpha" result="effect1_innerShadow_796_1810"/>
<feOffset dx="-6" dy="2"/>
<feComposite in2="hardAlpha" operator="arithmetic" k2="-1" k3="1"/>
<feColorMatrix type="matrix" values="0 0 0 0 0.286275 0 0 0 0 0.588235 0 0 0 0 0.564706 0 0 0 0.08 0"/>
<feBlend mode="normal" in2="shape" result="effect1_innerShadow_796_1810"/>
</filter>
<filter id="filter14_i_796_1810" x="122.5" y="86" width="34" height="24" filterUnits="userSpaceOnUse" color-interpolation-filters="sRGB">
<feFlood flood-opacity="0" result="BackgroundImageFix"/>
<feBlend mode="normal" in="SourceGraphic" in2="BackgroundImageFix" result="shape"/>
<feColorMatrix in="SourceAlpha" type="matrix" values="0 0 0 0 0 0 0 0 0 0 0 0 0 0 0 0 0 0 127 0" result="hardAlpha"/>
<feMorphology radius="2" operator="erode" in="SourceAlpha" result="effect1_innerShadow_796_1810"/>
<feOffset dx="-6" dy="2"/>
<feComposite in2="hardAlpha" operator="arithmetic" k2="-1" k3="1"/>
<feColorMatrix type="matrix" values="0 0 0 0 0.286275 0 0 0 0 0.588235 0 0 0 0 0.564706 0 0 0 0.08 0"/>
<feBlend mode="normal" in2="shape" result="effect1_innerShadow_796_1810"/>
</filter>
<filter id="filter15_i_796_1810" x="156.5" y="86" width="34" height="24" filterUnits="userSpaceOnUse" color-interpolation-filters="sRGB">
<feFlood flood-opacity="0" result="BackgroundImageFix"/>
<feBlend mode="normal" in="SourceGraphic" in2="BackgroundImageFix" result="shape"/>
<feColorMatrix in="SourceAlpha" type="matrix" values="0 0 0 0 0 0 0 0 0 0 0 0 0 0 0 0 0 0 127 0" result="hardAlpha"/>
<feMorphology radius="2" operator="erode" in="SourceAlpha" result="effect1_innerShadow_796_1810"/>
<feOffset dx="-6" dy="2"/>
<feComposite in2="hardAlpha" operator="arithmetic" k2="-1" k3="1"/>
<feColorMatrix type="matrix" values="0 0 0 0 0.286275 0 0 0 0 0.588235 0 0 0 0 0.564706 0 0 0 0.08 0"/>
<feBlend mode="normal" in2="shape" result="effect1_innerShadow_796_1810"/>
</filter>
</defs>
</svg>
