<svg width="40" height="40" viewBox="0 0 40 40" fill="none" xmlns="http://www.w3.org/2000/svg">
<g clip-path="url(#clip0_3171_17495)">
<circle cx="20" cy="20" r="20" fill="#DFE2E7"/>
<path fill-rule="evenodd" clip-rule="evenodd" d="M19.6565 13.8455C21.4505 12.0515 24.3591 12.0515 26.1531 13.8455C27.9471 15.6395 27.9471 18.5481 26.1531 20.3421L24.4435 22.0517C24.1602 22.335 23.701 22.335 23.4177 22.0517C23.1344 21.7685 23.1344 21.3092 23.4177 21.026L25.1273 19.3163C26.3548 18.0889 26.3548 16.0987 25.1273 14.8713C23.8999 13.6438 21.9097 13.6438 20.6823 14.8713L18.9726 16.5809C18.6894 16.8642 18.2301 16.8642 17.9469 16.5809C17.6636 16.2977 17.6636 15.8384 17.9469 15.5551L19.6565 13.8455ZM13.8455 26.1551C12.0515 24.3611 12.0515 21.4524 13.8455 19.6584L15.5551 17.9488C15.8384 17.6655 16.2977 17.6655 16.5809 17.9488C16.8642 18.2321 16.8642 18.6913 16.5809 18.9746L14.8713 20.6842C13.6438 21.9117 13.6438 23.9018 14.8713 25.1293C16.0987 26.3568 18.0889 26.3568 19.3163 25.1293L21.026 23.4196C21.3092 23.1364 21.7685 23.1364 22.0517 23.4196C22.335 23.7029 22.335 24.1622 22.0517 24.4454L20.3421 26.1551C18.5481 27.9491 15.6395 27.9491 13.8455 26.1551ZM17.948 22.052C17.6647 21.7687 17.6647 21.3094 17.948 21.0262L21.0253 17.9488C21.3086 17.6656 21.7678 17.6656 22.0511 17.9488C22.3344 18.2321 22.3344 18.6914 22.0511 18.9746L18.9737 22.052C18.6905 22.3352 18.2312 22.3352 17.948 22.052Z" fill="black"/>
</g>
<defs>
<clipPath id="clip0_3171_17495">
<rect width="40" height="40" fill="white"/>
</clipPath>
</defs>
</svg>
