<svg width="24" height="24" viewBox="0 0 24 24" fill="none" xmlns="http://www.w3.org/2000/svg">
<g clip-path="url(#clip0_3062_24737)">
<rect x="5" y="3" width="14" height="20" rx="2" fill="#EEEEEE"/>
<path d="M5 5C5 3.89543 5.89543 3 7 3H17C18.1046 3 19 3.89543 19 5V5.5H5V5Z" fill="#999999"/>
<path d="M5 20.5H19V21C19 22.1046 18.1046 23 17 23H7C5.89543 23 5 22.1046 5 21V20.5Z" fill="#999999"/>
<circle cx="17.5" cy="17.5" r="6.5" fill="#38ABEB"/>
<path d="M15.8393 20.75L14.5 19.4107M14.5 19.4107L15.8393 18.0714M14.5 19.4107L19.8571 19.4107" stroke="white" stroke-linecap="round" stroke-linejoin="round"/>
<path d="M19.1607 17L20.5 15.6607M20.5 15.6607L19.1607 14.3214M20.5 15.6607H15.1429" stroke="white" stroke-linecap="round" stroke-linejoin="round"/>
</g>
<defs>
<clipPath id="clip0_3062_24737">
<rect width="24" height="24" fill="white"/>
</clipPath>
</defs>
</svg>
