<svg width="24" height="24" viewBox="0 0 24 24" fill="none" xmlns="http://www.w3.org/2000/svg">
<g clip-path="url(#clip0_3062_24680)">
<path d="M22 12C22 17.5228 17.5228 22 12 22C6.47715 22 2 17.5228 2 12C2 6.47715 6.47715 2 12 2C17.5228 2 22 6.47715 22 12Z" fill="#DAE0ED"/>
<path d="M11.9978 17.1428C12.4712 17.1428 12.8549 16.7591 12.8549 16.2857C12.8549 15.8123 12.4712 15.4285 11.9978 15.4285C11.5244 15.4285 11.1406 15.8123 11.1406 16.2857C11.1406 16.7591 11.5244 17.1428 11.9978 17.1428Z" fill="white"/>
<path d="M10.9321 8.28315C10.891 7.66602 11.3804 7.14282 11.9989 7.14282C12.6174 7.14282 13.1069 7.66602 13.0658 8.28315L12.7303 13.3158C12.7046 13.7008 12.3848 14 11.9989 14C11.6131 14 11.2933 13.7008 11.2676 13.3158L10.9321 8.28315Z" fill="white"/>
</g>
<defs>
<clipPath id="clip0_3062_24680">
<rect width="24" height="24" fill="white"/>
</clipPath>
</defs>
</svg>
