<svg width="24" height="24" viewBox="0 0 24 24" fill="none" xmlns="http://www.w3.org/2000/svg">
<g clip-path="url(#clip0_3062_22533)">
<path d="M11.3539 17.3526C10.9018 19.0397 11.8577 20.7424 12.3357 21.5938C13.1753 21.0954 14.8545 20.0988 15.3065 18.4117C15.7586 16.7246 15.3409 15.6483 15.1773 14.9414L13.201 14.4119C12.821 14.732 11.806 15.6655 11.3539 17.3526Z" fill="#07BFE0"/>
<path d="M5.36787 11.363C3.68077 11.8151 1.97805 10.8592 1.1267 10.3812C1.62502 9.54163 2.62166 7.86244 4.30876 7.41039C5.99586 6.95833 7.07217 7.376 7.77903 7.53964L8.30858 9.51595C7.98847 9.89592 7.05497 10.911 5.36787 11.363Z" fill="#07BFE0"/>
<path d="M8.55061 5.46306C12.1675 1.84615 17.9546 1.84615 20.8481 1.84615C20.8481 4.73968 20.8481 10.5267 17.2312 14.1436C13.6143 17.7606 10.2385 18.2428 8.18892 18.8456L3.84862 14.5053C4.08975 13.0586 4.9337 9.07997 8.55061 5.46306Z" fill="#EEEEEE"/>
<path d="M2.25369 16.1037C0.84221 17.5152 1.15979 20.0912 1.31858 21.3791C2.60656 21.5379 5.1825 21.8555 6.59398 20.444C8.00546 19.0325 8.03486 17.5564 8.19071 16.6771L6.02057 14.507C5.38981 14.5349 3.66516 14.6923 2.25369 16.1037Z" fill="#FCAB39"/>
<path d="M3.64144 16.1554C2.58283 17.214 2.70045 19.0254 2.75926 19.9311C3.66496 19.99 5.47636 20.1076 6.53497 19.049C7.59357 17.9904 7.67591 16.9435 7.82294 16.3142L6.37617 14.8675C5.92823 14.9135 4.70005 15.0968 3.64144 16.1554Z" fill="#FB7634"/>
<path fill-rule="evenodd" clip-rule="evenodd" d="M11.0042 18.0443C10.3011 18.2805 9.65232 18.4516 9.07332 18.6042C8.75695 18.6877 8.46142 18.7656 8.18927 18.8456L3.84898 14.5053C3.94801 13.9111 4.14875 12.8897 4.60156 11.6417L11.0042 18.0443Z" fill="#07BFE0"/>
<path fill-rule="evenodd" clip-rule="evenodd" d="M20.2284 8.46817L14.2253 2.46499C16.7461 1.84809 19.2407 1.84809 20.8453 1.84809C20.8453 3.45276 20.8453 5.94734 20.2284 8.46817Z" fill="#07BFE0"/>
<circle cx="13.6094" cy="9.08053" r="3.06905" transform="rotate(45 13.6094 9.08053)" fill="#4A91E4"/>
</g>
<defs>
<clipPath id="clip0_3062_22533">
<rect width="24" height="24" fill="white"/>
</clipPath>
</defs>
</svg>
