<svg width="52" height="52" viewBox="0 0 52 52" fill="none" xmlns="http://www.w3.org/2000/svg">
<ellipse cx="26" cy="26" rx="24" ry="25" fill="#FFEB00"/>
<path d="M25.8168 17.1057C20.5148 17.1057 16.2168 20.692 16.2168 25.1159C16.2168 27.976 18.0137 30.4856 20.7166 31.9028C20.5696 32.4394 19.7717 35.3553 19.7399 35.5844C19.7399 35.5844 19.7208 35.7565 19.8261 35.8222C19.9314 35.8878 20.0553 35.8368 20.0553 35.8368C20.3574 35.7922 23.5578 33.4132 24.1117 33.0001C24.6651 33.083 25.2349 33.1261 25.8168 33.1261C31.1188 33.1261 35.4168 29.5399 35.4168 25.1159C35.4168 20.692 31.1188 17.1057 25.8168 17.1057Z" fill="#060B11"/>
</svg>
