<svg width="52" height="52" viewBox="0 0 52 52" fill="none" xmlns="http://www.w3.org/2000/svg">
<circle cx="26" cy="26" r="24" fill="#DFE2E7"/>
<path fill-rule="evenodd" clip-rule="evenodd" d="M25.588 18.6146C27.7408 16.4618 31.2312 16.4618 33.384 18.6146C35.5368 20.7674 35.5368 24.2577 33.384 26.4105L31.3324 28.4621C30.9925 28.802 30.4414 28.802 30.1015 28.4621C29.7616 28.1222 29.7616 27.5711 30.1015 27.2312L32.153 25.1796C33.626 23.7066 33.626 21.3185 32.153 19.8455C30.6801 18.3726 28.2919 18.3726 26.819 19.8455L24.7674 21.8971C24.4275 22.237 23.8764 22.237 23.5365 21.8971C23.1965 21.5572 23.1965 21.0061 23.5365 20.6662L25.588 18.6146ZM18.6146 33.3861C16.4618 31.2333 16.4618 27.7429 18.6146 25.5901L20.6662 23.5386C21.0061 23.1987 21.5572 23.1987 21.8971 23.5386C22.237 23.8785 22.237 24.4296 21.8971 24.7695L19.8455 26.8211C18.3726 28.294 18.3726 30.6822 19.8455 32.1551C21.3185 33.6281 23.7066 33.6281 25.1796 32.1551L27.2312 30.1036C27.5711 29.7637 28.1222 29.7637 28.4621 30.1036C28.802 30.4435 28.802 30.9946 28.4621 31.3345L26.4105 33.3861C24.2577 35.5389 20.7674 35.5389 18.6146 33.3861ZM23.539 28.4624C23.1991 28.1224 23.1991 27.5713 23.539 27.2314L27.2318 23.5386C27.5717 23.1987 28.1228 23.1987 28.4627 23.5386C28.8026 23.8785 28.8026 24.4296 28.4627 24.7695L24.7699 28.4624C24.43 28.8023 23.8789 28.8023 23.539 28.4624Z" fill="black"/>
</svg>
