<svg width="40" height="41" viewBox="0 0 40 41" fill="none" xmlns="http://www.w3.org/2000/svg">
<rect x="0.5" y="1" width="39" height="39" rx="19.5" stroke="#EEEEEE"/>
<rect x="12" y="9.5" width="16" height="22" rx="2" fill="#666666"/>
<rect x="12" y="12.5" width="16" height="16" fill="#5397F7"/>
<path d="M16.4642 16.9642L18.2325 18.7325M18.2325 18.7325C18.7013 18.2637 19.337 18 20 18M18.2325 18.7325C17.7637 19.2013 17.5 19.837 17.5 20.5M17.5 20.5H15M17.5 20.5C17.5 21.163 17.7637 21.7987 18.2325 22.2675M18.2325 22.2675L16.4642 24.0358M18.2325 22.2675C18.7013 22.7363 19.337 23 20 23M20 23V25.5M20 23C20.663 23 21.2987 22.7363 21.7675 22.2675M21.7675 22.2675L23.5358 24.0358M21.7675 22.2675C22.2363 21.7987 22.5 21.163 22.5 20.5M25 20.5H22.5M22.5 20.5C22.5 19.837 22.2363 19.2013 21.7675 18.7325M23.5358 16.9642L21.7675 18.7325M21.7675 18.7325C21.2987 18.2637 20.663 18 20 18M20 18V15.5" stroke="white" stroke-width="1.2"/>
</svg>
