<svg width="30" height="30" viewBox="0 0 30 30" fill="none" xmlns="http://www.w3.org/2000/svg">
<path fill-rule="evenodd" clip-rule="evenodd" d="M26 15C26 14.4477 25.5523 14 25 14H6C5.44772 14 5 14.4477 5 15C5 15.5523 5.44772 16 6 16H25C25.5523 16 26 15.5523 26 15Z" fill="black"/>
<path fill-rule="evenodd" clip-rule="evenodd" d="M16.5304 6.28278C16.1343 6.66764 16.1252 7.30074 16.5101 7.69685L23.6057 15L16.5101 22.3032C16.1252 22.6993 16.1343 23.3324 16.5304 23.7172C16.9265 24.1021 17.5596 24.093 17.9445 23.6968L25.7172 15.6968C26.0943 15.3088 26.0943 14.6912 25.7172 14.3032L17.9445 6.30316C17.5596 5.90704 16.9265 5.89792 16.5304 6.28278Z" fill="black"/>
</svg>
