<svg width="20" height="20" viewBox="0 0 20 20" fill="none" xmlns="http://www.w3.org/2000/svg">
<g clip-path="url(#clip0_2273_17187)">
<rect x="4.16797" y="2.5" width="11.6667" height="16.6667" rx="2" fill="#EEEEEE"/>
<path d="M4.16797 4.5C4.16797 3.39543 5.0634 2.5 6.16797 2.5H13.8346C14.9392 2.5 15.8346 3.39543 15.8346 4.5V4.58333H4.16797V4.5Z" fill="#999999"/>
<path d="M4.16797 17.083H15.8346V17.1663C15.8346 18.2709 14.9392 19.1663 13.8346 19.1663H6.16797C5.0634 19.1663 4.16797 18.2709 4.16797 17.1663V17.083Z" fill="#999999"/>
<path d="M8.0651 11.4796C7.72756 11.0108 7.72756 10.3787 8.0651 9.90991C8.14795 9.79484 8.27293 9.71718 8.4128 9.69387L9.2814 9.5491C9.32722 9.54147 9.36951 9.5197 9.40236 9.48686L9.95956 8.92965C10.6861 8.20313 11.0493 7.83986 11.358 7.96771C11.6667 8.09557 11.6667 8.6093 11.6667 9.63676L11.6667 11.7528C11.6667 12.7802 11.6667 13.294 11.358 13.4218C11.0493 13.5497 10.6861 13.1864 9.95956 12.4599L9.40236 11.9027C9.36951 11.8698 9.32722 11.8481 9.2814 11.8404L8.4128 11.6957C8.27293 11.6724 8.14795 11.5947 8.0651 11.4796Z" fill="#FB7634"/>
<path d="M14.8065 9.36019C15.1952 9.74888 15.4145 10.2754 15.4167 10.8251C15.4188 11.3748 15.2036 11.9031 14.818 12.2948" stroke="#FB7634" stroke-width="1.5" stroke-linecap="round"/>
<path d="M17.4791 8.47631C18.0232 9.09821 18.3303 9.9407 18.3333 10.8202C18.3363 11.6997 18.0351 12.5449 17.4952 13.1717" stroke="#FB7634" stroke-width="1.5" stroke-linecap="round"/>
</g>
<defs>
<clipPath id="clip0_2273_17187">
<rect width="20" height="20" fill="white"/>
</clipPath>
</defs>
</svg>
