<svg width="35" height="28" viewBox="0 0 35 28" fill="none" xmlns="http://www.w3.org/2000/svg">
<path d="M34.6094 17.3469L29.6361 8.68078C29.2152 7.94561 28.2626 7.68942 27.5315 8.1127C27.2546 8.26864 27.0442 8.5137 26.9112 8.78104L25.3605 11.4767C25.2719 11.6326 25.1058 11.744 24.9064 11.744C24.7292 11.744 24.5741 11.6549 24.4855 11.5212L24.4522 11.4767L24.419 11.4321L24.275 11.187C23.3335 9.23773 21.3397 7.9122 19.0469 7.9122C17.2414 7.9122 15.6242 8.73648 14.5498 10.0286C14.5498 10.0286 14.5498 10.0286 14.5498 10.0397C14.5277 10.062 14.5055 10.0843 14.4944 10.1177C14.4058 10.2068 14.2729 10.2737 14.1289 10.2737C13.9295 10.2737 13.7634 10.1623 13.6748 10.0063L12.8994 8.65851C12.7886 8.46914 12.6446 8.30206 12.4674 8.17953C12.4563 8.16839 12.4453 8.16839 12.4342 8.15725C12.401 8.13498 12.3788 8.1127 12.3456 8.10156C12.3345 8.10156 12.3345 8.09042 12.3234 8.09042C12.3123 8.07928 12.2902 8.07928 12.2791 8.06814C12.257 8.057 12.2348 8.04586 12.2127 8.03473C12.1794 8.02359 12.1573 8.01245 12.124 7.99017C12.113 7.99017 12.1019 7.97903 12.0797 7.97903C12.0465 7.96789 12.0133 7.95675 11.969 7.94561C11.969 7.92334 11.9579 7.92334 11.9468 7.92334C11.9136 7.9122 11.8693 7.90106 11.8361 7.90106C11.825 7.90106 11.8139 7.90106 11.8028 7.88992C11.7696 7.88992 11.7364 7.87878 11.7031 7.87878C11.681 7.87878 11.6699 7.87878 11.6478 7.87878C11.6256 7.87878 11.5924 7.87878 11.5702 7.87878C11.5481 7.87878 11.5148 7.87878 11.4927 7.87878C11.4705 7.87878 11.4595 7.87878 11.4373 7.87878C11.4041 7.87878 11.3708 7.88992 11.3376 7.88992C11.3265 7.88992 11.3155 7.88992 11.3044 7.90106C11.2712 7.9122 11.2268 7.9122 11.1936 7.92334C11.1825 7.92334 11.1715 7.93448 11.1604 7.93448C11.1272 7.94561 11.0828 7.95675 11.0496 7.96789C11.0385 7.96789 11.0275 7.97903 11.0053 7.97903C10.9721 7.99017 10.9389 8.00131 10.9167 8.02359C10.8945 8.03473 10.8724 8.04586 10.8502 8.057C10.8392 8.06814 10.817 8.06814 10.8059 8.07928C10.7949 8.07928 10.7949 8.09042 10.7838 8.09042C10.7395 8.1127 10.7173 8.12384 10.6841 8.14612C10.673 8.15725 10.6619 8.15725 10.6509 8.16839C10.4847 8.29092 10.3296 8.44687 10.2189 8.64737L7.03991 14.1946C6.9513 14.3505 6.78515 14.4508 6.59685 14.4508C6.40855 14.4508 6.2424 14.3505 6.15379 14.1946L2.95266 8.64737C2.53175 7.9122 1.57917 7.656 0.848119 8.07928C0.117067 8.50256 -0.137694 9.46051 0.283215 10.1957L5.2012 18.7615C5.33412 19.04 5.54458 19.2739 5.82149 19.4299C6.03194 19.5524 6.25347 19.6192 6.47501 19.6304C6.48608 19.6304 6.49716 19.6304 6.49716 19.6304C6.53039 19.6304 6.55254 19.6304 6.58577 19.6304C6.619 19.6304 6.64115 19.6304 6.67438 19.6304C6.68546 19.6304 6.69654 19.6304 6.69654 19.6304C6.91807 19.6192 7.15068 19.5524 7.35005 19.4299C7.62697 19.2628 7.83742 19.0289 7.97034 18.7615L11.0828 13.3369C11.0828 13.3257 11.0939 13.3257 11.0939 13.3146C11.105 13.2923 11.1161 13.2812 11.1272 13.27C11.2158 13.1364 11.3819 13.0473 11.5481 13.0473C11.7474 13.0473 11.9247 13.1698 12.0133 13.3369L13.8409 16.5226C13.9184 16.6674 13.996 16.8122 14.0846 16.9459C14.8267 18.1155 15.9565 19.0066 17.2968 19.4187C17.8506 19.5858 18.4266 19.6861 19.0358 19.6861C19.7669 19.6861 20.4758 19.5524 21.1182 19.2962C21.1514 19.2851 21.1957 19.2628 21.229 19.2516C21.7717 19.0066 22.1483 18.4719 22.1483 17.837C22.1483 16.9793 21.4616 16.2887 20.6087 16.2887C20.4093 16.2887 20.2099 16.3332 20.0327 16.4001C20.0216 16.4001 20.0105 16.4112 19.9995 16.4112C19.7004 16.5226 19.3792 16.5783 19.0358 16.5783C18.0721 16.5783 17.2303 16.0882 16.7319 15.3419L16.5547 15.03C16.3664 14.6624 16.2667 14.2391 16.2667 13.7936C16.2667 12.2564 17.5072 11.0088 19.0358 11.0088C19.9884 11.0088 20.8302 11.4878 21.3287 12.2341C21.3397 12.2564 21.3508 12.2787 21.3619 12.3009L21.5502 12.624L23.4332 15.91C23.4443 15.9322 23.4664 15.9545 23.4775 15.9879C23.5993 16.2887 23.8209 16.5449 24.1199 16.7231C24.851 17.1464 25.8036 16.8902 26.2245 16.155L27.8417 13.348C27.9303 13.2032 28.0964 13.1029 28.2847 13.1029C28.473 13.1029 28.6281 13.2032 28.7278 13.348L31.9178 18.9175C32.3387 19.6526 33.2913 19.9088 34.0224 19.4856C34.7756 19.04 35.0303 18.0932 34.6094 17.3469Z" fill="url(#paint0_linear_6031_21950)"/>
<path d="M4.39312 21.7135L4.91372 23.2061L5.4454 21.7135H5.70016L5.01341 23.518H4.7808L4.11621 21.7135H4.39312Z" fill="#515151"/>
<path d="M8.43615 23.518H8.18139L7.99309 22.9833H7.30634L7.11804 23.518H6.86328L7.52787 21.7135H7.77156L8.43615 23.518ZM7.3728 22.7717H7.90448L7.76048 22.3484C7.7494 22.315 7.73833 22.2816 7.72725 22.2482C7.71618 22.2259 7.7051 22.1925 7.7051 22.1702C7.69402 22.1479 7.68295 22.1145 7.68295 22.0922C7.67187 22.0588 7.66079 22.0254 7.64972 21.992C7.63864 22.0365 7.62756 22.0699 7.61649 22.1034C7.60541 22.1368 7.60541 22.1591 7.59433 22.1813C7.58326 22.2036 7.57218 22.237 7.57218 22.2593C7.5611 22.2816 7.55003 22.315 7.53895 22.3596L7.3728 22.7717Z" fill="#515151"/>
<path d="M10.1864 21.7135V23.3064H11.0393V23.518H9.93164V21.7135H10.1864Z" fill="#515151"/>
<path d="M13.8523 21.7135V22.794C13.8523 22.9276 13.8412 23.0502 13.808 23.1393C13.7748 23.2395 13.7305 23.3064 13.6751 23.3732C13.6197 23.4289 13.5532 23.4735 13.4646 23.5069C13.3871 23.5291 13.2874 23.5514 13.1766 23.5514C13.0659 23.5514 12.9773 23.5403 12.8887 23.5069C12.8111 23.4846 12.7336 23.44 12.6782 23.3732C12.6228 23.3175 12.5785 23.2395 12.5453 23.1393C12.5121 23.039 12.501 22.9276 12.501 22.794V21.7135H12.7447V22.7606C12.7447 22.8608 12.7557 22.9499 12.7668 23.0168C12.7779 23.0836 12.8111 23.1504 12.8443 23.1838C12.8776 23.2284 12.9219 23.2618 12.9773 23.2841C13.0327 23.3064 13.088 23.3175 13.1656 23.3175C13.232 23.3175 13.2985 23.3064 13.3539 23.2841C13.4093 23.2618 13.4536 23.2284 13.4868 23.1838C13.52 23.1393 13.5422 23.0836 13.5643 23.0168C13.5754 22.9499 13.5865 22.8608 13.5865 22.7606V21.7135H13.8523Z" fill="#515151"/>
<path d="M16.5992 21.7135V21.9252H15.7242V22.4821H16.5438V22.6938H15.7242V23.2953H16.6103V23.5069H15.4805V21.7024H16.5992V21.7135Z" fill="#515151"/>
<path d="M21.3399 23.3183C21.2513 23.4074 21.1516 23.4631 21.0519 23.4966C20.9522 23.53 20.8415 23.5411 20.7196 23.5411C20.6089 23.5411 20.5203 23.53 20.4317 23.4966C20.343 23.4631 20.2766 23.4186 20.2101 23.3518C20.1437 23.2849 20.0994 23.2069 20.0661 23.1067C20.0329 23.0064 20.0107 22.8951 20.0107 22.7614V22.4941C20.0107 22.3604 20.0329 22.249 20.0661 22.1599C20.0994 22.0596 20.1437 21.9817 20.2101 21.9148C20.2766 21.848 20.343 21.8034 20.4317 21.77C20.5203 21.7366 20.6089 21.7255 20.7196 21.7255C20.8415 21.7255 20.9522 21.7366 21.0409 21.77C21.1295 21.8034 21.2181 21.848 21.3067 21.9148L21.1849 22.1153C21.1073 22.0485 21.0298 22.0039 20.9522 21.9817C20.8747 21.9594 20.8083 21.9482 20.7196 21.9482C20.6532 21.9482 20.5867 21.9594 20.5313 21.9817C20.476 22.0039 20.4317 22.0374 20.3873 22.0819C20.343 22.1265 20.3098 22.1933 20.2877 22.2601C20.2655 22.3381 20.2544 22.4161 20.2544 22.5275V22.728C20.2544 22.8282 20.2655 22.9173 20.2877 22.9953C20.3098 23.0733 20.343 23.129 20.3873 23.1735C20.4317 23.2181 20.476 23.2515 20.5313 23.2738C20.5867 23.2961 20.6532 23.3072 20.7196 23.3072C20.8083 23.3072 20.8858 23.2961 20.9744 23.2626C21.063 23.2292 21.1406 23.1847 21.207 23.1178L21.3399 23.3183Z" fill="#515151"/>
<path d="M23.5224 23.5411C23.4116 23.5411 23.323 23.53 23.2344 23.4966C23.1458 23.4631 23.0682 23.4186 23.0129 23.3518C22.9464 23.2849 22.9021 23.2069 22.8689 23.1067C22.8356 23.0064 22.8135 22.8951 22.8135 22.7614V22.4941C22.8135 22.3604 22.8356 22.249 22.8689 22.1599C22.9021 22.0596 22.9575 21.9817 23.0129 21.9148C23.0793 21.848 23.1569 21.8034 23.2344 21.77C23.323 21.7366 23.4227 21.7255 23.5224 21.7255C23.6221 21.7255 23.7218 21.7366 23.8104 21.77C23.899 21.8034 23.9765 21.848 24.0319 21.9148C24.0984 21.9817 24.1427 22.0596 24.1759 22.1599C24.2091 22.2601 24.2313 22.3715 24.2313 22.4941V22.7614C24.2313 22.8951 24.2091 23.0064 24.1759 23.1067C24.1427 23.2069 24.0873 23.2849 24.0319 23.3518C23.9654 23.4186 23.8879 23.4631 23.8104 23.4966C23.7218 23.53 23.6221 23.5411 23.5224 23.5411ZM23.5224 21.9371C23.4559 21.9371 23.3895 21.9482 23.3341 21.9705C23.2787 21.9928 23.2233 22.0262 23.1901 22.0708C23.1458 22.1153 23.1125 22.1822 23.0904 22.249C23.0682 22.327 23.0572 22.4161 23.0572 22.5163V22.728C23.0572 22.8282 23.0682 22.9173 23.0904 22.9953C23.1125 23.0733 23.1458 23.129 23.1901 23.1735C23.2344 23.2181 23.2787 23.2515 23.3341 23.2738C23.3895 23.2961 23.4559 23.3072 23.5224 23.3072C23.5888 23.3072 23.6553 23.2961 23.7107 23.2738C23.7661 23.2515 23.8214 23.2181 23.8547 23.1735C23.899 23.129 23.9322 23.0621 23.9544 22.9953C23.9765 22.9173 23.9876 22.8282 23.9876 22.728V22.5163C23.9876 22.4161 23.9765 22.327 23.9544 22.249C23.9322 22.171 23.899 22.1153 23.8547 22.0708C23.8104 22.0262 23.7661 21.9928 23.7107 21.9705C23.6553 21.9482 23.5888 21.9371 23.5224 21.9371Z" fill="#515151"/>
<path d="M26.1139 22.2369C26.1028 22.2147 26.1028 22.2035 26.0917 22.1812C26.0806 22.159 26.0806 22.1478 26.0695 22.1256C26.0585 22.1033 26.0585 22.0921 26.0474 22.0587C26.0363 22.0364 26.0252 22.0142 26.0252 21.9807V23.5179H25.8037V21.7468H26.1582L26.6455 22.9053L27.1218 21.7468H27.4763V23.5179H27.2437V22.003C27.2326 22.0364 27.2326 22.0587 27.2215 22.081C27.2104 22.1033 27.2104 22.1256 27.1994 22.1367C27.1883 22.159 27.1883 22.1701 27.1772 22.1924C27.1661 22.2035 27.1661 22.2258 27.155 22.2481L26.7341 23.2283H26.5348L26.1139 22.2369Z" fill="#515151"/>
<path d="M29.415 22.2369C29.4039 22.2147 29.4039 22.2035 29.3928 22.1812C29.3817 22.159 29.3817 22.1478 29.3707 22.1256C29.3596 22.1033 29.3596 22.0921 29.3485 22.0587C29.3374 22.0364 29.3264 22.0142 29.3264 21.9807V23.5179H29.0938V21.7468H29.4482L29.9356 22.9053L30.4119 21.7468H30.7663V23.5179H30.5337V22.003C30.5226 22.0364 30.5226 22.0587 30.5115 22.081C30.5005 22.1033 30.5005 22.1256 30.4894 22.1367C30.4783 22.159 30.4783 22.1701 30.4672 22.1924C30.4562 22.2035 30.4562 22.2258 30.4451 22.2481L30.0242 23.2283H29.8248L29.415 22.2369Z" fill="#515151"/>
<defs>
<linearGradient id="paint0_linear_6031_21950" x1="4.63154" y1="13.7804" x2="29.602" y2="13.7804" gradientUnits="userSpaceOnUse">
<stop stop-color="#7C56F6"/>
<stop offset="1" stop-color="#FF4593"/>
</linearGradient>
</defs>
</svg>
