<svg width="69" height="28" viewBox="0 0 69 28" fill="none" xmlns="http://www.w3.org/2000/svg">
<path fill-rule="evenodd" clip-rule="evenodd" d="M58.5845 9.57011C58.2482 9.57011 57.9368 9.65135 57.6766 9.7687V8.03555C57.6766 7.94528 57.6342 7.90015 57.5503 7.90015H56.8276C56.7433 7.90015 56.7014 7.94528 56.7014 8.03555V13.9842C56.7014 14.0655 56.7267 14.1106 56.8023 14.1377C57.2984 14.3363 57.9456 14.4627 58.4919 14.4627C59.6016 14.4627 60.4252 13.8488 60.4252 12.4768V11.4838C60.4252 10.3103 59.6435 9.57011 58.5845 9.57011ZM59.4334 12.4858C59.4334 13.2531 59.0718 13.5239 58.4666 13.5239C58.181 13.5239 57.8783 13.4877 57.6766 13.3975V10.7346C57.8866 10.5901 58.1639 10.4999 58.4836 10.4999C59.0889 10.4999 59.4334 10.7978 59.4334 11.4838V12.4858ZM64.4552 14.4627C64.6229 14.4627 64.7905 14.4536 64.9334 14.4356C65.0006 14.4265 65.0255 14.3633 65.0255 14.2911V13.6231C65.0255 13.5329 64.9836 13.4877 64.8997 13.4877C64.7905 13.4968 64.6818 13.5058 64.5809 13.5058C64.2036 13.5058 64.0272 13.2711 64.0272 12.6753V8.03555C64.0272 7.94528 63.9853 7.90015 63.9014 7.90015H63.18C63.0961 7.90015 63.0542 7.94528 63.0542 8.03555V12.7114C63.0542 13.8127 63.549 14.4627 64.4552 14.4627ZM68.9685 12.3672V11.4704C68.9685 10.1651 68.0545 9.65015 67.1234 9.65015C66.1841 9.65015 65.2443 10.1651 65.2443 11.4704V12.7312C65.2443 13.9122 66.15 14.4627 67.1151 14.4627C67.841 14.4627 68.396 14.2229 68.8489 13.85C68.917 13.7967 68.9257 13.7257 68.8742 13.6635L68.5244 13.1752C68.4816 13.113 68.413 13.1041 68.3532 13.1485C68.0375 13.3705 67.6785 13.557 67.1492 13.557C66.6024 13.557 66.2439 13.2817 66.2439 12.7401V12.4915H68.8401C68.9257 12.4915 68.9685 12.4471 68.9685 12.3672ZM67.1234 10.5558C67.6016 10.5558 68.0034 10.8133 68.0034 11.4615V11.6924H66.2439V11.4615C66.2439 10.8044 66.6195 10.5558 67.1234 10.5558ZM61.9952 14.4627H61.2676C61.1925 14.4627 61.1423 14.42 61.1423 14.3349V10.1692C61.1423 10.0925 61.1925 10.0499 61.2676 10.0499H61.9952C62.0703 10.0499 62.1122 10.0925 62.1122 10.1692V14.3349C62.1122 14.42 62.0703 14.4627 61.9952 14.4627ZM62.179 8.89136C62.179 9.20656 61.9532 9.4536 61.6358 9.4536C61.3261 9.4536 61.0838 9.20656 61.0838 8.89136C61.0838 8.56765 61.3261 8.33765 61.6358 8.33765C61.9532 8.33765 62.179 8.56765 62.179 8.89136ZM56.045 12.669C56.045 13.7701 55.2668 14.4627 54.0737 14.4627C52.8806 14.4627 52.1024 13.7701 52.1024 12.669V11.4792C52.1024 10.3605 52.8806 9.65015 54.0737 9.65015C55.2668 9.65015 56.045 10.3605 56.045 11.4792V12.669ZM53.1138 12.669C53.1138 13.2373 53.451 13.5392 54.0737 13.5392C54.6877 13.5392 55.0336 13.2373 55.0336 12.669V11.4792C55.0336 10.8932 54.6877 10.5736 54.0737 10.5736C53.451 10.5736 53.1138 10.8932 53.1138 11.4792V12.669ZM49.6394 9.65015C49.152 9.65015 48.7908 9.78635 48.3707 10.0678C48.0598 9.80451 47.6484 9.65015 47.1527 9.65015C46.6235 9.65015 46.0942 9.78635 45.6321 10.0043C45.5561 10.0406 45.5312 10.0951 45.5312 10.1677V14.3265C45.5312 14.4172 45.5732 14.4627 45.657 14.4627H46.3798C46.4636 14.4627 46.5055 14.4172 46.5055 14.3265V10.6944C46.6737 10.6399 46.892 10.5945 47.1776 10.5945C47.724 10.5945 48.0096 10.8851 48.0096 11.5479V14.3265C48.0096 14.4172 48.0598 14.4627 48.1353 14.4627H48.8581C48.9419 14.4627 48.9839 14.4172 48.9839 14.3265V11.5661C48.9839 11.2937 48.9419 11.0485 48.8747 10.8306C49.093 10.6762 49.3367 10.6036 49.614 10.6036C50.2189 10.6036 50.4796 10.9577 50.4796 11.5479V14.3265C50.4796 14.4172 50.5215 14.4627 50.5971 14.4627H51.3281C51.4037 14.4627 51.4456 14.4172 51.4456 14.3265V11.5842C51.4456 10.313 50.6897 9.65015 49.6394 9.65015Z" fill="#046241"/>
<mask id="mask0_6031_22384" style="mask-type:luminance" maskUnits="userSpaceOnUse" x="0" y="7" width="43" height="14">
<path d="M42.4652 7.90015H0.407227V20.1501H42.4652V7.90015Z" fill="white"/>
</mask>
<g mask="url(#mask0_6031_22384)">
<path d="M3.7645 14.1027C3.39683 13.6232 3.07486 13.1416 2.81313 12.6704C2.63448 12.3521 2.48284 12.0359 2.36028 11.7302C1.98638 10.7984 1.9303 10.011 2.21488 9.72204C2.33536 9.60059 2.54516 9.53986 2.81728 9.53986C3.18703 9.53986 3.67311 9.65085 4.20488 9.86863C4.50402 9.99008 4.81142 10.1408 5.12301 10.3167C5.59042 9.92517 6.06608 9.57337 6.54179 9.26555C5.95808 8.88863 5.37643 8.57662 4.81561 8.34837C3.18911 7.68457 1.85759 7.75995 1.06408 8.56196C0.268499 9.36188 0.193718 10.7041 0.850128 12.3438C1.0807 12.9196 1.39852 13.5185 1.78281 14.1174C2.09232 14.599 2.44338 15.0806 2.83597 15.5539C3.15171 15.935 3.49239 16.3119 3.85382 16.6763C4.25681 17.0825 4.67228 17.4594 5.09392 17.807C5.54884 17.562 6.037 17.248 6.53969 16.8689C6.0204 16.4731 5.50316 16.0188 5.00462 15.5162C4.5497 15.0576 4.13218 14.5823 3.7645 14.1027Z" fill="#88D38B"/>
<path d="M12.1143 15.7068C11.9066 15.1896 11.6303 14.6535 11.3 14.1174C10.9905 14.5991 10.6394 15.0807 10.2468 15.5539C10.386 15.8136 10.5065 16.0712 10.6062 16.3224C10.9801 17.2543 11.0362 18.0416 10.7516 18.3306C10.467 18.6175 9.68388 18.5609 8.75954 18.184C8.50612 18.0814 8.24435 17.9558 7.98264 17.8134C7.50693 18.205 7.02292 18.5588 6.54102 18.8625C7.08524 19.2059 7.62742 19.4907 8.1509 19.7043C8.88208 20.0037 9.55509 20.1524 10.1471 20.1524C10.8679 20.1524 11.4662 19.9304 11.9024 19.4907C12.6959 18.6908 12.7728 17.3464 12.1143 15.7089V15.7068Z" fill="#88D38B"/>
<path d="M5.12056 12.5342C5.59832 12.0526 6.07817 11.6338 6.54349 11.2715C7.03579 10.8904 7.51564 10.5742 7.96432 10.3208C8.6789 9.91878 9.32078 9.67588 9.82762 9.58165L9.16081 8.04883C8.87416 8.12212 8.57501 8.22054 8.26552 8.34618C7.70465 8.57442 7.12304 8.88644 6.53934 9.26336C6.06363 9.57118 5.58797 9.92297 5.12056 10.3146C4.72796 10.6433 4.3416 10.9951 3.9677 11.3741C3.55225 11.7929 3.1638 12.2285 2.80859 12.6682C3.07241 13.1415 3.3923 13.6231 3.75997 14.1005C4.15673 13.5687 4.61166 13.041 5.11641 12.5321L5.12056 12.5342Z" fill="#046241"/>
<path d="M11.0094 10.7585C10.9595 11.0496 10.864 11.3784 10.7249 11.7281C10.6023 12.0338 10.4506 12.35 10.272 12.6683C10.0082 13.1415 9.68828 13.6232 9.32062 14.1006C8.95295 14.5801 8.53541 15.0555 8.08049 15.514C7.56326 16.0355 7.04397 16.4857 6.54127 16.8668C6.03857 17.2479 5.55042 17.5599 5.0955 17.8049C3.74736 18.5315 2.68381 18.6823 2.33276 18.3284C2.04818 18.0415 2.10426 17.2521 2.47817 16.3203C2.57995 16.069 2.70043 15.8114 2.83753 15.5518C2.44493 15.0785 2.09387 14.5969 1.78437 14.1153C1.45201 14.6534 1.17781 15.1874 0.970088 15.7046C0.309521 17.3442 0.386379 18.6886 1.17989 19.4885C1.61611 19.9282 2.21435 20.1502 2.93516 20.1502C3.5251 20.1502 4.19813 20.0015 4.93139 19.7021C5.45487 19.4885 5.997 19.2037 6.54127 18.8603C7.02318 18.5546 7.50718 18.2028 7.98289 17.8112C8.40663 17.4615 8.82417 17.0825 9.22921 16.6763C9.59068 16.3119 9.93131 15.935 10.2471 15.5539C10.6397 15.0806 10.9907 14.599 11.3002 14.1174C11.6845 13.5185 12.0003 12.9196 12.2329 12.3437C12.3596 12.0275 12.4593 11.7239 12.5299 11.4307L11.0094 10.7585Z" fill="#046241"/>
<path d="M18.604 17.7004C17.6567 17.7004 16.6534 17.4345 15.7768 16.7874C15.6522 16.7162 15.6522 16.6199 15.7208 16.5068L16.2505 15.5938C16.3211 15.4682 16.4042 15.4535 16.5288 15.5372C17.1561 16 17.9081 16.2534 18.633 16.2534C19.358 16.2534 19.9293 15.9728 19.9293 15.4389C19.9293 14.8776 19.2604 14.7227 18.633 14.6096C17.5882 14.4128 15.8205 13.9772 15.8205 12.279C15.8205 10.721 17.2829 10.074 18.7743 10.074C19.5678 10.074 20.3759 10.2708 21.1984 10.7189C21.3106 10.7755 21.3376 10.8865 21.2691 10.9995L20.7394 11.8979C20.6688 11.9963 20.5732 12.0235 20.461 11.9691C19.9459 11.6885 19.3185 11.5063 18.6912 11.5063C17.8686 11.5063 17.4241 11.8141 17.4241 12.279C17.4241 12.8548 18.0514 12.9951 18.9696 13.1773C20.112 13.3888 21.5599 13.7532 21.5599 15.3676C21.5599 16.9821 20.2783 17.6983 18.6061 17.6983L18.604 17.7004Z" fill="#323C29"/>
<path d="M25.5529 10.5635C27.277 10.5635 28.5566 11.4597 28.5566 13.4469V14.896C28.5566 16.6215 27.3289 17.6999 25.6692 17.6999C25.1458 17.6999 24.6763 17.5805 24.2858 17.4109V19.8462C24.2858 19.9782 24.2214 20.0431 24.0905 20.0431H22.9667C22.8359 20.0431 22.7715 19.9782 22.7715 19.8462V11.2482C22.7715 11.1435 22.811 11.0765 22.9148 11.0367C23.6855 10.7331 24.7033 10.5635 25.5529 10.5635ZM27.0153 14.9086V13.4344C27.0153 12.3015 26.4544 11.9078 25.5134 11.9078C25.0689 11.9078 24.5995 11.9602 24.2858 12.0921V15.9891C24.6119 16.2132 25.044 16.3576 25.5404 16.3576C26.4814 16.3576 27.0174 15.8969 27.0174 14.9086H27.0153Z" fill="#323C29"/>
<path d="M32.4733 16.3034C32.5918 16.3034 32.7995 16.2908 33.0093 16.2761C33.1401 16.2761 33.219 16.3411 33.219 16.4604V17.4614C33.219 17.5661 33.1671 17.6582 33.0363 17.6729C32.814 17.6854 32.5398 17.7001 32.3445 17.7001C30.986 17.7001 29.9287 17.0028 29.9287 15.2647V9.24653C29.9287 9.12717 29.9931 9.06226 30.124 9.06226H31.1169C31.2208 9.06226 31.2997 9.12717 31.3122 9.23397L31.4306 10.815H32.8285C32.9469 10.815 33.0238 10.8799 33.0238 10.9992V11.9604C33.0238 12.0797 32.9449 12.1446 32.8285 12.1446H31.443V15.16C31.443 15.8846 31.8086 16.3055 32.4754 16.3055L32.4733 16.3034Z" fill="#323C29"/>
<path d="M35.0867 9.79896C34.6027 9.79896 34.2246 9.41785 34.2246 8.92994C34.2246 8.44203 34.6027 8.07349 35.0867 8.07349C35.5707 8.07349 35.9363 8.42947 35.9363 8.92994C35.9363 9.43041 35.5831 9.79896 35.0867 9.79896ZM34.5113 17.6997C34.3929 17.6997 34.316 17.6327 34.316 17.4966V10.9088C34.316 10.7873 34.395 10.7203 34.5113 10.7203H35.6475C35.7659 10.7203 35.8303 10.7873 35.8303 10.9088V17.4966C35.8303 17.6306 35.7659 17.6997 35.6475 17.6997H34.5113Z" fill="#323C29"/>
<path d="M37.2529 17.7001C37.122 17.7001 37.0576 17.6331 37.0576 17.4969V16.9169C37.0576 16.8227 37.0847 16.741 37.1366 16.674L40.3231 12.0944H37.4502C37.3194 12.0944 37.255 12.0274 37.255 11.9059V10.9092C37.255 10.7877 37.3194 10.7207 37.4502 10.7207H42.2175C42.3484 10.7207 42.4128 10.7877 42.4128 10.9092V11.4473C42.4128 11.5416 42.3858 11.6358 42.3338 11.7028L39.1328 16.3096H42.2798C42.3982 16.3096 42.4626 16.3766 42.4626 16.5127V17.4969C42.4626 17.631 42.3982 17.7001 42.2798 17.7001H37.2508H37.2529Z" fill="#323C29"/>
</g>
</svg>
