<svg width="75" height="30" viewBox="0 0 75 30" fill="none" xmlns="http://www.w3.org/2000/svg">
<g clip-path="url(#clip0_5937_1036)">
<mask id="mask0_5937_1036" style="mask-type:luminance" maskUnits="userSpaceOnUse" x="0" y="8" width="75" height="15">
<path d="M0 8.90625H74.7197V22.5H0V8.90625Z" fill="white"/>
</mask>
<g mask="url(#mask0_5937_1036)">
<path d="M36.5751 15.5605V19.4948H35.0565V15.5611C35.0565 14.3875 34.4047 13.436 32.9408 13.436C31.4768 13.436 30.825 14.3875 30.825 15.5611V19.4954H29.3064V15.5611C29.3064 13.5453 30.6377 11.9112 32.9402 11.9112C35.2426 11.9112 36.574 13.5453 36.574 15.5611L36.5751 15.5605ZM43.6985 9.10012H45.2165V15.799C45.2166 16.5683 44.9896 17.3204 44.5642 17.9601C44.1387 18.5998 43.534 19.0984 42.8264 19.3928C42.1188 19.6873 41.3402 19.7644 40.589 19.6144C39.8378 19.4644 39.1478 19.094 38.6062 18.5501C38.0645 18.0061 37.6957 17.3131 37.5462 16.5586C37.3968 15.8041 37.4734 15.022 37.7665 14.3112C38.0596 13.6005 38.5559 12.993 39.1927 12.5656C39.8295 12.1382 40.5782 11.9101 41.3441 11.9101C42.3242 11.9101 43.2975 12.3938 43.6985 13.0457V9.10012ZM43.6985 15.7996C43.7054 15.4847 43.6497 15.1717 43.5345 14.8788C43.4194 14.5859 43.2472 14.3191 43.028 14.0939C42.8088 13.8688 42.547 13.6899 42.2581 13.5677C41.9691 13.4456 41.6588 13.3826 41.3453 13.3825C41.0318 13.3824 40.7214 13.4453 40.4324 13.5673C40.1434 13.6893 39.8815 13.8681 39.6622 14.0931C39.4429 14.3182 39.2706 14.5849 39.1553 14.8778C39.04 15.1706 38.9841 15.4836 38.9909 15.7984C39.0043 16.4165 39.258 17.0047 39.6979 17.4372C40.1377 17.8696 40.7287 18.1118 41.3441 18.112C41.9596 18.1121 42.5507 17.8702 42.9907 17.438C43.4308 17.0058 43.6848 16.4176 43.6985 15.7996ZM65.8302 18.1649C65.2146 18.1514 64.6287 17.8963 64.198 17.4543C63.7673 17.0122 63.5261 16.4184 63.526 15.7998C63.526 15.1813 63.767 14.5874 64.1976 14.1452C64.6282 13.7031 65.214 13.4479 65.8297 13.4343C66.6891 13.4343 67.3223 13.8285 67.7689 14.464L68.9447 13.4898C68.5519 12.9553 68.0295 12.5308 67.427 12.2567C66.8246 11.9825 66.1624 11.868 65.5034 11.9238C64.8443 11.9797 64.2106 12.2042 63.6624 12.5759C63.1143 12.9476 62.6701 13.454 62.3721 14.0471C62.0741 14.6401 61.9323 15.2999 61.9602 15.9636C61.9881 16.6273 62.1847 17.2727 62.5314 17.8384C62.8781 18.4041 63.3632 18.8712 63.9406 19.1952C64.518 19.5191 65.1683 19.6892 65.8297 19.6891C67.262 19.6891 68.4005 18.9074 69.071 17.7474L67.9539 16.8712C67.5101 17.6336 66.8486 18.1649 65.8302 18.1649ZM60.8571 13.9214C61.4047 15.0191 61.2033 16.4549 61.2033 16.4549H55.2699C55.4204 17.4829 56.4569 18.1637 57.5306 18.1637C58.4661 18.1637 59.2009 17.8783 59.7158 17.1476L60.7646 17.9361C60.4124 18.4744 59.9324 18.9164 59.3679 19.2221C58.8033 19.5278 58.172 19.6877 57.5306 19.6874C55.3923 19.6874 53.6582 18.0709 53.6582 15.7984C53.6582 13.5254 55.3923 11.9089 57.5306 11.9089C57.8543 11.9089 58.1791 11.9491 58.4932 12.0301C59.5652 12.306 60.3727 12.9511 60.8577 13.9219L60.8571 13.9214ZM59.608 15.0202C59.396 13.8851 58.5253 13.4343 57.5306 13.4343C56.5359 13.4343 55.5885 13.9486 55.3421 15.0202H59.608ZM53.5144 12.1032H52.2834C50.4406 12.1032 49.0015 13.3408 49.0015 15.3997V19.4937H50.5189V15.3991C50.5189 14.2544 51.2238 13.628 52.2823 13.628H53.5139V12.1038L53.5144 12.1032ZM72.9445 17.9683C72.0772 17.9683 71.2026 17.2275 71.2026 16.1706V13.6297H74.2522V12.1049H71.2026V9.6365H69.6845V16.2204C69.6845 18.119 71.0537 19.4942 72.9445 19.4942H74.6859V17.9695L72.9445 17.9683ZM19.5377 22.4996H18.0197V15.7996C18.032 14.7762 18.4454 13.799 19.1702 13.0797C19.895 12.3604 20.8729 11.957 21.8918 11.957C22.9107 11.957 23.8886 12.3604 24.6134 13.0797C25.3382 13.799 25.7516 14.7762 25.7639 15.7996C25.7639 17.9474 24.0981 19.6891 21.9597 19.6891C20.9797 19.6891 19.9387 19.2054 19.5377 18.5534V22.4996ZM19.5377 15.7996C19.5377 16.4267 19.7858 17.0282 20.2273 17.4717C20.6688 17.9152 21.2677 18.1643 21.8921 18.1643C22.5165 18.1643 23.1153 17.9152 23.5568 17.4717C23.9983 17.0282 24.2464 16.4267 24.2464 15.7996C24.2464 15.1724 23.9983 14.5709 23.5568 14.1274C23.1153 13.684 22.5165 13.4348 21.8921 13.4348C21.2677 13.4348 20.6688 13.684 20.2273 14.1274C19.7858 14.5709 19.5377 15.1724 19.5377 15.7996ZM26.6554 19.4948H28.1735V12.106H26.656V19.4954L26.6554 19.4948ZM28.4159 9.91857C28.4159 10.1873 28.3097 10.4451 28.1205 10.6351C27.9313 10.8251 27.6747 10.9319 27.4071 10.9319C27.1395 10.9319 26.8829 10.8251 26.6938 10.6351C26.5046 10.4451 26.3983 10.1873 26.3983 9.91857C26.3983 9.64983 26.5046 9.39209 26.6938 9.20206C26.8829 9.01203 27.1395 8.90527 27.4071 8.90527C27.6747 8.90527 27.9313 9.01203 28.1205 9.20206C28.3097 9.39209 28.4159 9.64983 28.4159 9.91857ZM46.3505 12.1049H47.8691V19.4948H46.3505V12.106V12.1049ZM47.1017 8.90584C46.9672 8.90265 46.8335 8.92649 46.7083 8.97596C46.5832 9.02543 46.4691 9.09954 46.3729 9.19393C46.2767 9.28831 46.2003 9.40106 46.1481 9.52556C46.0959 9.65005 46.069 9.78377 46.069 9.91886C46.069 10.0539 46.0959 10.1877 46.1481 10.3122C46.2003 10.4367 46.2767 10.5494 46.3729 10.6438C46.4691 10.7382 46.5832 10.8123 46.7083 10.8618C46.8335 10.9112 46.9672 10.9351 47.1017 10.9319C47.365 10.9256 47.6155 10.8161 47.7995 10.6268C47.9836 10.4376 48.0866 10.1835 48.0866 9.91886C48.0866 9.65426 47.9836 9.40016 47.7995 9.21087C47.6155 9.02157 47.365 8.9121 47.1017 8.90584ZM11.5517 10.8968C8.90917 8.24258 4.62459 8.24258 1.98211 10.8968C-0.660376 13.5509 -0.660376 17.8545 1.98211 20.5087C4.62459 23.1629 8.90917 23.1629 11.5517 20.5087C14.1941 17.8545 14.1941 13.5509 11.5517 10.8968Z" fill="#0A0A0A"/>
<path d="M8.19869 12.8366L6.53741 14.5041C6.48079 14.5605 6.40872 14.5988 6.33038 14.6139C6.25204 14.629 6.17099 14.6204 6.09756 14.589L4.56937 13.9371C4.4959 13.9055 4.41469 13.8969 4.33626 13.9122C4.25783 13.9276 4.1858 13.9662 4.12952 14.0232L2.46711 15.6924C2.08693 16.0743 1.87335 16.5922 1.87335 17.1322C1.87335 17.6722 2.08693 18.1901 2.46711 18.572C2.84729 18.9539 3.36292 19.1684 3.90057 19.1684C4.43822 19.1684 4.95385 18.9539 5.33403 18.572L6.99587 16.9028C7.052 16.8456 7.12407 16.8068 7.20259 16.7915C7.28111 16.7763 7.36238 16.7852 7.43572 16.8173L8.96391 17.4703C9.03738 17.5015 9.11838 17.51 9.19667 17.4949C9.27496 17.4797 9.34702 17.4416 9.40376 17.3854L11.0656 15.7156C11.4458 15.3338 11.6594 14.8158 11.6594 14.2758C11.6594 13.7358 11.4458 13.2179 11.0656 12.836C10.8774 12.6469 10.6539 12.4969 10.4079 12.3946C10.162 12.2923 9.89837 12.2396 9.63215 12.2396C9.0945 12.2396 8.57887 12.4547 8.19869 12.8366ZM10.3263 14.9702L8.66391 16.64C8.60736 16.6965 8.53531 16.7349 8.45697 16.7501C8.37863 16.7653 8.29754 16.7568 8.22406 16.7255L6.69587 16.073C6.62242 16.0418 6.5414 16.0333 6.4631 16.0484C6.38479 16.0635 6.31272 16.1017 6.25602 16.158L4.59305 17.8277C4.40932 18.0123 4.16012 18.116 3.90029 18.116C3.64045 18.116 3.39126 18.0123 3.20752 17.8277C3.02379 17.6432 2.92057 17.3929 2.92057 17.1319C2.92057 16.8709 3.02379 16.6206 3.20752 16.4361L4.86937 14.7663C4.92573 14.7095 4.99776 14.6709 5.07615 14.6556C5.15455 14.6402 5.23572 14.6488 5.30922 14.6802L6.83685 15.3333C6.91023 15.3649 6.99134 15.3736 7.06973 15.3585C7.14812 15.3433 7.2202 15.305 7.2767 15.2483L8.93854 13.5786C9.12258 13.3953 9.37143 13.2927 9.63059 13.2934C9.88975 13.294 10.1381 13.3978 10.3212 13.582C10.7036 13.9654 10.7058 14.5862 10.3263 14.9702Z" fill="white"/>
</g>
</g>
<defs>
<clipPath id="clip0_5937_1036">
<rect width="75" height="13.5938" fill="white" transform="translate(0 8.90625)"/>
</clipPath>
</defs>
</svg>
