<svg width="54" height="30" viewBox="0 0 54 30" fill="none" xmlns="http://www.w3.org/2000/svg">
<g clip-path="url(#clip0_5937_1017)">
<path fill-rule="evenodd" clip-rule="evenodd" d="M8.93602 15.0243H3.9047V13.2596H8.93602V15.0243ZM1.67514 13.3192H1.24372C0.606341 13.3192 0.0878667 12.7913 0.0878667 12.1422C0.0878667 11.4934 0.606341 10.9655 1.24372 10.9655H12.5795V13.3192H11.3294V15.1409H12.5795V17.4949H1.24372C0.606341 17.4949 0.0878667 16.9669 0.0878667 16.3179C0.0878667 15.6691 0.606341 15.1409 1.24372 15.1409H1.67514V13.3192ZM15.8028 13.2937H20.7061V15.0955H15.8028C15.1733 15.0955 14.6613 15.6176 14.6613 16.2596V20.3896C14.6613 21.0313 15.1733 21.5537 15.8028 21.5537H22.989V19.2255H16.9442V17.4236H22.989V10.9655H15.8028C15.1733 10.9655 14.6613 11.4876 14.6613 12.1296C14.6613 12.7715 15.1733 13.2937 15.8028 13.2937ZM24.724 21.5537H26.9794V10.9655H24.724V21.5537ZM1.24192 21.5537H12.5794V19.2596H1.24192C0.605513 19.2596 0.0878296 19.7741 0.0878296 20.4066C0.0878296 21.0391 0.605513 21.5537 1.24192 21.5537ZM30.2142 21.5537C29.5785 21.5537 29.0613 21.0391 29.0613 20.4066C29.0613 19.7741 29.5785 19.2596 30.2142 19.2596H37.389V21.5537H30.2142ZM29.0613 16.1713C29.0613 16.8039 29.5785 17.3184 30.2142 17.3184H37.389V15.0243H30.2142C29.5785 15.0243 29.0613 15.5388 29.0613 16.1713ZM30.2142 13.2596C29.5785 13.2596 29.0613 12.745 29.0613 12.1125C29.0613 11.48 29.5785 10.9655 30.2142 10.9655H37.389V13.2596H30.2142ZM39.2975 21.5537H41.5529V10.9655H39.2975V21.5537ZM53.6975 13.6125C53.6975 15.0744 52.5323 16.2596 51.0951 16.2596C49.6577 16.2596 48.4926 15.0744 48.4926 13.6125C48.4926 12.1506 49.6577 10.9655 51.0951 10.9655C52.5323 10.9655 53.6975 12.1506 53.6975 13.6125ZM47.1046 20.1419C47.1046 20.9216 46.4833 21.5537 45.7167 21.5537C44.9502 21.5537 44.3288 20.9216 44.3288 20.1419C44.3288 19.3622 44.9502 18.7302 45.7167 18.7302C46.4833 18.7302 47.1046 19.3622 47.1046 20.1419Z" fill="#EF4125"/>
</g>
<defs>
<clipPath id="clip0_5937_1017">
<rect width="54" height="11.25" fill="white" transform="translate(0 10.4196)"/>
</clipPath>
</defs>
</svg>
