<svg width="81" height="30" viewBox="0 0 81 30" fill="none" xmlns="http://www.w3.org/2000/svg">
<g clip-path="url(#clip0_5937_1056)">
<path d="M19.948 5.25122C20.3894 5.25122 20.7786 5.32288 21.1189 5.46453C21.4592 5.60784 21.7439 5.81115 21.9713 6.07612C22.1987 6.34108 22.3723 6.65771 22.4885 7.02766C22.6047 7.39595 22.662 7.8059 22.662 8.25751V11.7287C22.662 12.1803 22.6031 12.5886 22.4885 12.9536C22.3723 13.3185 22.2004 13.6318 21.9713 13.8918C21.7422 14.1534 21.4592 14.3551 21.1189 14.4984C20.7786 14.6417 20.3877 14.7117 19.948 14.7117C19.5083 14.7117 19.1074 14.64 18.7705 14.4984C18.4335 14.3551 18.1539 14.1534 17.9298 13.8918C17.7058 13.6302 17.5356 13.3169 17.4194 12.9536C17.3031 12.5886 17.2458 12.1803 17.2458 11.7287V8.25751C17.2458 7.8059 17.3031 7.39595 17.4194 7.02766C17.5356 6.65938 17.7074 6.34275 17.9366 6.07612C18.1657 5.81115 18.447 5.60618 18.7839 5.46453C19.1209 5.32121 19.5083 5.25122 19.9497 5.25122H19.948ZM21.1391 8.25751C21.1391 7.67091 21.0245 7.24763 20.7971 6.986C20.568 6.72437 20.2867 6.59438 19.9497 6.59438C19.6128 6.59438 19.3348 6.72437 19.1141 6.986C18.8934 7.24763 18.7839 7.67091 18.7839 8.25751V11.7287C18.7839 12.3153 18.8918 12.7386 19.1091 13.0002C19.3247 13.2619 19.6061 13.3919 19.9497 13.3919C20.2934 13.3919 20.568 13.2619 20.7971 13.0002C21.0245 12.7386 21.1391 12.3153 21.1391 11.7287V8.25751ZM25.6927 5.27455V9.09073H27.0859V10.4222H25.6927V15.4616H24.1428V5.27455H25.6927Z" fill="#121212"/>
<path d="M31.0398 5.25122C31.4879 5.25122 31.8838 5.32288 32.2241 5.46453C32.5644 5.60784 32.8474 5.81115 33.0715 6.07612C33.2956 6.34108 33.464 6.65771 33.5752 7.02766C33.6881 7.39595 33.7437 7.8059 33.7437 8.25751V11.7287C33.7437 12.1803 33.6881 12.5886 33.5752 12.9536C33.4623 13.3185 33.2956 13.6318 33.0715 13.8918C32.8474 14.1534 32.5644 14.3551 32.2241 14.4984C31.8838 14.6417 31.4896 14.7117 31.0398 14.7117C30.59 14.7117 30.2008 14.64 29.869 14.4984C29.5371 14.3551 29.2574 14.1534 29.0334 13.8918C28.8093 13.6302 28.6425 13.3169 28.5347 12.9536C28.4269 12.5886 28.373 12.1803 28.373 11.7287V8.25751C28.373 7.8059 28.4286 7.39595 28.5415 7.02766C28.6543 6.65938 28.8194 6.34275 29.0401 6.07612C29.2608 5.81115 29.5371 5.60618 29.869 5.46453C30.2008 5.32121 30.5917 5.25122 31.0398 5.25122ZM32.1921 8.25751C32.1921 7.67091 32.0877 7.24763 31.8804 6.986C31.6715 6.72437 31.3919 6.59438 31.0398 6.59438C30.6877 6.59438 30.4316 6.72437 30.2227 6.986C30.0138 7.24763 29.9111 7.67091 29.9111 8.25751V11.7287C29.9111 12.3153 30.0155 12.7386 30.2227 13.0002C30.4316 13.2619 30.7029 13.3919 31.0398 13.3919C31.3767 13.3919 31.6732 13.2619 31.8804 13.0002C32.0877 12.7386 32.1921 12.3153 32.1921 11.7287V8.25751ZM37.0591 5.27455V15.4616H35.521V5.27455H37.0591Z" fill="#121212"/>
<path d="M48.3412 13.6434V14.9749H39.0537V13.6434H48.3412ZM39.5574 5.65613H47.8594V6.98763H44.5305V7.81919C44.5305 7.93084 44.5339 8.02249 44.5423 8.09915C44.5507 8.17414 44.5676 8.24247 44.5962 8.30079C44.6249 8.36078 44.6653 8.41744 44.7226 8.47244C44.7782 8.52743 44.854 8.59076 44.9517 8.66241C45.4958 9.0657 46.0417 9.45898 46.5858 9.83893C47.13 10.2189 47.6943 10.5955 48.2806 10.9688L47.4871 12.0853C46.8705 11.6804 46.2708 11.2737 45.6913 10.8605C45.1101 10.4489 44.5524 10.0322 44.015 9.61229C43.9274 9.53397 43.8584 9.47564 43.8112 9.44065C43.7623 9.40565 43.727 9.35566 43.7034 9.29233C43.6798 9.35566 43.6495 9.40565 43.6124 9.44065C43.577 9.47564 43.5181 9.52897 43.4389 9.60063C42.9099 10.0372 42.3556 10.4639 41.7744 10.8838C41.1932 11.3037 40.5952 11.7154 39.9786 12.1203L39.1733 10.9905C39.7747 10.6105 40.3442 10.2272 40.8849 9.84393C41.4257 9.45898 41.9597 9.0607 42.4887 8.64908C42.6403 8.52243 42.7431 8.40745 42.7953 8.30413C42.8476 8.2008 42.8728 8.03916 42.8728 7.81752V6.98596H39.5557V5.65613H39.5574Z" fill="#121212"/>
<path d="M55.4303 11.3838V13.8435H59.2629V15.175H50.0225V13.8435H53.8787V11.3838H52.2934C52.1806 11.3838 52.0845 11.3772 52.0054 11.3655C51.9262 11.3538 51.8487 11.3305 51.7779 11.2939C51.7055 11.2589 51.6331 11.2122 51.5623 11.1572C51.4899 11.1022 51.4107 11.0272 51.3214 10.9306L50.7806 10.3606C50.6998 10.2807 50.6341 10.2057 50.5818 10.134C50.5296 10.0623 50.4892 9.99069 50.4622 9.9207C50.4336 9.84904 50.415 9.76738 50.4016 9.6774C50.3898 9.58574 50.383 9.47742 50.383 9.35077V5.9762C50.383 5.6829 50.5313 5.53625 50.8278 5.53625H58.3734C58.6699 5.53625 58.8181 5.6829 58.8181 5.9762V10.9206C58.8181 11.2289 58.6699 11.3838 58.3734 11.3838H55.4303ZM57.2699 10.029V6.86775H51.9464V9.17413C51.9464 9.24578 51.9548 9.30411 51.97 9.35244C51.9851 9.40076 52.0188 9.45242 52.066 9.50742L52.4619 9.9107C52.5091 9.95069 52.5495 9.98069 52.5815 10.0007C52.6135 10.0207 52.6607 10.0307 52.7264 10.0307H57.2682L57.2699 10.029Z" fill="#121212"/>
<path d="M62.5311 8.88908H64.802V5.5595H66.3519V14.1884C66.3519 14.49 66.207 14.64 65.919 14.64H62.9034C62.7754 14.64 62.6676 14.6367 62.5783 14.6283C62.4907 14.62 62.4081 14.6 62.3323 14.5684C62.2565 14.5367 62.1841 14.495 62.1167 14.4434C62.0476 14.3917 61.9752 14.3234 61.8943 14.2351L61.3299 13.6168C61.2575 13.5385 61.2002 13.4668 61.1564 13.4035C61.1126 13.3402 61.0756 13.2702 61.0486 13.1952C61.02 13.1202 61.0031 13.0369 60.9947 12.9452C60.9863 12.8536 60.9829 12.7369 60.9829 12.5953V5.5595H62.5328V8.88741L62.5311 8.88908ZM64.802 13.2985V10.2322H62.5311V12.467C62.5311 12.5703 62.5715 12.6653 62.6507 12.7519L63.0348 13.1802C63.0837 13.2269 63.1275 13.2602 63.1662 13.2752C63.2067 13.2919 63.2505 13.2985 63.2976 13.2985H64.8003H64.802ZM69.4281 5.27454V9.16071H70.8213V10.4805H69.4281V15.4599H67.8782V5.27454H69.4281Z" fill="#121212"/>
<path d="M74.7028 5.15625C75.1425 5.15625 75.535 5.22124 75.8804 5.35289C76.224 5.48288 76.5138 5.65952 76.7463 5.88116C76.9788 6.1028 77.1556 6.35943 77.2803 6.64773C77.405 6.93769 77.4656 7.24099 77.4656 7.55761V7.78425C77.4656 8.09254 77.4033 8.39251 77.2803 8.68247C77.1556 8.97243 76.9788 9.2274 76.7463 9.44904C76.5138 9.67068 76.2257 9.84899 75.8804 9.98397C75.535 10.119 75.1425 10.1856 74.7028 10.1856C74.2631 10.1856 73.8453 10.119 73.5016 9.98397C73.1579 9.84899 72.8682 9.67068 72.6357 9.44904C72.4032 9.2274 72.2297 8.97243 72.1135 8.68247C71.9972 8.39251 71.9399 8.09421 71.9399 7.78425V7.55761C71.9399 7.24099 71.9972 6.93769 72.1135 6.64773C72.2297 6.35943 72.4032 6.1028 72.6357 5.88116C72.8682 5.65952 73.1563 5.48288 73.5016 5.35289C73.8453 5.22291 74.2462 5.15625 74.7028 5.15625ZM74.3423 13.7385V14.1384C74.3423 14.1951 74.3574 14.2351 74.3911 14.2601L74.4265 14.3084C74.4417 14.3334 74.4737 14.3451 74.5225 14.3451H80.9983V15.6049H74.0171C73.8082 15.6049 73.66 15.5816 73.5724 15.5333C73.4848 15.4849 73.3837 15.4066 73.2725 15.295L73.0922 15.105C72.9794 14.9783 72.9036 14.8667 72.8648 14.7717C72.8244 14.6767 72.8042 14.5184 72.8042 14.2968V12.9886C72.8042 12.8619 72.848 12.7653 72.9356 12.697C73.0232 12.6303 73.136 12.5953 73.2725 12.5953H79.1368C79.2328 12.5953 79.2817 12.5553 79.2817 12.477V12.0487H72.8059V10.7889H80.3514C80.6479 10.7889 80.7962 10.9239 80.7962 11.1922V12.7736C80.7962 13.0502 80.7204 13.2802 80.5688 13.4635C80.4171 13.6452 80.1964 13.7368 79.9084 13.7368H74.3456L74.3423 13.7385ZM75.9646 7.55761C75.9646 7.42263 75.9393 7.28765 75.8871 7.15433C75.8349 7.01935 75.7557 6.89936 75.6462 6.79104C75.5384 6.68439 75.4053 6.5994 75.2503 6.53607C75.0936 6.47275 74.9117 6.44109 74.7028 6.44109C74.4939 6.44109 74.3103 6.47275 74.1502 6.53607C73.9902 6.5994 73.8571 6.68439 73.7543 6.79104C73.6499 6.8977 73.5724 7.01935 73.5202 7.15433C73.4679 7.28931 73.4427 7.4243 73.4427 7.55761V7.78425C73.4427 7.91923 73.4679 8.05422 73.5202 8.1892C73.5724 8.32418 73.6499 8.44417 73.7543 8.55248C73.8588 8.65914 73.9902 8.74413 74.1502 8.80745C74.3103 8.87078 74.4939 8.90244 74.7028 8.90244C74.9117 8.90244 75.0936 8.87078 75.2503 8.80745C75.407 8.74413 75.5384 8.65914 75.6462 8.55248C75.754 8.44583 75.8349 8.32418 75.8871 8.1892C75.9393 8.05422 75.9646 7.91923 75.9646 7.78425V7.55761ZM80.7962 5.27457V10.2189H79.2581V5.27457H80.7962Z" fill="#121212"/>
<path d="M33.897 21.3292L32.2578 19.1812H31.5536V23.9156H32.2039V20.2094L33.8987 22.3291L35.5648 20.211V23.9156H36.2134V19.1812H35.5092L33.897 21.3292Z" fill="#636363"/>
<path d="M39.4985 19.1261C38.0918 19.1261 37.0692 20.146 37.0692 21.5491C37.0692 22.9523 38.0901 23.9721 39.4985 23.9721C40.9069 23.9721 41.9278 22.9523 41.9278 21.5491C41.9278 20.146 40.9069 19.1261 39.4985 19.1261ZM41.2775 21.5491C41.2775 22.6057 40.5463 23.3439 39.4985 23.3439C38.4506 23.3439 37.7195 22.6057 37.7195 21.5491C37.7195 20.4926 38.4506 19.7544 39.4985 19.7544C40.5463 19.7544 41.2775 20.4926 41.2775 21.5491Z" fill="#636363"/>
<path d="M44.4042 23.1007L42.8459 19.2195L42.8308 19.1812H42.1215L44.0437 23.8789L44.0589 23.9156H44.7479L46.6853 19.1812H45.976L44.4042 23.1007Z" fill="#636363"/>
<path d="M47.2597 23.9156H50.8143V23.294H47.91V21.8591H50.5044V21.2309H47.91V19.8027H50.8143V19.1812H47.2597V23.9156Z" fill="#636363"/>
<path d="M51.1681 24.8437H51.7661L52.4366 23.2389H51.6095L51.1681 24.8437Z" fill="#636363"/>
<path d="M58.1578 21.4909C58.4256 21.3342 58.6969 21.0326 58.6969 20.461C58.6969 19.8894 58.2959 19.1812 57.1638 19.1812H55.0092V23.9156H57.2834C58.3027 23.9156 58.9361 23.4273 58.9361 22.6424C58.9361 21.9325 58.4644 21.6192 58.1578 21.4909ZM55.6577 21.2442V19.7961H57.2177C57.8276 19.7961 58.0449 20.161 58.0449 20.5027C58.0449 21.0492 57.5884 21.2442 57.1605 21.2442H55.6561H55.6577ZM55.6577 21.8391H57.2818C58.0213 21.8391 58.2858 22.2324 58.2858 22.6024C58.2858 23.0473 57.9405 23.3023 57.339 23.3023H55.6594V21.8391H55.6577Z" fill="#636363"/>
<path d="M59.807 23.9156H63.36V23.294H60.4573V21.8591H63.05V21.2309H60.4573V19.8027H63.36V19.1812H59.807V23.9156Z" fill="#636363"/>
<path d="M63.7542 19.8027H65.3815V23.9156H66.0318V19.8027H67.6592V19.1812H63.7542V19.8027Z" fill="#636363"/>
<path d="M68.1276 19.8027H69.7549V23.9156H70.4052V19.8027H72.0326V19.1812H68.1276V19.8027Z" fill="#636363"/>
<path d="M72.5026 23.9156H76.0573V23.294H73.1529V21.8591H75.7473V21.2309H73.1529V19.8027H76.0573V19.1812H72.5026V23.9156Z" fill="#636363"/>
<path d="M79.7584 22.0325C80.4828 21.8408 80.8501 21.3875 80.8501 20.6843C80.8501 19.7711 80.2099 19.1812 79.2177 19.1812H76.9232V23.9156H77.5734V22.1441H79.0997L80.2099 23.8872L80.2285 23.9156H81.0017L79.7601 22.0325H79.7584ZM80.1998 20.6843C80.1998 21.4475 79.4485 21.5309 79.1267 21.5309H77.5734V19.7961H79.1553C79.7904 19.7961 80.2015 20.1444 80.2015 20.6843H80.1998Z" fill="#636363"/>
<path d="M8.09646 11.3404V11.3821C8.09646 12.1186 7.89767 12.8135 7.54053 13.4151C7.17327 14.0367 6.63923 14.5467 5.99906 14.8983C5.42291 15.2099 4.76084 15.3865 4.04823 15.3865C1.81438 15.3849 0 13.5901 0 11.3804C0 9.17067 1.80427 7.38756 4.03812 7.37756V9.4523C2.96837 9.4623 2.0974 10.3139 2.0974 11.3821C2.0974 12.4503 2.97847 13.3118 4.04823 13.3118C4.25881 13.3118 4.46771 13.2801 4.65639 13.2085C5.43302 12.9602 5.99906 12.2336 5.99906 11.3821V11.3404H8.09646Z" fill="#4326F2"/>
<path d="M14.2724 5.37451V13.4152H10.2141V11.3404H12.175V7.44925H8.24303V9.399H6.14563V5.37451H14.2724Z" fill="#4326F2"/>
</g>
<defs>
<clipPath id="clip0_5937_1056">
<rect width="81" height="19.6875" fill="white" transform="translate(0 5.15625)"/>
</clipPath>
</defs>
</svg>
