<svg width="54" height="38" viewBox="0 0 54 38" fill="none" xmlns="http://www.w3.org/2000/svg">
<g filter="url(#filter0_f_9028_35784)">
<path d="M18.9219 30.2344C17.5078 30.2344 16.2891 29.8945 15.2656 29.2148C14.25 28.5273 13.4688 27.5312 12.9219 26.2266C12.375 24.9219 12.1016 23.3516 12.1016 21.5156C12.1016 19.6797 12.375 18.1094 12.9219 16.8047C13.4688 15.5 14.25 14.5078 15.2656 13.8281C16.2891 13.1406 17.5078 12.7969 18.9219 12.7969C20.3281 12.7969 21.543 13.1406 22.5664 13.8281C23.5898 14.5078 24.375 15.5039 24.9219 16.8164C25.4688 18.1211 25.7422 19.6875 25.7422 21.5156C25.7422 23.3594 25.4688 24.9336 24.9219 26.2383C24.375 27.543 23.5898 28.5352 22.5664 29.2148C21.5508 29.8945 20.3359 30.2344 18.9219 30.2344ZM18.9219 27.3281C19.5781 27.3281 20.1445 27.1172 20.6211 26.6953C21.1055 26.2734 21.4766 25.6367 21.7344 24.7852C22 23.9336 22.1328 22.8828 22.1328 21.6328C22.1328 19.6875 21.8516 18.2109 21.2891 17.2031C20.7266 16.1875 19.9375 15.6797 18.9219 15.6797C17.9062 15.6797 17.1172 16.1875 16.5547 17.2031C15.9922 18.2109 15.7109 19.6875 15.7109 21.6328C15.7109 22.8828 15.8398 23.9336 16.0977 24.7852C16.3633 25.6367 16.7344 26.2734 17.2109 26.6953C17.6953 27.1172 18.2656 27.3281 18.9219 27.3281ZM34.2856 30.2344C32.8716 30.2344 31.6528 29.8945 30.6294 29.2148C29.6138 28.5273 28.8325 27.5312 28.2856 26.2266C27.7388 24.9219 27.4653 23.3516 27.4653 21.5156C27.4653 19.6797 27.7388 18.1094 28.2856 16.8047C28.8325 15.5 29.6138 14.5078 30.6294 13.8281C31.6528 13.1406 32.8716 12.7969 34.2856 12.7969C35.6919 12.7969 36.9067 13.1406 37.9302 13.8281C38.9536 14.5078 39.7388 15.5039 40.2856 16.8164C40.8325 18.1211 41.1059 19.6875 41.1059 21.5156C41.1059 23.3594 40.8325 24.9336 40.2856 26.2383C39.7388 27.543 38.9536 28.5352 37.9302 29.2148C36.9145 29.8945 35.6997 30.2344 34.2856 30.2344ZM34.2856 27.3281C34.9419 27.3281 35.5083 27.1172 35.9848 26.6953C36.4692 26.2734 36.8403 25.6367 37.0981 24.7852C37.3638 23.9336 37.4966 22.8828 37.4966 21.6328C37.4966 19.6875 37.2153 18.2109 36.6528 17.2031C36.0903 16.1875 35.3013 15.6797 34.2856 15.6797C33.27 15.6797 32.4809 16.1875 31.9184 17.2031C31.3559 18.2109 31.0747 19.6875 31.0747 21.6328C31.0747 22.8828 31.2036 23.9336 31.4614 24.7852C31.727 25.6367 32.0981 26.2734 32.5747 26.6953C33.0591 27.1172 33.6294 27.3281 34.2856 27.3281Z" fill="#6B3BE9"/>
</g>
<defs>
<filter id="filter0_f_9028_35784" x="0.101562" y="0.796875" width="53.0044" height="41.4375" filterUnits="userSpaceOnUse" color-interpolation-filters="sRGB">
<feFlood flood-opacity="0" result="BackgroundImageFix"/>
<feBlend mode="normal" in="SourceGraphic" in2="BackgroundImageFix" result="shape"/>
<feGaussianBlur stdDeviation="6" result="effect1_foregroundBlur_9028_35784"/>
</filter>
</defs>
</svg>
