<svg width="20" height="20" viewBox="0 0 20 20" fill="none" xmlns="http://www.w3.org/2000/svg">
<path fill-rule="evenodd" clip-rule="evenodd" d="M17.3334 10C17.3334 9.63181 17.0349 9.33333 16.6667 9.33333H4.00004C3.63185 9.33333 3.33337 9.63181 3.33337 10C3.33337 10.3682 3.63185 10.6667 4.00004 10.6667H16.6667C17.0349 10.6667 17.3334 10.3682 17.3334 10Z" fill="#6B3BE9"/>
<path fill-rule="evenodd" clip-rule="evenodd" d="M11.0203 4.18852C10.7563 4.44509 10.7502 4.86716 11.0067 5.13123L15.7372 10L11.0067 14.8688C10.7502 15.1328 10.7563 15.5549 11.0203 15.8115C11.2844 16.0681 11.7065 16.062 11.963 15.7979L17.1449 10.4646C17.3962 10.2059 17.3962 9.79415 17.1449 9.53544L11.963 4.2021C11.7065 3.93803 11.2844 3.93195 11.0203 4.18852Z" fill="#6B3BE9"/>
</svg>
