<svg width="14" height="16" viewBox="0 0 14 16" fill="none" xmlns="http://www.w3.org/2000/svg">
<path fill-rule="evenodd" clip-rule="evenodd" d="M11.296 16V8.72727H9.88401V14.5455H1.412V1.45455H6.00101V0H0V16H11.296ZM4.23601 11.6364H7.06001V13.0909H4.23601V11.6364ZM11.296 1.2V0.00218183H9.88401V1.2C9.51302 1.31408 9.17325 1.51636 8.89208 1.79055L7.88603 1.192L7.18003 2.45164L8.18608 3.05018C8.0963 3.4382 8.0963 3.84253 8.18608 4.23055L7.18003 4.82836L7.88603 6.088L8.89208 5.48945C9.17025 5.76 9.50842 5.96509 9.88401 6.08V7.27636H11.296V6.08C11.667 5.96592 12.0068 5.76364 12.2879 5.48945L13.294 6.088L14 4.82836L12.9947 4.23055C13.0844 3.84253 13.0844 3.4382 12.9947 3.05018L14 2.45164L13.294 1.192L12.2879 1.79055C12.0068 1.51636 11.667 1.31408 11.296 1.2ZM9.53101 3.63927C9.53101 3.34995 9.64259 3.07247 9.84119 2.86788C10.0398 2.6633 10.3092 2.54836 10.59 2.54836C10.8709 2.54836 11.1402 2.6633 11.3388 2.86788C11.5374 3.07247 11.649 3.34995 11.649 3.63927C11.649 3.9286 11.5374 4.20608 11.3388 4.41066C11.1402 4.61525 10.8709 4.73018 10.59 4.73018C10.3092 4.73018 10.0398 4.61525 9.84119 4.41066C9.64259 4.20608 9.53101 3.9286 9.53101 3.63927Z" fill="#C6D0DA"/>
</svg>
