<svg width="20" height="20" viewBox="0 0 20 20" fill="none" xmlns="http://www.w3.org/2000/svg">
<path fill-rule="evenodd" clip-rule="evenodd" d="M17.333 10C17.333 9.63181 17.0345 9.33333 16.6663 9.33333H3.99967C3.63148 9.33333 3.33301 9.63181 3.33301 10C3.33301 10.3682 3.63148 10.6667 3.99967 10.6667H16.6663C17.0345 10.6667 17.333 10.3682 17.333 10Z" fill="black"/>
<path fill-rule="evenodd" clip-rule="evenodd" d="M11.02 4.18852C10.7559 4.44509 10.7498 4.86716 11.0064 5.13123L15.7368 10L11.0064 14.8688C10.7498 15.1328 10.7559 15.5549 11.02 15.8115C11.284 16.0681 11.7061 16.062 11.9627 15.7979L17.1445 10.4646C17.3958 10.2059 17.3958 9.79415 17.1445 9.53544L11.9627 4.2021C11.7061 3.93803 11.284 3.93195 11.02 4.18852Z" fill="black"/>
</svg>
