<svg width="30" height="30" viewBox="0 0 30 30" fill="none" xmlns="http://www.w3.org/2000/svg">
<g clip-path="url(#clip0_9266_334)">
<path fill-rule="evenodd" clip-rule="evenodd" d="M23.6987 6.30126C24.1004 6.70294 24.1004 7.3542 23.6987 7.75588L7.75588 23.6987C7.3542 24.1004 6.70294 24.1004 6.30126 23.6987C5.89958 23.2971 5.89958 22.6458 6.30126 22.2441L22.2441 6.30126C22.6458 5.89958 23.2971 5.89958 23.6987 6.30126Z" fill="black"/>
<path fill-rule="evenodd" clip-rule="evenodd" d="M6.30126 6.30126C6.70294 5.89958 7.3542 5.89958 7.75588 6.30126L23.6987 22.2441C24.1004 22.6458 24.1004 23.2971 23.6987 23.6987C23.2971 24.1004 22.6458 24.1004 22.2441 23.6987L6.30126 7.75588C5.89958 7.3542 5.89958 6.70294 6.30126 6.30126Z" fill="black"/>
</g>
<defs>
<clipPath id="clip0_9266_334">
<rect width="30" height="30" fill="white"/>
</clipPath>
</defs>
</svg>
