<svg width="342" height="200" viewBox="0 0 342 200" fill="none" xmlns="http://www.w3.org/2000/svg">
<g clip-path="url(#clip0_456_2485)">
<g opacity="0.8" filter="url(#filter0_f_456_2485)">
<path d="M329.8 179.708C330.383 181.064 329.349 182.562 327.875 182.498L97.8873 172.387C95.6955 172.291 95.2353 169.246 97.3007 168.506L292.784 98.485C293.778 98.1289 294.877 98.607 295.295 99.5769L329.8 179.708Z" fill="url(#paint0_linear_456_2485)" fill-opacity="0.25"/>
</g>
<path fill-rule="evenodd" clip-rule="evenodd" d="M214.512 35.4471C214.49 35.3592 214.547 35.2722 214.636 35.2534L225.655 32.911C225.744 32.8922 225.831 32.9487 225.847 33.0376L214.512 35.4471ZM237.371 143.003L111.63 169.73C102.987 171.568 94.4904 166.05 92.6531 157.407L76.4446 81.1516C74.6074 72.5081 80.1249 64.0119 88.7684 62.1747L214.512 35.4471C215.246 38.4865 218.273 40.4065 221.351 39.7523C224.429 39.098 226.412 36.1131 225.847 33.0376L237.57 30.546C246.213 28.7088 254.709 34.2263 256.547 42.8698L272.755 119.125C274.592 127.768 269.075 136.265 260.431 138.102L248.711 140.593C248.039 137.47 244.965 135.478 241.839 136.143C238.712 136.807 236.714 139.877 237.371 143.003ZM237.371 143.003L248.711 140.593C248.713 140.601 248.708 140.609 248.7 140.61L237.388 143.015C237.38 143.016 237.373 143.011 237.371 143.003Z" fill="#FFFF71"/>
<mask id="mask0_456_2485" style="mask-type:alpha" maskUnits="userSpaceOnUse" x="76" y="30" width="198" height="141">
<path fill-rule="evenodd" clip-rule="evenodd" d="M214.514 35.4484C214.493 35.3597 214.55 35.2719 214.639 35.2529L225.656 32.9112C225.745 32.8922 225.833 32.9492 225.85 33.0389L214.514 35.4484ZM237.373 143.005L111.632 169.732C102.989 171.569 94.4926 166.052 92.6554 157.408L76.4469 81.1529C74.6096 72.5095 80.1272 64.0132 88.7706 62.176L214.514 35.4484C215.249 38.487 218.275 40.4063 221.353 39.7522C224.43 39.098 226.414 36.1139 225.85 33.0389L237.572 30.5473C246.215 28.7101 254.712 34.2276 256.549 42.8711L272.757 119.126C274.595 127.77 269.077 136.266 260.434 138.103L248.713 140.594C248.042 137.471 244.968 135.478 241.841 136.143C238.714 136.808 236.716 139.878 237.373 143.005ZM237.373 143.005L248.713 140.594C248.715 140.602 248.71 140.609 248.703 140.611L237.39 143.015C237.382 143.017 237.375 143.012 237.373 143.005Z" fill="#FFFF71"/>
</mask>
<g mask="url(#mask0_456_2485)">
<g opacity="0.36">
<rect width="123.635" height="127.35" transform="translate(149.863 121.482) rotate(-42)" fill="#FFFF71"/>
<path d="M195.827 162.732C196.219 163.167 196.611 163.602 197.002 164.038L197.055 164.096C198.188 165.072 199.27 165.99 200.353 166.853C205.918 171.617 209.187 173.719 211.045 172.045C212.904 170.372 211.155 166.901 206.999 160.87C206.252 159.756 205.425 158.556 204.573 157.326C201.502 152.839 197.991 147.751 195.626 142.576C192.715 136.001 191.603 129.33 196.249 125.147C200.896 120.963 207.44 122.795 213.648 126.349C218.548 129.242 223.242 133.265 227.383 136.788C228.516 137.765 229.598 138.682 230.653 139.571C236.217 144.335 239.486 146.437 241.345 144.763C243.203 143.09 241.455 139.619 237.299 133.588C236.551 132.474 235.725 131.274 234.873 130.044C231.802 125.557 228.291 120.469 225.926 115.294C223.015 108.719 221.903 102.048 226.549 97.8646C231.196 93.681 237.74 95.513 243.948 99.0667C248.847 101.96 253.541 105.983 257.682 109.507C258.816 110.483 259.898 111.401 260.953 112.289C266.517 117.053 269.786 119.155 271.644 117.481C273.503 115.808 271.755 112.337 267.599 106.306C266.851 105.192 266.025 103.992 265.173 102.762C262.102 98.2755 258.591 93.1868 256.226 88.0119C253.991 82.9822 252.795 77.8589 254.467 73.8834C235.791 66.7895 214.2 69.9925 198.684 83.9631C176.185 104.222 174.896 139.486 195.827 162.732Z" fill="#FDD84C"/>
<path d="M277.206 89.3379C298.072 112.513 296.851 147.612 274.498 167.738C259.28 181.441 238.206 184.647 219.702 178.049C225.957 170.425 218.274 158.798 210.336 146.719C209.514 145.468 208.692 144.217 207.87 142.967C204.712 138.109 203.979 135.888 205.433 134.579C206.888 133.269 209.046 134.259 213.521 137.879C214.679 138.827 215.837 139.775 216.994 140.724C228.809 150.413 240.174 159.772 248.567 152.215C256.959 144.659 248.867 132.352 240.438 119.615C239.616 118.364 238.794 117.114 237.972 115.863C234.814 111.006 234.08 108.785 235.535 107.475C236.99 106.165 239.148 107.155 243.623 110.775C244.781 111.723 245.938 112.672 247.096 113.62C258.91 123.309 270.276 132.669 278.668 125.112C287.061 117.555 278.969 105.248 270.54 92.5111C269.718 91.2606 268.896 90.01 268.073 88.7595C264.915 83.9019 264.182 81.6809 265.637 80.371C265.833 80.1947 266.054 80.0473 266.274 79.9541C270.19 82.5582 273.867 85.7428 277.176 89.4172L277.206 89.3379Z" fill="#FDD84C"/>
</g>
<path d="M241.84 136.143C238.708 136.809 236.709 139.887 237.375 143.018L248.715 140.608C248.049 137.477 244.971 135.478 241.84 136.143Z" fill="#FFFF71"/>
</g>
<path d="M240.811 59.5874L245.914 58.5026L246.043 59.1088L242.655 62.7173L242.665 62.7666L246.641 61.9215L246.776 62.556L241.672 63.6408L241.542 63.0275L244.937 59.4176L244.927 59.3682L240.944 60.2148L240.811 59.5874Z" fill="black"/>
<path d="M245.343 68.36C246.957 68.0169 248.167 68.7543 248.444 70.0584C248.723 71.3696 247.916 72.5284 246.302 72.8716C244.687 73.2147 243.478 72.4844 243.2 71.1732C242.922 69.8691 243.728 68.7031 245.343 68.36ZM245.473 68.9733C244.155 69.2535 243.596 70.1239 243.792 71.0473C243.988 71.9708 244.853 72.5385 246.171 72.2583C247.489 71.9781 248.049 71.1077 247.852 70.1843C247.656 69.2608 246.791 68.6931 245.473 68.9733Z" fill="black"/>
<path d="M250.66 80.8264L245.556 81.9112L245.187 80.1771C244.932 78.9787 245.529 78.2846 246.438 78.0913C247.341 77.8995 248.182 78.288 248.435 79.4793L248.671 80.5861L250.525 80.192L250.66 80.8264ZM248.107 80.7059L247.877 79.6274C247.705 78.8167 247.178 78.5898 246.572 78.7187C245.959 78.849 245.583 79.2677 245.757 80.0854L245.985 81.1569L248.107 80.7059Z" fill="black"/>
<path d="M246.851 88.0047L246.716 87.3702L250.093 86.6525C251.143 86.4293 252.078 87.0484 252.334 88.2539C252.59 89.4593 251.988 90.4051 250.938 90.6283L247.561 91.3461L247.426 90.7116L250.754 90.0044C251.494 89.8471 251.92 89.2186 251.742 88.3797C251.562 87.5338 250.918 87.1401 250.178 87.2975L246.851 88.0047Z" fill="black"/>
<path d="M251.231 96.0653C252.846 95.7221 254.056 96.4595 254.333 97.7637C254.612 99.0748 253.805 100.234 252.19 100.577C250.576 100.92 249.367 100.19 249.089 98.8785C248.811 97.5743 249.617 96.4084 251.231 96.0653ZM251.362 96.6786C250.044 96.9588 249.484 97.8291 249.681 98.7526C249.877 99.6761 250.742 100.244 252.06 99.9636C253.378 99.6834 253.937 98.813 253.741 97.8895C253.545 96.9661 252.68 96.3984 251.362 96.6786Z" fill="black"/>
<path d="M252.448 106.434C251.775 106.732 251.523 107.419 251.665 108.089C251.862 109.012 252.726 109.58 254.045 109.3C255.363 109.019 255.922 108.149 255.726 107.226C255.583 106.556 255.075 106.038 254.344 106.031L254.21 105.397C255.292 105.358 256.098 106.064 256.318 107.1C256.596 108.411 255.789 109.57 254.175 109.913C252.561 110.256 251.352 109.526 251.073 108.215C250.854 107.185 251.296 106.215 252.313 105.8L252.448 106.434Z" fill="black"/>
<path d="M214.99 104.84L214.448 102.287L218.911 101.338L216.653 90.7163L220.356 89.9292L223.434 104.41L219.731 105.197L219.454 103.892L214.99 104.84ZM210.708 105.587L211.206 107.926L223.991 105.209L224.592 108.035L208.045 111.552L206.723 105.335L209.705 104.701L209.162 102.148L204.816 103.071L204.24 100.362L212.329 98.643C212.496 97.8946 212.472 96.9218 212.265 95.9473L212.025 94.8168L204.073 96.5071L203.522 93.9149L214.806 91.5163L215.515 94.8491C215.776 96.0769 215.784 97.0734 215.664 97.8525C216.182 97.7017 216.642 97.5633 217.073 97.39L217.649 100.099C216.65 100.475 215.614 100.776 213.606 101.203L212.749 101.385L213.515 104.991L210.708 105.587Z" fill="black"/>
<path d="M195.905 102.643L196.153 103.813L203.228 102.309L203.825 105.115L185.894 108.927L185.297 106.12L192.372 104.616L192.124 103.447L185.789 104.793L184.286 97.7185L200.521 94.2676L201.092 96.9572L188.502 99.6334L188.862 101.329L201.55 98.6321L202.122 101.322L195.905 102.643ZM200.267 109.844L187.462 112.566L186.894 109.896L203.402 106.387L204.653 112.273L200.95 113.06L200.267 109.844Z" fill="black"/>
<path d="M182.548 108.232L184.244 107.872L184.882 110.873L177.807 112.377L178.967 117.834L175.186 118.638L174.026 113.181L166.951 114.685L166.313 111.683L178.845 109.019C179.017 107.435 178.944 105.841 178.575 104.106L178.248 102.567L165.618 105.251L164.947 102.094L181.221 98.6347L182.219 103.332C182.621 105.222 182.702 106.753 182.548 108.232Z" fill="black"/>
<path d="M150.443 116.014L150.066 114.24L155.406 113.105L153.5 104.14L157.203 103.353L159.577 114.521L155.874 115.308L155.783 114.879L150.443 116.014ZM149.511 110.671L144.521 111.732C142.475 112.167 141.08 111.547 140.728 109.89L140.715 109.831C140.363 108.175 141.385 107.041 143.432 106.606L148.421 105.545C150.468 105.11 151.862 105.731 152.215 107.387L152.227 107.446C152.579 109.102 151.557 110.236 149.511 110.671ZM144.267 109.097L144.271 109.116C144.362 109.545 144.732 109.752 145.297 109.632L147.967 109.064C148.532 108.944 148.767 108.609 148.676 108.18L148.672 108.161C148.576 107.712 148.23 107.521 147.665 107.641L144.995 108.209C144.429 108.329 144.172 108.649 144.267 109.097ZM149.227 116.619L145.738 117.36L145.158 114.632L141.435 115.423L140.984 113.299L149.774 111.43C151.781 111.003 152.817 110.702 153.817 110.326L154.269 112.451C153.269 112.826 152.233 113.128 150.225 113.555L148.647 113.89L149.227 116.619ZM148.005 121.604L148.138 122.228L160.942 119.506L161.361 121.475L144.736 125.009L143.845 120.818L156.494 118.13L156.366 117.525L143.717 120.214L143.307 118.284L159.62 114.817L160.498 118.949L148.005 121.604Z" fill="black"/>
<path d="M136.484 115.131L134.985 108.075L138.201 107.392L142.066 125.576L138.85 126.26L137.131 118.171L135.961 118.42L137.681 126.508L134.465 127.192L130.6 109.008L133.815 108.324L135.315 115.379L136.484 115.131ZM126.659 113.756L121.319 114.891L120.656 111.773L129.368 109.921L130.635 115.885C131.982 122.219 129.386 126.968 124.208 128.964L123.491 125.593C126.501 124.036 128.212 121.065 127.268 116.621L126.659 113.756Z" fill="black"/>
<path d="M122.198 129.351L118.495 130.138L115.989 118.347L113.279 118.922L112.662 116.018C114.575 115.53 115.514 114.679 115.485 112.913L118.565 112.258L122.198 129.351Z" fill="black"/>
<g clip-path="url(#clip1_456_2485)">
<rect width="66.1659" height="10.0863" transform="translate(129.182 87.0319) rotate(-12)" fill="#FFFF71"/>
<path d="M140.24 89.8243C140.818 92.5428 139.045 95.2216 136.28 95.8094C134.399 96.2092 132.542 95.5363 131.366 94.2099C132.235 93.8918 132.171 92.646 132.104 91.3591C132.098 91.2242 132.089 91.0925 132.083 90.9576C132.062 90.4423 132.108 90.235 132.287 90.1971C132.465 90.1591 132.592 90.3296 132.782 90.8092C132.83 90.9322 132.88 91.058 132.926 91.1843C133.417 92.4561 133.888 93.685 134.927 93.4641C135.966 93.2432 135.899 91.9286 135.827 90.5677C135.821 90.4327 135.813 90.301 135.807 90.1661C135.785 89.6508 135.832 89.4436 136.01 89.4056C136.189 89.3676 136.316 89.5381 136.505 90.0177C136.554 90.1407 136.603 90.2665 136.65 90.3928C137.141 91.6646 137.611 92.8935 138.651 92.6726C139.69 92.4518 139.622 91.1372 139.551 89.7762C139.545 89.6412 139.537 89.5095 139.531 89.3746C139.509 88.8593 139.555 88.6521 139.734 88.6141C139.791 88.602 139.811 88.6172 139.836 88.6675C140.011 89.0278 140.147 89.4132 140.234 89.8228L140.24 89.8243Z" fill="#A452F7"/>
<path d="M130.228 91.9528C130.266 92.131 130.334 92.4113 130.431 92.6574C130.618 93.1237 130.779 93.3897 131.009 93.3408C131.239 93.2919 131.262 92.9452 131.214 92.2964C131.208 92.1753 131.199 92.0495 131.19 91.9151C131.155 91.4332 131.115 90.8856 131.171 90.3788C131.248 89.7425 131.475 89.1743 132.046 89.0529C132.617 88.9316 133.056 89.3582 133.385 89.9083C133.64 90.349 133.828 90.8622 133.993 91.3192C134.039 91.4429 134.082 91.5644 134.126 91.6774C134.35 92.2915 134.508 92.5971 134.738 92.5482C134.968 92.4993 134.991 92.1525 134.943 91.5037C134.937 91.3827 134.927 91.2542 134.919 91.1225C134.884 90.6405 134.844 90.093 134.901 89.5862C134.977 88.9498 135.205 88.3817 135.776 88.2603C136.347 88.1389 136.785 88.5656 137.114 89.1156C137.369 89.5563 137.557 90.0696 137.722 90.5266C137.768 90.6502 137.811 90.7718 137.855 90.8848C138.079 91.4989 138.237 91.8044 138.467 91.7555C138.697 91.7066 138.72 91.3599 138.672 90.7111C138.666 90.59 138.656 90.4616 138.648 90.3298C138.613 89.8479 138.573 89.3004 138.63 88.7935C138.687 88.3059 138.835 87.8574 139.158 87.6219C137.978 86.2603 136.096 85.5622 134.188 85.9677C131.422 86.5556 129.65 89.2343 130.228 91.9528Z" fill="#A452F7"/>
<path d="M150.258 82.5966L149.176 82.8267L150.218 87.7291L151.3 87.499L150.258 82.5966Z" fill="#A452F7"/>
<path d="M160.518 80.4161L159.436 80.6462L161.524 90.4721L162.607 90.242L160.518 80.4161Z" fill="#A452F7"/>
<path d="M157.107 81.4113L152.125 82.4703L152.328 83.4252L156.225 82.5969L156.854 85.5548L152.957 86.3831L154.056 91.5541L159.855 90.3214L159.652 89.3638L154.937 90.3658L154.245 87.1074L158.142 86.2791L157.107 81.4113Z" fill="#A452F7"/>
<path fill-rule="evenodd" clip-rule="evenodd" d="M166.818 80.6708C167.223 80.9517 167.479 81.3422 167.584 81.837C167.689 82.3318 167.616 82.8004 167.361 83.2244C167.105 83.6403 166.691 83.9061 166.123 84.0269C165.555 84.1477 165.055 84.0731 164.652 83.8002C164.256 83.5175 164.002 83.1237 163.895 82.621C163.789 82.1183 163.863 81.6688 164.11 81.2466C164.365 80.8253 164.782 80.5504 165.358 80.4279C165.935 80.3054 166.413 80.3872 166.818 80.6708ZM168.684 82.7542C168.758 82.3853 168.753 82.0027 168.669 81.6063C168.585 81.21 168.436 80.8691 168.218 80.5623C168.008 80.2539 167.747 80.0091 167.434 79.8255C167.127 79.6322 166.78 79.5057 166.389 79.4471C165.998 79.38 165.586 79.3954 165.155 79.4869C164.725 79.5783 164.332 79.737 164.002 79.9545C163.676 80.1655 163.411 80.422 163.201 80.7252C162.998 81.0186 162.859 81.3511 162.784 81.7174C162.718 82.0845 162.724 82.4612 162.808 82.8522C162.891 83.2433 163.04 83.6007 163.25 83.9092C163.468 84.2159 163.729 84.4606 164.034 84.646C164.35 84.8376 164.696 84.9641 165.079 85.0244C165.468 85.0835 165.883 85.0649 166.321 84.9717C166.76 84.8785 167.132 84.7298 167.466 84.517C167.797 84.3049 168.065 84.0478 168.267 83.7463C168.479 83.4512 168.614 83.1192 168.684 82.7542Z" fill="#A452F7"/>
<path d="M170.78 78.2342L169.697 78.4642L171.786 88.2902L172.868 88.0601L170.78 78.2342Z" fill="#A452F7"/>
<path d="M170.744 87.0048L163.619 88.5193L163.822 89.4743L170.947 87.9598L170.744 87.0048Z" fill="#A452F7"/>
<path d="M191.535 73.8668L192.367 77.7796L193.668 77.5029L192.827 73.5476L193.913 73.3169L196.001 83.1402L194.915 83.3709L193.871 78.4579L192.57 78.7346L193.59 83.5358L192.508 83.7659L190.452 74.0969L191.535 73.8668Z" fill="#A452F7"/>
<path d="M143.264 89.6628L143.46 90.5858L150.504 89.0885L150.68 89.9184L143.636 91.4157L144.205 94.0916L152.608 92.3056L152.409 91.372L145.089 92.9279L144.913 92.098L151.957 90.6007L151.39 87.9354L143.264 89.6628Z" fill="#A452F7"/>
<path fill-rule="evenodd" clip-rule="evenodd" d="M146.074 84.7434L143.146 85.3658L143.643 87.7039L146.571 87.0816L146.074 84.7434ZM141.863 84.6516L142.762 88.8783L147.857 87.7952L146.959 83.5685L141.863 84.6516Z" fill="#A452F7"/>
<path d="M180.194 80.3447L183.398 79.6636L182.561 75.7295L183.647 75.4989L185.735 85.3222L184.649 85.5528L183.598 80.6079L180.394 81.289L180.194 80.3447Z" fill="#A452F7"/>
<path d="M187.02 76.0508L185.662 76.3395L185.459 75.3846L189.794 74.4631L189.997 75.4181L188.084 75.8247C188.141 76.1489 188.195 76.471 188.225 76.7037C188.294 77.2145 188.346 77.7096 188.384 78.1851C188.827 79.0557 189.364 79.8673 190.001 80.6272C190.561 81.2922 191.172 81.863 191.833 82.3396L191.243 83.2517C190.748 82.89 190.274 82.4708 189.821 81.9915C189.302 81.4374 188.843 80.8595 188.442 80.2636C188.418 80.9498 188.36 81.6349 188.265 82.3222C188.158 83.1069 187.999 83.7578 187.621 84.6944L186.573 84.3112C187.133 82.9021 187.36 81.2969 187.342 79.8022C187.373 78.6948 187.241 77.291 187.019 76.0481L187.02 76.0508Z" fill="#A452F7"/>
<path d="M178.136 78.7256C178.067 78.2148 177.888 77.252 177.809 76.8433L176.727 77.0734C177.068 78.505 177.291 80.4064 177.256 81.8262C177.274 83.3208 177.046 84.9234 176.486 86.3351L177.535 86.7183C177.91 85.7823 178.068 85.1287 178.179 84.3461C178.274 83.6615 178.334 82.9732 178.355 82.2875C178.757 82.8834 179.215 83.4587 179.735 84.0154C180.254 84.5641 180.8 85.0345 181.374 85.4298L181.828 85.7446L182.446 84.8182L182.006 84.5447C181.247 84.0333 180.549 83.4003 179.918 82.6505C179.281 81.8933 178.744 81.0791 178.301 80.2084C178.264 79.7297 178.211 79.2379 178.142 78.7271L178.136 78.7256Z" fill="#A452F7"/>
</g>
<g filter="url(#filter1_d_456_2485)">
<rect width="49.0786" height="49.0786" rx="20" transform="matrix(0.984808 0.173648 -0.173998 0.984746 52.6855 88.5603)" fill="url(#paint1_linear_456_2485)"/>
<rect width="44.7481" height="44.7481" rx="20" transform="matrix(0.984808 0.173648 -0.173998 0.984746 52.6855 88.5603)" fill="url(#paint2_linear_456_2485)"/>
<path fill-rule="evenodd" clip-rule="evenodd" d="M81.3217 107.963C81.3211 107.967 81.3216 107.971 81.3232 107.974C81.8821 109.175 81.6328 110.586 81.1369 113.393L79.9525 120.096C79.4539 122.918 79.2066 124.317 78.2664 125.255C77.3263 126.192 75.9122 126.424 73.0936 126.901L71.9079 127.102C66.5732 128.004 63.9126 128.45 62.3771 126.912C60.855 125.365 61.3235 122.713 62.2645 117.387L63.5896 109.888C64.5306 104.562 64.9991 101.911 66.9595 100.977C68.918 100.055 71.2763 101.387 75.9816 104.047L77.0266 104.642C79.5078 106.052 80.7569 106.753 81.3203 107.952C81.3219 107.956 81.3224 107.959 81.3217 107.963ZM79.9187 111.653C79.9198 111.646 79.9156 111.64 79.9094 111.639L78.8851 111.459C78.3131 111.358 77.9313 110.812 78.0324 110.24L78.1349 109.66C78.286 108.805 77.7154 107.99 76.8606 107.839C76.5305 107.781 76.3411 107.924 76.2827 108.254L75.2392 114.16C75.0881 115.015 75.6587 115.83 76.5135 115.981C76.8436 116.039 77.0331 115.896 77.0914 115.566L77.2482 114.679C77.4026 113.805 78.236 113.222 79.1096 113.376C79.4397 113.434 79.6292 113.291 79.6875 112.961L79.9187 111.653ZM73.5223 108.8C72.9614 108.055 72.0504 107.566 70.7757 107.341C69.501 107.117 68.4774 107.265 67.6819 107.782C66.8998 108.289 66.4036 109.105 66.2045 110.232C66.0055 111.358 66.188 112.318 66.7469 113.073C67.3212 113.808 68.2457 114.288 69.5089 114.511C70.7722 114.734 71.8053 114.599 72.5853 114.103C73.3788 113.597 73.877 112.77 74.0801 111.62C74.2832 110.471 74.0946 109.546 73.5223 108.8ZM68.9731 109.241C69.3614 108.97 69.8448 108.891 70.4594 108.999L70.5277 109.011C71.1308 109.117 71.5693 109.359 71.8411 109.747C72.1148 110.124 72.1897 110.63 72.0771 111.267C71.9645 111.905 71.7187 112.366 71.3323 112.626C70.946 112.887 70.4646 112.954 69.85 112.846L69.7818 112.834C69.1786 112.728 68.7401 112.486 68.4643 112.121C68.1926 111.732 68.1177 111.226 68.2303 110.589C68.3429 109.952 68.5867 109.502 68.9731 109.241ZM76.6145 117.037C76.6108 117.039 76.6056 117.038 76.6029 117.035C76.4891 116.878 76.275 116.772 75.9497 116.714L68.7 115.436C68.0337 115.318 67.3982 115.763 67.2805 116.429C67.2202 116.771 67.3514 116.958 67.6814 117.016L74.2937 118.182C74.4531 118.211 74.5186 118.304 74.4885 118.475C74.413 118.902 74.0053 119.188 73.5779 119.112L67.9671 118.123C67.637 118.065 67.3973 118.093 67.2346 118.217C67.0739 118.329 66.9634 118.556 66.9051 118.886L66.4587 121.413C66.3984 121.754 66.4265 121.994 66.5389 122.154C66.6493 122.326 66.8649 122.435 67.1949 122.493L73.9438 123.683C74.4901 123.779 74.9132 123.842 75.2151 123.86C75.5171 123.878 75.734 123.846 75.8773 123.766C76.032 123.687 76.1264 123.551 76.1586 123.369C76.2663 122.76 75.6586 122.155 75.0427 122.092C74.8249 122.07 74.5894 122.036 74.3365 121.992L68.885 121.031C68.7257 121.003 68.6601 120.909 68.6902 120.738C68.7647 120.317 69.1663 120.036 69.5875 120.11L75.1869 121.097C75.517 121.156 75.7566 121.128 75.9193 121.004C76.0914 120.893 76.2019 120.666 76.2602 120.336L76.7127 117.776C76.7722 117.439 76.7456 117.201 76.6259 117.039C76.6232 117.035 76.6182 117.034 76.6145 117.037Z" fill="white"/>
</g>
<path d="M337.659 40.6161L336.013 35.7196L340.438 34.3803L342.135 39.0349L337.659 40.6161Z" fill="#6BA6EB"/>
<path d="M299.325 28.8474L300.064 21.5837L292.444 23.1938L292.249 30.3425L299.325 28.8474Z" fill="#FF77FA"/>
<path d="M279.737 54.2775L281.695 48.7463L276.551 47.2745L274.535 52.5335L279.737 54.2775Z" fill="#A153F9"/>
<path d="M285.467 84.6392L283.209 87.5584C283.513 85.7817 285.821 81.7458 286.963 81.2379C287.877 80.8316 290.982 81.4569 292.42 81.8203C305.212 83.5178 306.532 81.5632 307.47 80.5985C307.265 70.2943 299.472 64.4588 299.04 64.1036C298.609 63.7483 299.344 62.3269 299.953 61.2354C300.562 60.1439 302.034 59.7629 302.922 59.9149C303.633 60.0366 316.839 60.6561 323.354 60.9507C320.969 66.6617 312.923 63.948 305.512 64.5081C313.967 77.9829 306.583 82.9083 302.446 85.295C299.137 87.2044 289.748 85.6533 285.467 84.6392Z" fill="url(#paint3_linear_456_2485)"/>
<path d="M310.279 121.871L314.655 118.361L304.007 114.366L301.395 116.802C305.147 119.424 307.07 120.352 310.279 121.871Z" fill="#A6DEF6"/>
<path d="M311.756 109.538L314.26 112.388C311.812 113.853 309.299 116.73 308.279 117.883C307.862 117.544 306.889 116.051 305.915 115.034C307.584 112.998 310.134 110.895 311.756 109.538Z" fill="#FF99B5"/>
<path d="M23.1487 59.037L20.8868 56.5482C17.7666 64.3453 18.3071 67.1291 18.4161 68.7085C18.5251 70.2879 21.1701 73.2792 22.7909 74.0489C24.0876 74.6648 28.9299 72.9789 31.1889 72.059C30.0346 73.8431 28.4179 78.3509 31.1855 82.1096C33.9532 85.8682 39.4025 85.0691 41.7811 84.1997L39.5434 82.0619C37.33 82.8024 32.7032 83.9091 31.9032 82.4127C30.9032 80.5421 33.8097 74.6993 34.5918 73.4111C35.3739 72.1229 35.6842 71.5726 35.4504 70.7071C35.2632 70.0147 33.7448 68.7089 32.6562 68.0787C28.4068 69.6061 23.9317 72.9123 20.9119 72.0627C20.3511 66.4591 22.2673 63.0944 23.1487 59.037Z" fill="url(#paint4_linear_456_2485)"/>
<path d="M-0.0903335 140.844L-1.32812 133.648L6.38471 134.73L7.07159 141.848L-0.0903335 140.844Z" fill="#FFA666"/>
<path d="M23.4693 125.049L21.1347 119.665L26.1652 117.843L28.5385 122.951L23.4693 125.049Z" fill="#6BA6EB"/>
<path d="M48.3027 44.6289L51.5703 43.7103C51.4529 46.9162 49.8691 53.6716 44.4726 55.0462C48.0163 50.5506 47.8526 48.2459 48.3027 44.6289Z" fill="#A153F9"/>
<path d="M116.181 162.878L110.681 166.037C115.25 168.702 119.679 173.294 121.48 175.139C122.371 174.796 124.583 173.047 126.704 171.941C123.786 168.722 119.136 165.166 116.181 162.878Z" fill="#FF99B5"/>
</g>
<defs>
<filter id="filter0_f_456_2485" x="88.8598" y="91.2546" width="248.218" height="98.3578" filterUnits="userSpaceOnUse" color-interpolation-filters="sRGB">
<feFlood flood-opacity="0" result="BackgroundImageFix"/>
<feBlend mode="normal" in="SourceGraphic" in2="BackgroundImageFix" result="shape"/>
<feGaussianBlur stdDeviation="3.55642" result="effect1_foregroundBlur_456_2485"/>
</filter>
<filter id="filter1_d_456_2485" x="27.3184" y="81.7261" width="110.529" height="110.521" filterUnits="userSpaceOnUse" color-interpolation-filters="sRGB">
<feFlood flood-opacity="0" result="BackgroundImageFix"/>
<feColorMatrix in="SourceAlpha" type="matrix" values="0 0 0 0 0 0 0 0 0 0 0 0 0 0 0 0 0 0 127 0" result="hardAlpha"/>
<feOffset dx="10" dy="20"/>
<feGaussianBlur stdDeviation="15"/>
<feComposite in2="hardAlpha" operator="out"/>
<feColorMatrix type="matrix" values="0 0 0 0 0.188235 0 0 0 0 0 0 0 0 0 0.376471 0 0 0 0.2 0"/>
<feBlend mode="normal" in2="BackgroundImageFix" result="effect1_dropShadow_456_2485"/>
<feBlend mode="normal" in="SourceGraphic" in2="effect1_dropShadow_456_2485" result="shape"/>
</filter>
<linearGradient id="paint0_linear_456_2485" x1="313.041" y1="125.477" x2="124.351" y2="203.558" gradientUnits="userSpaceOnUse">
<stop stop-color="white" stop-opacity="0"/>
<stop offset="0.664435" stop-color="#563400"/>
</linearGradient>
<linearGradient id="paint1_linear_456_2485" x1="0.37404" y1="10.0305" x2="47.4022" y2="45.6007" gradientUnits="userSpaceOnUse">
<stop offset="0.4" stop-color="#07BFE0"/>
<stop offset="1" stop-color="#287EAE"/>
</linearGradient>
<linearGradient id="paint2_linear_456_2485" x1="0.667806" y1="16.3202" x2="43.2196" y2="41.5771" gradientUnits="userSpaceOnUse">
<stop stop-color="#70E9FF"/>
<stop offset="0.265585" stop-color="#07BFE0"/>
<stop offset="1" stop-color="#18B1CD"/>
</linearGradient>
<linearGradient id="paint3_linear_456_2485" x1="322.961" y1="62.5481" x2="284.217" y2="87.7944" gradientUnits="userSpaceOnUse">
<stop stop-color="#FFD953"/>
<stop offset="0.299864" stop-color="#FFDD7B"/>
<stop offset="0.44361" stop-color="#FF8A00"/>
<stop offset="0.585086" stop-color="#FFE27B"/>
<stop offset="0.81388" stop-color="#FFD67B"/>
<stop offset="1" stop-color="#FF8A00"/>
</linearGradient>
<linearGradient id="paint4_linear_456_2485" x1="17.8329" y1="60.3835" x2="40.2627" y2="86.4389" gradientUnits="userSpaceOnUse">
<stop stop-color="#FFE27B"/>
<stop offset="0.25" stop-color="#FF8A00"/>
<stop offset="0.5" stop-color="#FFE27B"/>
<stop offset="0.545" stop-color="#FF8A00"/>
<stop offset="0.75" stop-color="#FFE27B"/>
<stop offset="1" stop-color="#FF8A00"/>
</linearGradient>
<clipPath id="clip0_456_2485">
<rect width="342" height="200" fill="white"/>
</clipPath>
<clipPath id="clip1_456_2485">
<rect width="66.1659" height="10.0863" fill="white" transform="translate(129.182 87.0319) rotate(-12)"/>
</clipPath>
</defs>
</svg>
