<svg width="166" height="140" viewBox="0 0 166 140" fill="none" xmlns="http://www.w3.org/2000/svg">
<g opacity="0.12" filter="url(#filter0_f_456_2892)">
<path d="M242.519 124.735C242.805 125.476 242.237 126.266 241.444 126.232L34.8068 117.404C33.6072 117.352 33.3436 115.692 34.4683 115.271L212.114 48.9063C212.679 48.695 213.31 48.9785 213.527 49.5419L242.519 124.735Z" fill="url(#paint0_linear_456_2892)"/>
</g>
<path fill-rule="evenodd" clip-rule="evenodd" d="M136.939 42.7563C135.98 37.3173 130.793 33.6856 125.354 34.6447L39.4379 49.794C33.999 50.7531 30.3673 55.9397 31.3263 61.3786L38.9745 104.754C39.9335 110.193 45.1201 113.824 50.5591 112.865L123.503 100.003C123.51 100.057 123.561 100.092 123.615 100.083L129.963 98.9636C130.017 98.9542 130.052 98.9034 130.041 98.8504L136.475 97.7158C141.914 96.7568 145.546 91.5702 144.587 86.1313L136.939 42.7563ZM130.041 98.8504C129.68 97.0976 127.986 95.9397 126.212 96.2526C124.438 96.5654 123.243 98.2325 123.503 100.003L130.041 98.8504Z" fill="#FFFF71"/>
<mask id="mask0_456_2892" style="mask-type:alpha" maskUnits="userSpaceOnUse" x="31" y="34" width="114" height="80">
<path fill-rule="evenodd" clip-rule="evenodd" d="M136.832 42.7756C135.873 37.3367 130.687 33.705 125.248 34.664L39.6489 49.7574C34.2099 50.7164 30.5782 55.903 31.5373 61.342L39.2039 104.821C40.1629 110.26 45.3495 113.892 50.7884 112.933L136.387 97.8396C141.826 96.8806 145.458 91.694 144.499 86.2551L136.832 42.7756ZM126.79 99.5234C124.984 99.8419 123.191 98.3278 124.537 97.0825C124.989 96.6646 125.562 96.3674 126.213 96.2526C126.865 96.1378 127.505 96.2211 128.072 96.4591C129.764 97.1688 128.597 99.2048 126.79 99.5234Z" fill="#FFFF71"/>
</mask>
<g mask="url(#mask0_456_2892)">
<g opacity="0.36">
<rect x="70.9492" y="85.5981" width="72.01" height="74.1734" rx="10" transform="rotate(-40 70.9492 85.5981)" fill="#FFFF71"/>
<path d="M96.8633 110.543C97.0826 110.805 97.3019 111.066 97.5212 111.327L97.5505 111.362C98.1906 111.953 98.8014 112.51 99.4146 113.034C102.557 115.921 104.417 117.21 105.532 116.274C106.648 115.338 105.701 113.282 103.405 109.686C102.992 109.023 102.536 108.308 102.065 107.575C100.368 104.901 98.4279 101.867 97.1564 98.8068C95.5954 94.9207 95.0839 91.0149 97.8735 88.6742C100.663 86.3335 104.435 87.5328 107.977 89.7276C110.77 91.5111 113.42 93.9487 115.759 96.0836C116.399 96.6748 117.01 97.2311 117.606 97.77C120.748 100.656 122.608 101.946 123.724 101.009C124.84 100.073 123.893 98.0175 121.596 94.422C121.183 93.7587 120.727 93.0431 120.256 92.31C118.56 89.636 116.619 86.6026 115.348 83.5423C113.787 79.6562 113.275 75.7505 116.065 73.4097C118.855 71.069 122.627 72.2684 126.168 74.4631C128.961 76.2466 131.612 78.6842 133.95 80.8191C134.59 81.4103 135.201 81.9666 135.798 82.5055C138.94 85.3916 140.8 86.6813 141.915 85.745C143.031 84.8087 142.084 82.753 139.788 79.1575C139.375 78.4942 138.919 77.7786 138.448 77.0455C136.751 74.3715 134.811 71.3381 133.539 68.2778C132.341 65.3047 131.749 62.2982 132.803 60.0181C122.076 55.5092 109.443 56.9348 100.128 64.7514C86.6195 76.0863 85.1526 96.587 96.8633 110.543Z" fill="#FDD84C"/>
<path d="M145.725 69.4762C157.4 83.3899 155.976 103.796 142.556 115.057C133.419 122.724 121.087 124.162 110.45 119.944C114.246 115.634 110.01 108.71 105.635 101.517C105.182 100.773 104.729 100.028 104.276 99.2834C102.537 96.3917 102.155 95.084 103.028 94.3511C103.902 93.6183 105.138 94.2387 107.669 96.4365C108.323 97.012 108.978 97.5875 109.633 98.1631C116.313 104.043 122.738 109.722 127.777 105.494C132.816 101.266 128.355 93.9379 123.708 86.3526C123.255 85.6079 122.802 84.8633 122.349 84.1187C120.609 81.227 120.227 79.9192 121.101 79.1864C121.974 78.4535 123.21 79.0739 125.741 81.2718C126.396 81.8473 127.051 82.4228 127.705 82.9983C134.385 88.8783 140.811 94.5574 145.85 90.3293C150.888 86.1012 146.428 78.7732 141.781 71.1878C141.328 70.4432 140.874 69.6985 140.421 68.9539C138.682 66.0622 138.3 64.7545 139.173 64.0216C139.291 63.923 139.423 63.8417 139.553 63.7919C141.779 65.3873 143.855 67.3157 145.706 69.5218L145.725 69.4762Z" fill="#FDD84C"/>
</g>
<path d="M126.32 96.3027C125.669 96.4175 125.096 96.7147 124.644 97.1325C123.298 98.3779 125.091 99.8919 126.897 99.5734C128.704 99.2549 129.871 97.2189 128.179 96.5092C127.612 96.2711 126.972 96.1878 126.32 96.3027Z" fill="#FFFF71"/>
</g>
<path d="M116.228 39.6267C114.421 39.9452 112.699 38.739 112.38 36.9326L118.922 35.7792C119.24 37.5856 118.034 39.3082 116.228 39.6267Z" fill="#FFF06D"/>
<path d="M127.323 51.4966L130.315 50.9689L130.378 51.3244L128.332 53.3559L128.338 53.3849L130.669 52.9738L130.735 53.3458L127.742 53.8735L127.678 53.5139L129.728 51.4816L129.723 51.4527L127.387 51.8645L127.323 51.4966Z" fill="black"/>
<path d="M129.782 56.6951C130.729 56.5282 131.418 56.982 131.553 57.7468C131.689 58.5156 131.195 59.1738 130.249 59.3407C129.302 59.5076 128.613 59.0579 128.478 58.2891C128.343 57.5243 128.836 56.862 129.782 56.6951ZM129.846 57.0547C129.073 57.191 128.729 57.6863 128.825 58.2278C128.92 58.7693 129.412 59.1174 130.185 58.9811C130.958 58.8448 131.301 58.3495 131.206 57.808C131.11 57.2665 130.619 56.9184 129.846 57.0547Z" fill="black"/>
<path d="M132.624 64.0597L129.631 64.5874L129.452 63.5705C129.328 62.8678 129.689 62.4758 130.222 62.3818C130.751 62.2885 131.233 62.5317 131.356 63.2303L131.471 63.8793L132.558 63.6876L132.624 64.0597ZM131.14 63.9376L131.029 63.3052C130.945 62.8298 130.643 62.687 130.287 62.7497C129.927 62.8131 129.701 63.0492 129.785 63.5287L129.896 64.157L131.14 63.9376Z" fill="black"/>
<path d="M130.261 68.1606L130.195 67.7886L132.175 67.4394C132.791 67.3308 133.323 67.7102 133.447 68.4171C133.572 69.124 133.202 69.6623 132.586 69.7709L130.606 70.12L130.541 69.748L132.492 69.4039C132.926 69.3274 133.187 68.9702 133.1 68.4783C133.013 67.9823 132.646 67.74 132.212 67.8166L130.261 68.1606Z" fill="black"/>
<path d="M132.647 72.9416C133.593 72.7747 134.283 73.2285 134.418 73.9932C134.553 74.7621 134.06 75.4203 133.113 75.5872C132.167 75.7541 131.478 75.3044 131.342 74.5355C131.208 73.7708 131.7 73.1085 132.647 72.9416ZM132.71 73.3012C131.937 73.4375 131.594 73.9328 131.69 74.4743C131.785 75.0158 132.277 75.3639 133.05 75.2276C133.823 75.0913 134.166 74.596 134.071 74.0545C133.975 73.5129 133.483 73.1649 132.71 73.3012Z" fill="black"/>
<path d="M133.144 79.0018C132.746 79.1615 132.586 79.5563 132.655 79.9491C132.75 80.4906 133.242 80.8386 134.015 80.7023C134.788 80.566 135.131 80.0707 135.036 79.5292C134.967 79.1365 134.682 78.8245 134.256 78.8057L134.191 78.4337C134.821 78.4333 135.276 78.8603 135.383 79.468C135.519 80.2369 135.025 80.895 134.079 81.0619C133.132 81.2289 132.443 80.7792 132.308 80.0103C132.201 79.4068 132.478 78.8507 133.079 78.6298L133.144 79.0018Z" fill="black"/>
<path d="M111.783 78.2548L111.519 76.7576L114.136 76.2961L113.038 70.0673L115.209 69.6844L116.707 78.1761L114.535 78.559L114.4 77.7933L111.783 78.2548ZM109.275 78.6027L109.517 79.9742L117.015 78.6522L117.307 80.3094L107.604 82.0203L106.961 78.3744L108.709 78.0661L108.445 76.5689L105.897 77.0183L105.617 75.4297L110.36 74.5934C110.472 74.1611 110.478 73.5944 110.377 73.0229L110.26 72.36L105.597 73.1823L105.329 71.6622L111.947 70.4954L112.291 72.4497C112.418 73.1698 112.403 73.7499 112.317 74.201C112.622 74.1237 112.892 74.0525 113.147 73.9605L113.427 75.5491C112.837 75.7473 112.228 75.9019 111.051 76.1094L110.548 76.1981L110.921 78.3125L109.275 78.6027Z" fill="black"/>
<path d="M100.718 76.588L100.839 77.2737L104.988 76.5422L105.278 78.188L94.7634 80.042L94.4732 78.3962L98.6219 77.6647L98.501 76.979L94.7866 77.6339L94.055 73.4852L103.575 71.8065L103.853 73.3837L96.4704 74.6855L96.6457 75.6799L104.086 74.3679L104.364 75.9451L100.718 76.588ZM103.111 80.8681L95.6021 82.1921L95.326 80.6263L105.006 78.9194L105.615 82.371L103.443 82.7538L103.111 80.8681Z" fill="black"/>
<path d="M92.83 79.5698L93.8243 79.3945L94.1346 81.1545L89.9859 81.8861L90.5502 85.0862L88.3329 85.4772L87.7687 82.277L83.6199 83.0086L83.3096 81.2485L90.6584 79.9527C90.791 79.0337 90.7804 78.1046 90.601 77.0874L90.4418 76.1846L83.0358 77.4904L82.7094 75.6389L92.2526 73.9562L92.7383 76.7106C92.9337 77.8192 92.9497 78.712 92.83 79.5698Z" fill="black"/>
<path d="M73.9837 83.4468L73.8003 82.4067L76.9318 81.8546L76.0048 76.5972L78.1763 76.2143L79.3311 82.7631L77.1596 83.146L77.1152 82.8946L73.9837 83.4468ZM73.5498 80.3179L70.624 80.8338C69.424 81.0454 68.6247 80.6561 68.4534 79.6846L68.4473 79.6503C68.276 78.6789 68.8939 78.0396 70.094 77.828L73.0198 77.3121C74.2199 77.1005 75.0191 77.4899 75.1904 78.4613L75.1965 78.4956C75.3678 79.4671 74.7499 80.1063 73.5498 80.3179ZM70.5294 79.295L70.5314 79.3064C70.5758 79.5578 70.7869 79.6856 71.1183 79.6272L72.6841 79.3511C73.0155 79.2926 73.1587 79.1024 73.1144 78.851L73.1124 78.8395C73.066 78.5767 72.8684 78.4583 72.537 78.5168L70.9712 78.7928C70.6397 78.8513 70.4831 79.0321 70.5294 79.295ZM73.2636 83.7741L71.2178 84.1348L70.9357 82.5347L68.7528 82.9197L68.5331 81.6739L73.6876 80.765C74.8648 80.5574 75.4739 80.4029 76.0635 80.2047L76.2832 81.4504C75.6935 81.6487 75.0844 81.8032 73.9072 82.0108L72.9815 82.174L73.2636 83.7741ZM72.4511 86.6513L72.5156 87.017L80.0245 85.693L80.228 86.8474L70.4791 88.5664L70.0458 86.1091L77.4632 84.8012L77.4007 84.4469L69.9833 85.7548L69.7838 84.6234L79.3499 82.9366L79.7771 85.3595L72.4511 86.6513Z" fill="black"/>
<path d="M65.8768 82.649L65.1473 78.5117L67.0331 78.1792L68.9133 88.8424L67.0275 89.175L66.1912 84.4319L65.5054 84.5528L66.3418 89.2959L64.456 89.6284L62.5757 78.9651L64.4615 78.6326L65.1911 82.7699L65.8768 82.649ZM60.1854 81.6492L57.0539 82.2014L56.7314 80.3727L61.8402 79.4719L62.4569 82.9692C63.1118 86.6836 61.504 89.3947 58.4497 90.4518L58.1011 88.4745C59.8848 87.6297 60.9411 85.9351 60.4817 83.3293L60.1854 81.6492Z" fill="black"/>
<path d="M57.2718 90.6359L55.1003 91.0188L53.8811 84.1042L52.2924 84.3844L51.9922 82.6814C53.1156 82.4362 53.6797 81.9596 53.6987 80.9311L55.5044 80.6127L57.2718 90.6359Z" fill="black"/>
<g clip-path="url(#clip0_456_2892)">
<rect width="43.6025" height="6.64673" transform="translate(59.1445 65.6487) rotate(-10)" fill="#FFFF71"/>
<path d="M66.3606 67.7419C66.6787 69.5455 65.4497 71.2689 63.6147 71.5925C62.3669 71.8125 61.1593 71.3267 60.4155 70.426C60.9949 70.2365 60.9814 69.4146 60.9668 68.5655C60.966 68.4765 60.9636 68.3896 60.9627 68.3006C60.9602 67.9608 60.9955 67.8253 61.114 67.8044C61.2325 67.7835 61.3121 67.8987 61.4259 68.2189C61.4552 68.3011 61.4848 68.385 61.5127 68.4693C61.8067 69.3182 62.0884 70.1384 62.7778 70.0168C63.4673 69.8952 63.4532 69.0279 63.4374 68.1299C63.4365 68.0409 63.4341 67.954 63.4333 67.865C63.4307 67.5251 63.4661 67.3897 63.5846 67.3688C63.7031 67.3479 63.7826 67.4631 63.8965 67.7833C63.9258 67.8655 63.9554 67.9494 63.9832 68.0337C64.2773 68.8826 64.5589 69.7027 65.2484 69.5812C65.9378 69.4596 65.9237 68.5923 65.9079 67.6943C65.9071 67.6053 65.9047 67.5184 65.9038 67.4293C65.9013 67.0895 65.9366 66.9541 66.0551 66.9332C66.0928 66.9265 66.1058 66.937 66.121 66.9707C66.2283 67.212 66.3088 67.4689 66.3567 67.7407L66.3606 67.7419Z" fill="#A452F7"/>
<path d="M59.7202 68.9136C59.7411 69.0319 59.7794 69.218 59.8381 69.3823C59.9503 69.6937 60.0504 69.8726 60.203 69.8457C60.3556 69.8188 60.3784 69.591 60.3621 69.1626C60.361 69.0827 60.3574 68.9996 60.3547 68.9109C60.3431 68.5927 60.3293 68.2312 60.378 67.8987C60.4433 67.4814 60.606 67.1124 60.9848 67.0456C61.3636 66.9788 61.6427 67.2699 61.8467 67.6397C62.0045 67.9358 62.1167 68.2782 62.2148 68.5829C62.2423 68.6654 62.2677 68.7465 62.294 68.8219C62.4273 69.2315 62.5245 69.4364 62.6771 69.4094C62.8298 69.3825 62.8525 69.1547 62.8362 68.7263C62.8351 68.6464 62.8312 68.5616 62.8289 68.4747C62.8172 68.1565 62.8034 67.7949 62.8522 67.4624C62.9174 67.0451 63.0801 66.6762 63.4589 66.6094C63.8378 66.5426 64.1168 66.8337 64.3209 67.2035C64.4786 67.4996 64.5908 67.8419 64.689 68.1467C64.7165 68.2292 64.7419 68.3102 64.7681 68.3857C64.9014 68.7952 64.9987 69.0001 65.1513 68.9732C65.3039 68.9463 65.3267 68.7184 65.3104 68.29C65.3092 68.2102 65.3054 68.1253 65.303 68.0384C65.2913 67.7202 65.2776 67.3587 65.3263 67.0262C65.3755 66.7063 65.4832 66.4144 65.7015 66.2667C64.9555 65.3428 63.7319 64.8398 62.4661 65.063C60.6312 65.3865 59.4022 67.11 59.7202 68.9136Z" fill="#A452F7"/>
<path d="M73.1244 63.2104L72.4062 63.337L72.9798 66.5896L73.6979 66.463L73.1244 63.2104Z" fill="#A452F7"/>
<path d="M79.933 62.0117L79.2148 62.1383L80.3644 68.6576L81.0826 68.5309L79.933 62.0117Z" fill="#A452F7"/>
<path d="M77.6648 62.5881L74.3594 63.1709L74.4711 63.8045L77.0565 63.3486L77.4026 65.3111L74.8171 65.767L75.4221 69.1978L79.2697 68.5193L79.1577 67.884L76.03 68.4355L75.6488 66.2736L78.2343 65.8177L77.6648 62.5881Z" fill="#A452F7"/>
<path fill-rule="evenodd" clip-rule="evenodd" d="M84.0789 62.3237C84.339 62.5181 84.4983 62.7811 84.5562 63.1094C84.6141 63.4377 84.5553 63.7446 84.3776 64.018C84.1991 64.286 83.9209 64.4515 83.5439 64.518C83.1668 64.5845 82.8396 64.5239 82.5804 64.3349C82.3257 64.1396 82.1678 63.8745 82.109 63.5409C82.0502 63.2074 82.1094 62.913 82.2817 62.6406C82.4596 62.3691 82.7404 62.1976 83.1228 62.1302C83.5053 62.0628 83.8185 62.1276 84.0789 62.3237ZM85.2596 63.7387C85.317 63.4975 85.3226 63.2454 85.2762 62.9824C85.2298 62.7195 85.1397 62.4915 85.0032 62.2845C84.8721 62.0765 84.7056 61.9093 84.5035 61.7812C84.3057 61.6469 84.0804 61.5556 83.824 61.508C83.5684 61.4548 83.2964 61.4554 83.0109 61.5058C82.7254 61.5561 82.4627 61.6516 82.2404 61.7872C82.0211 61.9187 81.8406 62.0815 81.6954 62.2764C81.5546 62.465 81.4556 62.6808 81.3979 62.9202C81.3459 63.1605 81.3415 63.4087 81.3872 63.6682C81.433 63.9276 81.5232 64.1664 81.6543 64.3744C81.7908 64.5815 81.9573 64.7486 82.154 64.8777C82.3571 65.0111 82.5824 65.1024 82.8335 65.151C83.0882 65.1989 83.3617 65.1961 83.6526 65.1448C83.9434 65.0936 84.1924 65.0042 84.4171 64.8717C84.64 64.7396 84.8223 64.5765 84.9621 64.3826C85.1083 64.193 85.2054 63.9776 85.2596 63.7387Z" fill="#A452F7"/>
<path d="M86.7416 60.8104L86.0234 60.937L87.173 67.4563L87.8911 67.3297L86.7416 60.8104Z" fill="#A452F7"/>
<path d="M86.5165 66.5871L81.7891 67.4207L81.9008 68.0542L86.6282 67.2207L86.5165 66.5871Z" fill="#A452F7"/>
<path d="M100.508 58.4119L100.966 61.0079L101.83 60.8556L101.367 58.2313L102.087 58.1044L103.236 64.6219L102.516 64.7489L101.941 61.4892L101.078 61.6415L101.639 64.827L100.921 64.9536L99.7901 58.5385L100.508 58.4119Z" fill="#A452F7"/>
<path d="M68.3555 67.7034L68.4635 68.3158L73.137 67.4917L73.2341 68.0423L68.5605 68.8664L68.8736 70.6418L74.4485 69.6588L74.3393 69.0394L69.4826 69.8957L69.3855 69.3451L74.059 68.521L73.7472 66.7527L68.3555 67.7034Z" fill="#A452F7"/>
<path fill-rule="evenodd" clip-rule="evenodd" d="M70.3221 64.5295L68.3794 64.8721L68.653 66.4234L70.5957 66.0808L70.3221 64.5295ZM67.5508 64.3722L68.0453 67.1765L71.4261 66.5804L70.9316 63.7761L67.5508 64.3722Z" fill="#A452F7"/>
<path d="M92.8899 62.4167L95.0158 62.0419L94.5555 59.4317L95.2755 59.3047L96.4247 65.8222L95.7047 65.9492L95.1262 62.6684L93.0004 63.0432L92.8899 62.4167Z" fill="#A452F7"/>
<path d="M97.4869 59.7458L96.5856 59.9048L96.4739 59.2712L99.3502 58.764L99.4619 59.3976L98.1926 59.6214C98.223 59.8362 98.2514 60.0496 98.2656 60.2036C98.2993 60.5416 98.3218 60.8688 98.3364 61.1828C98.6078 61.7664 98.943 62.3133 99.3449 62.8284C99.6984 63.2792 100.087 63.6691 100.512 63.9983L100.103 64.5854C99.7847 64.3358 99.4823 64.0488 99.1953 63.7227C98.8659 63.3459 98.5767 62.9547 98.3263 62.553C98.2948 63.0044 98.2408 63.4543 98.1629 63.9048C98.074 64.419 97.9545 64.8441 97.6841 65.4522L97.0022 65.1758C97.4037 64.2606 97.5903 63.2087 97.6129 62.2239C97.6584 61.4953 97.6041 60.5677 97.4866 59.7441L97.4869 59.7458Z" fill="#A452F7"/>
<path d="M91.5774 61.3021C91.5437 60.9641 91.4478 60.3259 91.4056 60.0549L90.6874 60.1816C90.8791 61.1322 90.9823 62.3896 90.9268 63.3238C90.9042 64.3087 90.7172 65.3588 90.3161 66.2757L90.998 66.5522C91.2666 65.9443 91.3858 65.5175 91.4768 65.0047C91.555 64.556 91.6105 64.104 91.6401 63.653C91.8905 64.0547 92.1795 64.4441 92.5092 64.8227C92.8379 65.196 93.1872 65.5183 93.5557 65.7918L93.8477 66.0097L94.2758 65.4137L93.9924 65.2235C93.5041 64.8692 93.0594 64.4363 92.6606 63.928C92.259 63.4147 91.9235 62.866 91.6521 62.2825C91.6389 61.9663 91.6149 61.6412 91.5813 61.3032L91.5774 61.3021Z" fill="#A452F7"/>
</g>
<path d="M8.1623 30.0061L5.8534 27.9442C3.74314 35.3808 4.50437 37.8776 4.75527 39.3131C5.00616 40.7485 7.71388 43.2339 9.27137 43.7835C10.5174 44.2232 14.789 42.2164 16.7691 41.1581C15.8831 42.9018 14.8344 47.1833 17.7279 50.3594C20.6213 53.5355 25.5335 52.2825 27.6279 51.2589L25.3747 49.516C23.4193 50.4056 19.2895 51.8616 18.4139 50.5682C17.3194 48.9515 19.4211 43.3244 20.0138 42.0703C20.6065 40.8161 20.8379 40.2825 20.541 39.5126C20.3034 38.8967 18.7884 37.8465 17.7314 37.3738C13.9874 39.1788 10.207 42.6337 7.36111 42.145C6.31148 37.0687 7.74373 33.805 8.1623 30.0061Z" fill="url(#paint1_linear_456_2892)"/>
<path d="M50.5456 34.9876L49.4062 28.3644L56.5056 29.3601L57.1379 35.9122L50.5456 34.9876Z" fill="#FFC1FF"/>
<path d="M29.2215 20.7426L32.125 19.589C32.3244 22.5351 31.5209 28.8711 26.712 30.6459C29.526 26.1912 29.1556 24.097 29.2215 20.7426Z" fill="url(#paint2_linear_456_2892)"/>
<path d="M3.41627 59.5596L3.75519 65.0646L12.391 62.4768L11.932 58.8975C7.97296 58.7627 6.25688 59.0516 3.41627 59.5596Z" fill="#CDE4FF"/>
<g filter="url(#filter1_d_456_2892)">
<rect width="32" height="32" rx="10" transform="matrix(0.984808 0.173648 -0.173998 0.984746 111.832 81.6243)" fill="url(#paint3_linear_456_2892)"/>
<rect width="29.1765" height="29.1765" rx="10" transform="matrix(0.984808 0.173648 -0.173998 0.984746 111.832 81.6243)" fill="url(#paint4_linear_456_2892)"/>
<path fill-rule="evenodd" clip-rule="evenodd" d="M130.502 94.2749C130.502 94.2773 130.502 94.2798 130.503 94.2821C130.868 95.0651 130.705 95.9852 130.382 97.8152L129.61 102.185C129.285 104.026 129.123 104.938 128.51 105.549C127.897 106.16 126.975 106.312 125.138 106.623L124.364 106.754C120.886 107.342 119.151 107.633 118.15 106.63C117.158 105.621 117.463 103.892 118.077 100.42L118.941 95.53C119.554 92.0576 119.86 90.3288 121.138 89.7202C122.415 89.119 123.953 89.9869 127.021 91.7215L127.702 92.1094C129.32 93.0288 130.134 93.4861 130.501 94.2678C130.502 94.27 130.503 94.2725 130.502 94.2749ZM129.588 96.6805C129.588 96.6764 129.586 96.6725 129.582 96.6718L128.914 96.554C128.541 96.4883 128.292 96.1327 128.358 95.7597L128.425 95.3814C128.523 94.8241 128.151 94.2926 127.594 94.1943C127.378 94.1564 127.255 94.2494 127.217 94.4645L126.536 98.3154C126.438 98.8727 126.81 99.4042 127.367 99.5025C127.583 99.5404 127.706 99.4474 127.744 99.2322L127.846 98.6535C127.947 98.0839 128.49 97.7036 129.06 97.804C129.275 97.842 129.399 97.749 129.437 97.5338L129.588 96.6805ZM125.417 94.8205C125.051 94.3352 124.457 94.0162 123.626 93.8696C122.795 93.7231 122.128 93.8196 121.609 94.1566C121.099 94.4875 120.776 95.0196 120.646 95.7542C120.516 96.4887 120.635 97.1141 120.999 97.6069C121.374 98.086 121.977 98.3989 122.8 98.5441C123.624 98.6894 124.298 98.6016 124.806 98.2781C125.323 97.9485 125.648 97.409 125.781 96.6596C125.913 95.9102 125.79 95.3071 125.417 94.8205ZM122.451 95.1084C122.704 94.9312 123.019 94.8797 123.42 94.9503L123.464 94.9582C123.858 95.0275 124.144 95.185 124.321 95.4382C124.499 95.6839 124.548 96.0138 124.475 96.4293C124.401 96.8448 124.241 97.1456 123.989 97.3154C123.737 97.4852 123.423 97.5293 123.023 97.4587L122.978 97.4508C122.585 97.3815 122.299 97.2239 122.119 96.9856C121.942 96.7325 121.893 96.4026 121.967 95.9871C122.04 95.5716 122.199 95.2782 122.451 95.1084ZM127.433 100.191C127.431 100.193 127.427 100.192 127.426 100.19C127.351 100.087 127.212 100.018 127 99.9808L122.273 99.1474C121.838 99.0708 121.424 99.3608 121.347 99.7952C121.308 100.018 121.393 100.14 121.609 100.178L125.92 100.938C126.024 100.956 126.067 101.018 126.047 101.129C125.998 101.407 125.732 101.594 125.453 101.544L121.795 100.899C121.58 100.861 121.423 100.88 121.317 100.961C121.213 101.034 121.141 101.182 121.103 101.397L120.811 103.044C120.772 103.267 120.79 103.423 120.864 103.528C120.936 103.64 121.076 103.711 121.291 103.749L125.692 104.524C126.048 104.587 126.324 104.628 126.521 104.64C126.718 104.652 126.859 104.631 126.953 104.578C127.053 104.527 127.115 104.439 127.136 104.32C127.206 103.922 126.81 103.528 126.408 103.487C126.266 103.473 126.113 103.451 125.948 103.422L122.393 102.795C122.29 102.777 122.247 102.716 122.266 102.604C122.315 102.33 122.577 102.147 122.851 102.195L126.502 102.839C126.718 102.877 126.874 102.858 126.98 102.778C127.092 102.706 127.164 102.558 127.202 102.342L127.497 100.673C127.536 100.453 127.519 100.298 127.441 100.192C127.439 100.19 127.436 100.189 127.433 100.191Z" fill="white"/>
</g>
<defs>
<filter id="filter0_f_456_2892" x="21.75" y="36.8363" width="232.844" height="101.397" filterUnits="userSpaceOnUse" color-interpolation-filters="sRGB">
<feFlood flood-opacity="0" result="BackgroundImageFix"/>
<feBlend mode="normal" in="SourceGraphic" in2="BackgroundImageFix" result="shape"/>
<feGaussianBlur stdDeviation="6" result="effect1_foregroundBlur_456_2892"/>
</filter>
<filter id="filter1_d_456_2892" x="99.8516" y="76.2072" width="53.9102" height="53.9028" filterUnits="userSpaceOnUse" color-interpolation-filters="sRGB">
<feFlood flood-opacity="0" result="BackgroundImageFix"/>
<feColorMatrix in="SourceAlpha" type="matrix" values="0 0 0 0 0 0 0 0 0 0 0 0 0 0 0 0 0 0 127 0" result="hardAlpha"/>
<feOffset dx="2" dy="3"/>
<feGaussianBlur stdDeviation="5"/>
<feComposite in2="hardAlpha" operator="out"/>
<feColorMatrix type="matrix" values="0 0 0 0 0 0 0 0 0 0 0 0 0 0 0 0 0 0 0.12 0"/>
<feBlend mode="normal" in2="BackgroundImageFix" result="effect1_dropShadow_456_2892"/>
<feBlend mode="normal" in="SourceGraphic" in2="effect1_dropShadow_456_2892" result="shape"/>
</filter>
<linearGradient id="paint0_linear_456_2892" x1="217.751" y1="84.0133" x2="67.2188" y2="155.47" gradientUnits="userSpaceOnUse">
<stop offset="0.256119" stop-color="white" stop-opacity="0"/>
<stop offset="0.899447"/>
</linearGradient>
<linearGradient id="paint1_linear_456_2892" x1="3.42463" y1="31.7476" x2="26.4521" y2="53.4541" gradientUnits="userSpaceOnUse">
<stop stop-color="#FFE27B"/>
<stop offset="0.25" stop-color="#FFB27B"/>
<stop offset="0.5" stop-color="#FFE27B"/>
<stop offset="0.545" stop-color="#F9A85D"/>
<stop offset="0.75" stop-color="#FFE27B"/>
<stop offset="1" stop-color="#FFB27B"/>
</linearGradient>
<linearGradient id="paint2_linear_456_2892" x1="31.2901" y1="20.1924" x2="29.3524" y2="30.501" gradientUnits="userSpaceOnUse">
<stop stop-color="#A2CFFF"/>
<stop offset="1" stop-color="#2E91E2"/>
</linearGradient>
<linearGradient id="paint3_linear_456_2892" x1="0.24388" y1="6.54007" x2="30.907" y2="29.7324" gradientUnits="userSpaceOnUse">
<stop offset="0.4" stop-color="#07BFE0"/>
<stop offset="1" stop-color="#287EAE"/>
</linearGradient>
<linearGradient id="paint4_linear_456_2892" x1="0.43542" y1="10.641" x2="28.1799" y2="27.1089" gradientUnits="userSpaceOnUse">
<stop stop-color="#70E9FF"/>
<stop offset="0.265585" stop-color="#07BFE0"/>
<stop offset="1" stop-color="#18B1CD"/>
</linearGradient>
<clipPath id="clip0_456_2892">
<rect width="43.6025" height="6.64673" fill="white" transform="translate(59.1445 65.6487) rotate(-10)"/>
</clipPath>
</defs>
</svg>
