<svg width="335" height="94" viewBox="0 0 335 94" fill="none" xmlns="http://www.w3.org/2000/svg">
<path d="M318.694 72.955H312.68V53.487H318.694V72.955ZM318.694 80.736H312.68V74.784H318.694V80.736Z" fill="white"/>
<path d="M307.78 63.252H310.725V68.336H307.78V81.356H301.89V52.433H307.78V63.252ZM298.232 58.23H287.413V75.28H299.658V80.116H281.523V53.332H298.232V58.23Z" fill="white"/>
<path d="M277.711 81.356H271.821V52.433H277.711V81.356ZM256.445 74.877H269.279V79.806H250.555V53.425H256.445V74.877Z" fill="white"/>
<path d="M219.833 62.074V60.679C219.833 59.966 219.988 59.315 220.267 58.726H218.469V54.696H225.041V52.247H231.024V54.696H237.534V58.726H235.705C235.984 59.315 236.139 59.966 236.139 60.679V62.074C236.139 65.98 232.853 68.367 227.986 68.367C223.119 68.367 219.833 65.98 219.833 62.074ZM245.935 52.433V57.672H248.725V62.756H245.935V68.491H240.045V52.433H245.935ZM230.807 61.795V60.617C230.807 59.191 229.66 58.354 227.986 58.354C226.312 58.354 225.165 59.191 225.165 60.617V61.795C225.165 63.221 226.033 64.182 227.986 64.182C229.66 64.182 230.807 63.221 230.807 61.795ZM226.56 71.777H240.231V69.638H246.121V81.356H220.67V69.638H226.56V71.777ZM226.56 75.435V77.512H240.231V75.435H226.56Z" fill="white"/>
<path d="M196.74 68.367C191.718 68.367 188.215 66.011 188.215 61.578V59.377C188.215 54.975 191.687 52.588 196.709 52.588C199.716 52.588 202.196 53.425 203.684 55.068H209.822V52.433H215.712V68.646H209.822V65.794H203.746C202.289 67.499 199.778 68.367 196.74 68.367ZM193.857 59.284V61.671C193.857 63.066 194.911 64.12 196.709 64.12C198.507 64.12 199.592 63.066 199.592 61.671V59.284C199.592 57.858 198.507 56.804 196.709 56.835C194.911 56.866 193.857 57.858 193.857 59.284ZM209.822 61.733V59.129H205.234V59.377V61.578V61.733H209.822ZM196.027 69.607H209.481C213.79 69.607 216.053 72.025 216.053 75.528C216.053 79.031 213.79 81.449 209.481 81.449H196.027C191.656 81.449 189.455 78.969 189.455 75.528C189.455 72.087 191.656 69.607 196.027 69.607ZM197.577 77.481H207.931C209.357 77.481 210.07 76.706 210.07 75.528C210.07 74.35 209.357 73.544 207.931 73.544H197.577C196.182 73.544 195.438 74.35 195.438 75.528C195.438 76.706 196.182 77.481 197.577 77.481Z" fill="white"/>
<path d="M176.684 66.6V70.909C175.041 71.157 173.366 71.281 170.266 71.281H156.812V66.972H163.508V65.174C159.664 65.143 157.773 62.756 157.773 59.842C157.773 59.253 157.897 58.695 158.145 58.168H156.812V54.169H163.508V52.185H169.398V54.169H176.063V58.168H174.73C174.979 58.695 175.102 59.253 175.102 59.842C175.102 62.787 173.18 65.174 169.274 65.174H169.057V66.972H170.266C173.366 66.972 175.041 66.848 176.684 66.6ZM183.938 52.433V60.152H186.727V65.236H183.938V74.226H178.202V52.433H183.938ZM167.91 57.92H164.965C163.85 57.92 163.043 58.571 163.043 59.687C163.043 60.834 163.85 61.485 164.965 61.485H167.91C169.026 61.485 169.832 60.834 169.832 59.687C169.832 58.571 169.026 57.92 167.91 57.92ZM158.982 72.862H164.965V77.016H184.682V81.356H158.982V72.862Z" fill="white"/>
<path d="M117.927 57.579V57.455C117.927 54.262 120.097 52.557 123.941 52.557H138.79C142.634 52.557 144.835 54.262 144.835 57.455V57.579C144.835 60.741 142.634 62.477 138.79 62.477H123.941C120.097 62.477 117.927 60.741 117.927 57.579ZM138.852 57.548V57.517C138.852 56.897 138.48 56.463 137.643 56.463H125.119C124.251 56.463 123.91 56.897 123.91 57.517V57.548C123.91 58.168 124.251 58.571 125.119 58.571H137.643C138.48 58.571 138.852 58.168 138.852 57.548ZM117.121 63.717H145.641V67.716H117.121V63.717ZM145.114 81.356H118.02V73.668H138.232V72.397H118.02V69.08H144.618V76.737H124.406V78.008H145.114V81.356Z" fill="white"/>
<path d="M108.133 64.306H101.158C98.3372 67.685 93.2222 69.39 86.8672 69.669V64.926C93.1292 64.523 97.7172 62.074 97.7172 58.323V57.734H87.4252V53.084H103.545V57.238C103.545 58.137 103.452 58.974 103.297 59.78H108.133V52.433H114.023V71.126H108.133V64.306ZM103.576 72.707C108.629 72.614 113.62 75.404 115.046 81.356H108.939C107.916 78.38 104.63 76.675 100.786 77.109C97.9342 79.93 93.4082 81.573 87.7042 81.573V77.016C94.3692 76.892 97.5932 73.668 98.3372 69.855H104.165C104.072 70.847 103.886 71.808 103.576 72.707Z" fill="white"/>
<path d="M68.4444 52.433H74.3344V74.226H68.4444V52.433ZM56.8504 63.252C54.8974 66.569 51.4254 68.894 47.0234 69.545V64.461C50.6814 63.221 52.7584 60.276 52.8204 55.347V52.991H58.6794V56.432C58.6794 57.238 58.6174 58.013 58.4934 58.788C62.9574 59.377 65.9644 63.066 65.9024 68.863H60.1364C60.1984 66.352 58.9274 63.934 56.8504 63.252ZM54.5874 70.847V76.768H74.9234V81.356H48.6044V70.847H54.5874Z" fill="white"/>
<path d="M34.9636 69.917H24.3926C19.2156 69.917 16.0846 66.104 16.0846 61.857V61.082C16.0846 56.835 19.2156 53.022 24.3926 53.022H34.9636C40.1406 53.022 43.3026 56.835 43.3026 61.082V61.857C43.3026 66.104 40.1406 69.917 34.9636 69.917ZM22.2226 61.33V61.609C22.2226 63.624 23.6176 65.05 25.9736 65.05H33.3826C35.7386 65.05 37.1646 63.624 37.1646 61.609V61.33C37.1646 59.315 35.7386 57.889 33.3826 57.889H25.9736C23.6176 57.889 22.2226 59.315 22.2226 61.33ZM32.7006 71.157V75.807H43.9536V80.581H15.4336V75.807H26.6866V71.157H32.7006Z" fill="white"/>
<path d="M244.75 16.965H247.168V5.433H252.128V34.356H247.168V21.801H244.75V26.11C244.75 30.698 242.518 33.612 237.961 33.612C233.373 33.612 231.141 30.698 231.141 26.11V13.4C231.141 8.843 233.342 5.898 237.93 5.898C242.518 5.898 244.75 8.812 244.75 13.4V16.965ZM253.988 34.356V5.433H259.103V34.356H253.988ZM239.604 27.071V12.408C239.604 11.106 238.922 10.362 237.93 10.393C236.938 10.424 236.287 11.106 236.287 12.408V27.071C236.287 28.373 236.938 29.117 237.93 29.117C238.922 29.117 239.604 28.373 239.604 27.071Z" fill="white"/>
<path d="M200.885 5.64999H227.111V9.80399H200.885V5.64999ZM217.005 18.546V20.127H228.258V24.591H199.738V20.127H210.991V18.546H200.513V14.64H205.07V10.765H211.084V14.64H216.912V10.765H222.926V14.64H227.483V18.546H217.005ZM201.04 25.49H207.085V29.954H227.297V34.356H201.04V25.49Z" fill="#FDEA60"/>
<path d="M169.451 5.619H195.894V9.339H187.462V12.098H196.111V15.787H169.451V5.619ZM175.31 9.339V12.098H181.727V9.339H175.31ZM168.738 17.027H197.258V20.871H168.738V17.027ZM196.731 34.356H169.637V26.668H189.849V25.397H169.637V22.08H196.235V29.737H176.023V31.008H196.731V34.356Z" fill="#FDEA60"/>
<path d="M146.977 20.127C141.924 20.127 138.297 17.833 138.297 13.4V12.16C138.297 7.758 141.893 5.433 146.946 5.433C151.999 5.433 155.626 7.727 155.626 12.16V13.4C155.626 17.833 151.999 20.127 146.977 20.127ZM164.864 5.433V10.362H167.654V15.446H164.864V20.251H158.974V5.433H164.864ZM144.001 12.129V13.431C144.001 14.826 145.086 15.911 146.946 15.911C148.806 15.911 149.922 14.826 149.922 13.431V12.129C149.922 10.703 148.806 9.618 146.946 9.649C145.086 9.68 144.001 10.703 144.001 12.129ZM164.988 29.303H145.892V30.791H165.484V34.356H139.816V26.141H159.16V24.684H139.816V21.181H164.988V29.303Z" fill="#FDEA60"/>
<path d="M134.639 34.356H128.749V5.433H134.639V34.356ZM107.297 25.49V14.02C107.297 8.688 111.017 5.743 116.101 5.743C121.216 5.743 124.936 8.657 124.936 14.02V25.49C124.936 30.853 121.216 33.767 116.132 33.767C111.048 33.767 107.297 30.853 107.297 25.49ZM113.032 13.524V25.986C113.032 28.001 114.396 28.993 116.101 28.993C117.806 28.993 119.201 28.001 119.201 25.986V13.524C119.201 11.54 117.806 10.486 116.101 10.517C114.396 10.548 113.032 11.571 113.032 13.524Z" fill="#FDEA60"/>
<path d="M102.709 16.252H105.654V21.336H102.709V34.356H96.8194V5.433H102.709V16.252ZM93.2234 33.178H76.3594V6.27H93.2234V33.178ZM87.5504 10.982H82.0324V28.466H87.5504V10.982Z" fill="#FDEA60"/>
</svg>
