<svg width="358" height="104" viewBox="0 0 358 104" fill="none" xmlns="http://www.w3.org/2000/svg">
<path d="M354.58 80.98H347.596V58.372H354.58V80.98ZM354.58 90.016H347.596V83.104H354.58V90.016Z" fill="white"/>
<path d="M341.908 69.712H345.328V75.616H341.908V90.736H335.068V57.148H341.908V69.712ZM330.82 63.88H318.256V83.68H332.476V89.296H311.416V58.192H330.82V63.88Z" fill="white"/>
<path d="M306.987 90.736H300.147V57.148H306.987V90.736ZM282.291 83.212H297.195V88.936H275.451V58.3H282.291V83.212Z" fill="white"/>
<path d="M239.775 68.344V66.724C239.775 65.896 239.955 65.14 240.279 64.456H238.191V59.776H245.823V56.932H252.771V59.776H260.331V64.456H258.207C258.531 65.14 258.711 65.896 258.711 66.724V68.344C258.711 72.88 254.895 75.652 249.243 75.652C243.591 75.652 239.775 72.88 239.775 68.344ZM270.087 57.148V63.232H273.327V69.136H270.087V75.796H263.247V57.148H270.087ZM252.519 68.02V66.652C252.519 64.996 251.187 64.024 249.243 64.024C247.299 64.024 245.967 64.996 245.967 66.652V68.02C245.967 69.676 246.975 70.792 249.243 70.792C251.187 70.792 252.519 69.676 252.519 68.02ZM247.587 79.612H263.463V77.128H270.303V90.736H240.747V77.128H247.587V79.612ZM247.587 83.86V86.272H263.463V83.86H247.587Z" fill="white"/>
<path d="M212.957 75.652C207.125 75.652 203.057 72.916 203.057 67.768V65.212C203.057 60.1 207.089 57.328 212.921 57.328C216.413 57.328 219.293 58.3 221.021 60.208H228.149V57.148H234.989V75.976H228.149V72.664H221.093C219.401 74.644 216.485 75.652 212.957 75.652ZM209.609 65.104V67.876C209.609 69.496 210.833 70.72 212.921 70.72C215.009 70.72 216.269 69.496 216.269 67.876V65.104C216.269 63.448 215.009 62.224 212.921 62.26C210.833 62.296 209.609 63.448 209.609 65.104ZM228.149 67.948V64.924H222.821V65.212V67.768V67.948H228.149ZM212.129 77.092H227.753C232.757 77.092 235.385 79.9 235.385 83.968C235.385 88.036 232.757 90.844 227.753 90.844H212.129C207.053 90.844 204.497 87.964 204.497 83.968C204.497 79.972 207.053 77.092 212.129 77.092ZM213.929 86.236H225.953C227.609 86.236 228.437 85.336 228.437 83.968C228.437 82.6 227.609 81.664 225.953 81.664H213.929C212.309 81.664 211.445 82.6 211.445 83.968C211.445 85.336 212.309 86.236 213.929 86.236Z" fill="white"/>
<path d="M189.664 73.6V78.604C187.756 78.892 185.812 79.036 182.212 79.036H166.588V74.032H174.364V71.944C169.9 71.908 167.704 69.136 167.704 65.752C167.704 65.068 167.848 64.42 168.136 63.808H166.588V59.164H174.364V56.86H181.204V59.164H188.944V63.808H187.396C187.684 64.42 187.828 65.068 187.828 65.752C187.828 69.172 185.596 71.944 181.06 71.944H180.808V74.032H182.212C185.812 74.032 187.756 73.888 189.664 73.6ZM198.088 57.148V66.112H201.328V72.016H198.088V82.456H191.428V57.148H198.088ZM179.476 63.52H176.056C174.76 63.52 173.824 64.276 173.824 65.572C173.824 66.904 174.76 67.66 176.056 67.66H179.476C180.772 67.66 181.708 66.904 181.708 65.572C181.708 64.276 180.772 63.52 179.476 63.52ZM169.108 80.872H176.056V85.696H198.952V90.736H169.108V80.872Z" fill="white"/>
<path d="M121.434 63.124V62.98C121.434 59.272 123.954 57.292 128.418 57.292H145.662C150.126 57.292 152.682 59.272 152.682 62.98V63.124C152.682 66.796 150.126 68.812 145.662 68.812H128.418C123.954 68.812 121.434 66.796 121.434 63.124ZM145.734 63.088V63.052C145.734 62.332 145.302 61.828 144.33 61.828H129.786C128.778 61.828 128.382 62.332 128.382 63.052V63.088C128.382 63.808 128.778 64.276 129.786 64.276H144.33C145.302 64.276 145.734 63.808 145.734 63.088ZM120.498 70.252H153.618V74.896H120.498V70.252ZM153.006 90.736H121.542V81.808H145.014V80.332H121.542V76.48H152.43V85.372H128.958V86.848H153.006V90.736Z" fill="white"/>
<path d="M110.057 70.936H101.957C98.6813 74.86 92.7413 76.84 85.3613 77.164V71.656C92.6333 71.188 97.9613 68.344 97.9613 63.988V63.304H86.0093V57.904H104.729V62.728C104.729 63.772 104.621 64.744 104.441 65.68H110.057V57.148H116.897V78.856H110.057V70.936ZM104.765 80.692C110.633 80.584 116.429 83.824 118.085 90.736H110.993C109.805 87.28 105.989 85.3 101.525 85.804C98.2133 89.08 92.9573 90.988 86.3333 90.988V85.696C94.0733 85.552 97.8173 81.808 98.6813 77.38H105.449C105.341 78.532 105.125 79.648 104.765 80.692Z" fill="white"/>
<path d="M63.9678 57.148H70.8078V82.456H63.9678V57.148ZM50.5038 69.712C48.2358 73.564 44.2038 76.264 39.0918 77.02V71.116C43.3398 69.676 45.7518 66.256 45.8238 60.532V57.796H52.6278V61.792C52.6278 62.728 52.5558 63.628 52.4118 64.528C57.5958 65.212 61.0878 69.496 61.0158 76.228H54.3198C54.3918 73.312 52.9158 70.504 50.5038 69.712ZM47.8758 78.532V85.408H71.4918V90.736H40.9278V78.532H47.8758Z" fill="white"/>
<path d="M25.0882 77.452H12.8122C6.8002 77.452 3.1642 73.024 3.1642 68.092V67.192C3.1642 62.26 6.8002 57.832 12.8122 57.832H25.0882C31.1002 57.832 34.7722 62.26 34.7722 67.192V68.092C34.7722 73.024 31.1002 77.452 25.0882 77.452ZM10.2922 67.48V67.804C10.2922 70.144 11.9122 71.8 14.6482 71.8H23.2522C25.9882 71.8 27.6442 70.144 27.6442 67.804V67.48C27.6442 65.14 25.9882 63.484 23.2522 63.484H14.6482C11.9122 63.484 10.2922 65.14 10.2922 67.48ZM22.4602 78.892V84.292H35.5282V89.836H2.4082V84.292H15.4762V78.892H22.4602Z" fill="white"/>
<path d="M263.667 18.54H266.475V5.14801H272.235V38.736H266.475V24.156H263.667V29.16C263.667 34.488 261.075 37.872 255.783 37.872C250.455 37.872 247.863 34.488 247.863 29.16V14.4C247.863 9.10801 250.419 5.68801 255.747 5.68801C261.075 5.68801 263.667 9.07201 263.667 14.4V18.54ZM274.395 38.736V5.14801H280.335V38.736H274.395ZM257.691 30.276V13.248C257.691 11.736 256.899 10.872 255.747 10.908C254.595 10.944 253.839 11.736 253.839 13.248V30.276C253.839 31.788 254.595 32.652 255.747 32.652C256.899 32.652 257.691 31.788 257.691 30.276Z" fill="white"/>
<path d="M212.727 5.40002H243.183V10.224H212.727V5.40002ZM231.447 20.376V22.212H244.515V27.396H211.395V22.212H224.463V20.376H212.295V15.84H217.587V11.34H224.571V15.84H231.339V11.34H238.323V15.84H243.615V20.376H231.447ZM212.907 28.44H219.927V33.624H243.399V38.736H212.907V28.44Z" fill="#FDEA60"/>
<path d="M176.223 5.36401H206.931V9.68401H197.139V12.888H207.183V17.172H176.223V5.36401ZM183.027 9.68401V12.888H190.479V9.68401H183.027ZM175.395 18.612H208.515V23.076H175.395V18.612ZM207.903 38.736H176.439V29.808H199.911V28.332H176.439V24.48H207.327V33.372H183.855V34.848H207.903V38.736Z" fill="#FDEA60"/>
<path d="M150.123 22.212C144.255 22.212 140.043 19.548 140.043 14.4V12.96C140.043 7.84801 144.219 5.14801 150.087 5.14801C155.955 5.14801 160.167 7.81201 160.167 12.96V14.4C160.167 19.548 155.955 22.212 150.123 22.212ZM170.895 5.14801V10.872H174.135V16.776H170.895V22.356H164.055V5.14801H170.895ZM146.667 12.924V14.436C146.667 16.056 147.927 17.316 150.087 17.316C152.247 17.316 153.543 16.056 153.543 14.436V12.924C153.543 11.268 152.247 10.008 150.087 10.044C147.927 10.08 146.667 11.268 146.667 12.924ZM171.039 32.868H148.863V34.596H171.615V38.736H141.807V29.196H164.271V27.504H141.807V23.436H171.039V32.868Z" fill="#FDEA60"/>
<path d="M135.795 38.736H128.955V5.14801H135.795V38.736ZM104.043 28.44V15.12C104.043 8.92801 108.363 5.50801 114.267 5.50801C120.207 5.50801 124.527 8.89201 124.527 15.12V28.44C124.527 34.668 120.207 38.052 114.303 38.052C108.399 38.052 104.043 34.668 104.043 28.44ZM110.703 14.544V29.016C110.703 31.356 112.287 32.508 114.267 32.508C116.247 32.508 117.867 31.356 117.867 29.016V14.544C117.867 12.24 116.247 11.016 114.267 11.052C112.287 11.088 110.703 12.276 110.703 14.544Z" fill="#FDEA60"/>
<path d="M98.7152 17.712H102.135V23.616H98.7152V38.736H91.8752V5.14801H98.7152V17.712ZM87.6992 37.368H68.1152V6.12001H87.6992V37.368ZM81.1112 11.592H74.7032V31.896H81.1112V11.592Z" fill="#FDEA60"/>
</svg>
