<svg width="488" height="230" viewBox="0 0 488 230" fill="none" xmlns="http://www.w3.org/2000/svg">
<g clip-path="url(#clip0_456_1782)">
<g opacity="0.8" filter="url(#filter0_f_456_1782)">
<path d="M464.739 215.897C465.322 217.252 464.288 218.751 462.814 218.686L150.094 204.939C147.902 204.843 147.442 201.798 149.507 201.058L415.31 105.848C416.304 105.492 417.404 105.97 417.821 106.94L464.739 215.897Z" fill="url(#paint0_linear_456_1782)" fill-opacity="0.25"/>
</g>
<path fill-rule="evenodd" clip-rule="evenodd" d="M309.826 21.5945C309.797 21.4766 309.873 21.3599 309.992 21.3346L324.758 18.1961C324.876 18.1708 324.993 18.2465 325.015 18.3659L309.826 21.5945ZM340.456 165.718L166.647 202.662C158.003 204.499 149.507 198.982 147.67 190.338L123.689 77.5166C121.851 68.8731 127.369 60.3768 136.012 58.5396L309.826 21.5945C310.81 25.6671 314.865 28.2398 318.99 27.3631C323.114 26.4865 325.772 22.4868 325.015 18.3659L346.044 13.8959C354.688 12.0587 363.184 17.5762 365.021 26.2197L389.002 139.042C390.84 147.685 385.322 156.181 376.679 158.018L355.652 162.488C354.751 158.303 350.633 155.633 346.443 156.524C342.253 157.415 339.576 161.528 340.456 165.718ZM340.456 165.718L355.652 162.488C355.654 162.498 355.647 162.509 355.637 162.511L340.479 165.733C340.469 165.735 340.458 165.728 340.456 165.718Z" fill="#FFFF71"/>
<mask id="mask0_456_1782" style="mask-type:alpha" maskUnits="userSpaceOnUse" x="123" y="13" width="267" height="191">
<path fill-rule="evenodd" clip-rule="evenodd" d="M309.829 21.5962C309.8 21.4774 309.877 21.3597 309.997 21.3343L324.759 18.1964C324.879 18.171 324.997 18.2473 325.019 18.3676L309.829 21.5962ZM340.46 165.719L166.649 202.664C158.005 204.501 149.509 198.984 147.672 190.34L123.691 77.5185C121.854 68.8751 127.371 60.3788 136.015 58.5416L309.829 21.5962C310.814 25.6679 314.869 28.2397 318.993 27.3631C323.117 26.4866 325.775 22.4879 325.019 18.3676L346.047 13.8979C354.69 12.0607 363.187 17.5782 365.024 26.2217L389.005 139.043C390.842 147.687 385.324 156.183 376.681 158.02L355.655 162.49C354.755 158.304 350.637 155.634 346.447 156.525C342.257 157.416 339.58 161.53 340.46 165.719ZM340.46 165.719L355.655 162.49C355.658 162.5 355.651 162.51 355.641 162.512L340.482 165.734C340.472 165.736 340.462 165.73 340.46 165.719Z" fill="#FFFF71"/>
</mask>
<g mask="url(#mask0_456_1782)">
<g opacity="0.36">
<rect width="165.669" height="170.646" transform="translate(223.197 136.879) rotate(-42)" fill="#FFFF71"/>
<path d="M284.786 192.153C285.311 192.737 285.837 193.32 286.362 193.903L286.432 193.981C287.951 195.289 289.4 196.519 290.852 197.676C298.308 204.06 302.688 206.876 305.179 204.633C307.669 202.391 305.327 197.74 299.757 189.658C298.755 188.166 297.649 186.557 296.507 184.91C292.392 178.898 287.687 172.079 284.518 165.145C280.617 156.335 279.127 147.396 285.353 141.79C291.579 136.184 300.348 138.639 308.667 143.401C315.232 147.277 321.522 152.669 327.071 157.39C328.59 158.698 330.039 159.928 331.453 161.119C338.909 167.503 343.289 170.318 345.78 168.076C348.27 165.834 345.927 161.183 340.358 153.101C339.356 151.609 338.249 150 337.108 148.352C332.993 142.34 328.288 135.522 325.119 128.588C321.218 119.778 319.728 110.839 325.954 105.233C332.18 99.6268 340.949 102.082 349.268 106.843C355.833 110.72 362.123 116.112 367.672 120.833C369.191 122.14 370.64 123.37 372.054 124.562C379.51 130.945 383.89 133.761 386.381 131.519C388.871 129.276 386.528 124.626 380.959 116.544C379.957 115.051 378.85 113.443 377.709 111.795C373.594 105.783 368.889 98.9644 365.72 92.0302C362.726 85.2905 361.122 78.4254 363.363 73.0983C338.338 63.5926 309.407 67.8846 288.616 86.6049C258.467 113.751 256.74 161.005 284.786 192.153Z" fill="#FDD84C"/>
<path d="M393.834 93.807C421.794 124.86 420.158 171.893 390.206 198.862C369.813 217.224 341.575 221.52 316.779 212.677C325.162 202.462 314.866 186.882 304.23 170.696C303.128 169.02 302.027 167.344 300.925 165.669C296.693 159.16 295.711 156.184 297.66 154.428C299.609 152.673 302.501 154.001 308.497 158.851C310.049 160.121 311.6 161.392 313.151 162.663C328.982 175.646 344.212 188.188 355.458 178.062C366.704 167.936 355.86 151.445 344.565 134.377C343.464 132.702 342.362 131.026 341.261 129.35C337.029 122.841 336.046 119.865 337.996 118.11C339.945 116.355 342.837 117.682 348.833 122.532C350.384 123.803 351.936 125.074 353.487 126.344C369.318 139.327 384.547 151.869 395.793 141.743C407.039 131.617 396.196 115.126 384.901 98.0591C383.799 96.3834 382.698 94.7076 381.596 93.0319C377.365 86.5229 376.382 83.5468 378.331 81.7916C378.594 81.5553 378.891 81.3578 379.186 81.2329C384.432 84.7224 389.36 88.9897 393.793 93.9132L393.834 93.807Z" fill="#FDD84C"/>
</g>
<path d="M346.445 156.525C342.249 157.417 339.571 161.542 340.463 165.738L355.658 162.508C354.766 158.312 350.642 155.633 346.445 156.525Z" fill="#FFFF71"/>
</g>
<path d="M345.067 53.9418L351.906 52.4882L352.079 53.3005L347.538 58.1358L347.552 58.2019L352.88 57.0695L353.06 57.9196L346.222 59.3733L346.047 58.5515L350.597 53.7142L350.583 53.6481L345.246 54.7825L345.067 53.9418Z" fill="black"/>
<path d="M351.14 65.6969C353.303 65.2371 354.925 66.2252 355.296 67.9727C355.669 69.7296 354.588 71.2825 352.425 71.7423C350.262 72.2021 348.642 71.2234 348.268 69.4665C347.897 67.719 348.977 66.1567 351.14 65.6969ZM351.314 66.5187C349.548 66.8941 348.799 68.0604 349.062 69.2978C349.325 70.5353 350.484 71.296 352.25 70.9205C354.016 70.545 354.766 69.3788 354.503 68.1414C354.24 66.9039 353.081 66.1432 351.314 66.5187Z" fill="black"/>
<path d="M358.264 82.4016L351.425 83.8553L350.931 81.5316C350.59 79.9258 351.39 78.9956 352.608 78.7366C353.817 78.4796 354.945 79.0002 355.284 80.5965L355.599 82.0795L358.084 81.5515L358.264 82.4016ZM354.844 82.2402L354.536 80.7949C354.306 79.7087 353.599 79.4046 352.787 79.5773C351.965 79.752 351.462 80.313 351.695 81.4087L352 82.8445L354.844 82.2402Z" fill="black"/>
<path d="M353.161 92.0204L352.98 91.1702L357.505 90.2085C358.912 89.9093 360.165 90.739 360.508 92.3542C360.851 93.9695 360.045 95.2368 358.637 95.536L354.113 96.4977L353.932 95.6476L358.39 94.6999C359.382 94.4891 359.954 93.647 359.715 92.5229C359.474 91.3894 358.611 90.8619 357.619 91.0727L353.161 92.0204Z" fill="black"/>
<path d="M359.031 102.821C361.194 102.362 362.816 103.35 363.187 105.097C363.561 106.854 362.479 108.407 360.316 108.867C358.153 109.327 356.533 108.348 356.159 106.591C355.788 104.843 356.868 103.281 359.031 102.821ZM359.205 103.643C357.439 104.019 356.69 105.185 356.953 106.422C357.216 107.66 358.375 108.42 360.141 108.045C361.907 107.67 362.657 106.503 362.394 105.266C362.131 104.028 360.972 103.268 359.205 103.643Z" fill="black"/>
<path d="M360.661 116.715C359.759 117.114 359.421 118.035 359.612 118.933C359.875 120.17 361.034 120.931 362.8 120.555C364.567 120.18 365.316 119.013 365.053 117.776C364.862 116.879 364.181 116.184 363.202 116.175L363.021 115.325C364.471 115.273 365.551 116.219 365.846 117.607C366.22 119.364 365.138 120.917 362.975 121.377C360.812 121.837 359.192 120.858 358.818 119.101C358.525 117.722 359.118 116.421 360.48 115.865L360.661 116.715Z" fill="black"/>
<path d="M310.468 114.58L309.741 111.158L315.721 109.887L312.696 95.6539L317.658 94.5992L321.782 114.004L316.82 115.058L316.448 113.308L310.468 114.58ZM304.73 115.581L305.396 118.715L322.528 115.073L323.333 118.86L301.161 123.573L299.39 115.242L303.386 114.393L302.658 110.971L296.835 112.209L296.063 108.579L306.901 106.275C307.125 105.273 307.093 103.969 306.816 102.663L306.494 101.148L295.838 103.413L295.1 99.9399L310.221 96.7258L311.171 101.192C311.52 102.837 311.531 104.172 311.371 105.216C312.065 105.014 312.681 104.829 313.259 104.596L314.031 108.227C312.691 108.73 311.303 109.134 308.613 109.706L307.464 109.95L308.491 114.782L304.73 115.581Z" fill="black"/>
<path d="M284.893 111.636L285.226 113.203L294.707 111.188L295.506 114.948L271.479 120.055L270.68 116.295L280.16 114.28L279.827 112.713L271.339 114.517L269.324 105.037L291.079 100.413L291.845 104.017L274.974 107.603L275.457 109.875L292.458 106.261L293.224 109.865L284.893 111.636ZM290.738 121.284L273.58 124.932L272.82 121.354L294.94 116.652L296.616 124.539L291.654 125.594L290.738 121.284Z" fill="black"/>
<path d="M266.996 119.125L269.268 118.642L270.123 122.664L260.643 124.679L262.197 131.992L257.13 133.068L255.576 125.756L246.096 127.771L245.241 123.749L262.034 120.18C262.265 118.056 262.166 115.921 261.672 113.596L261.233 111.533L244.31 115.13L243.411 110.9L265.218 106.264L266.555 112.558C267.094 115.092 267.202 117.143 266.996 119.125Z" fill="black"/>
<path d="M223.975 129.552L223.47 127.176L230.626 125.655L228.072 113.641L233.034 112.586L236.215 127.551L231.253 128.606L231.131 128.031L223.975 129.552ZM222.726 122.393L216.041 123.814C213.298 124.397 211.429 123.566 210.958 121.346L210.941 121.268C210.469 119.048 211.838 117.529 214.581 116.946L221.266 115.525C224.009 114.942 225.878 115.773 226.349 117.993L226.366 118.071C226.838 120.291 225.469 121.81 222.726 122.393ZM215.7 120.284L215.705 120.31C215.827 120.884 216.323 121.161 217.08 121L220.658 120.24C221.416 120.079 221.73 119.63 221.607 119.055L221.602 119.029C221.474 118.428 221.01 118.172 220.253 118.333L216.675 119.094C215.918 119.255 215.572 119.683 215.7 120.284ZM222.346 130.363L217.671 131.356L216.894 127.7L211.906 128.76L211.301 125.914L223.079 123.41C225.769 122.838 227.157 122.434 228.497 121.931L229.102 124.778C227.762 125.281 226.374 125.685 223.684 126.257L221.569 126.706L222.346 130.363ZM220.709 137.043L220.886 137.879L238.045 134.232L238.605 136.87L216.328 141.605L215.135 135.99L232.084 132.387L231.912 131.577L214.963 135.18L214.413 132.595L236.272 127.948L237.449 133.485L220.709 137.043Z" fill="black"/>
<path d="M205.271 128.369L203.262 118.915L207.571 117.999L212.75 142.365L208.441 143.281L206.137 132.443L204.57 132.776L206.874 143.614L202.565 144.53L197.386 120.164L201.695 119.248L203.704 128.702L205.271 128.369ZM192.105 126.527L184.95 128.048L184.061 123.869L195.735 121.388L197.434 129.38C199.238 137.867 195.759 144.23 188.821 146.906L187.861 142.387C191.894 140.302 194.187 136.321 192.921 130.366L192.105 126.527Z" fill="black"/>
<path d="M186.128 147.424L181.166 148.478L177.807 132.678L174.177 133.45L173.35 129.558C175.913 128.904 177.172 127.763 177.133 125.397L181.259 124.52L186.128 147.424Z" fill="black"/>
<g clip-path="url(#clip1_456_1782)">
<rect width="88.6609" height="13.5154" transform="translate(195.486 90.7168) rotate(-12)" fill="#FFFF71"/>
<path d="M210.304 94.4586C211.078 98.1014 208.703 101.691 204.997 102.479C202.477 103.014 199.989 102.113 198.413 100.335C199.577 99.909 199.491 98.2396 199.402 96.5153C199.393 96.3345 199.382 96.158 199.374 95.9772C199.345 95.2867 199.407 95.009 199.647 94.9581C199.886 94.9073 200.056 95.1357 200.31 95.7783C200.375 95.9432 200.441 96.1117 200.504 96.281C201.162 97.9852 201.792 99.6319 203.185 99.3359C204.577 99.0399 204.487 97.2784 204.391 95.4547C204.383 95.2739 204.372 95.0974 204.364 94.9166C204.335 94.2262 204.397 93.9484 204.636 93.8976C204.876 93.8467 205.045 94.0751 205.299 94.7177C205.365 94.8826 205.431 95.0511 205.494 95.2204C206.151 96.9246 206.782 98.5713 208.174 98.2753C209.567 97.9794 209.477 96.2178 209.381 94.3941C209.373 94.2133 209.362 94.0368 209.354 93.856C209.324 93.1656 209.387 92.8879 209.626 92.837C209.702 92.8208 209.729 92.8411 209.762 92.9086C209.998 93.3913 210.179 93.9077 210.296 94.4566L210.304 94.4586Z" fill="#A452F7"/>
<path d="M196.888 97.3108C196.939 97.5496 197.03 97.9251 197.161 98.2549C197.411 98.8797 197.627 99.2362 197.935 99.1707C198.243 99.1051 198.273 98.6405 198.21 97.7711C198.202 97.6089 198.189 97.4403 198.177 97.2603C198.131 96.6144 198.077 95.8808 198.153 95.2016C198.256 94.349 198.56 93.5876 199.325 93.425C200.09 93.2624 200.678 93.8341 201.119 94.5711C201.46 95.1616 201.713 95.8494 201.934 96.4617C201.996 96.6274 202.053 96.7903 202.112 96.9418C202.412 97.7646 202.624 98.1741 202.932 98.1085C203.24 98.043 203.27 97.5784 203.207 96.709C203.199 96.5468 203.185 96.3746 203.174 96.1981C203.128 95.5523 203.074 94.8187 203.15 94.1395C203.253 93.2869 203.557 92.5255 204.322 92.3629C205.087 92.2003 205.675 92.772 206.116 93.509C206.457 94.0995 206.71 94.7872 206.931 95.3996C206.992 95.5653 207.05 95.7282 207.109 95.8797C207.409 96.7025 207.621 97.1119 207.929 97.0464C208.237 96.9809 208.267 96.5163 208.204 95.6469C208.196 95.4847 208.182 95.3125 208.171 95.136C208.125 94.4902 208.071 93.7565 208.146 93.0774C208.224 92.424 208.422 91.823 208.855 91.5074C207.273 89.6829 204.751 88.7475 202.195 89.2909C198.489 90.0786 196.114 93.668 196.888 97.3108Z" fill="#A452F7"/>
<path d="M223.728 84.7737L222.277 85.082L223.674 91.6511L225.124 91.3428L223.728 84.7737Z" fill="#A452F7"/>
<path d="M237.476 81.8519L236.025 82.1602L238.824 95.3267L240.274 95.0184L237.476 81.8519Z" fill="#A452F7"/>
<path d="M232.906 83.1854L226.23 84.6044L226.502 85.884L231.724 84.7741L232.567 88.7376L227.345 89.8475L228.818 96.7765L236.589 95.1247L236.316 93.8416L229.999 95.1843L229.071 90.818L234.293 89.7081L232.906 83.1854Z" fill="#A452F7"/>
<path fill-rule="evenodd" clip-rule="evenodd" d="M245.917 82.1931C246.46 82.5696 246.802 83.0928 246.943 83.7558C247.084 84.4188 246.986 85.0468 246.645 85.6149C246.301 86.1723 245.747 86.5283 244.986 86.6902C244.224 86.852 243.555 86.7522 243.015 86.3864C242.483 86.0076 242.144 85.48 242.001 84.8064C241.857 84.1327 241.957 83.5304 242.287 82.9647C242.63 82.4001 243.188 82.0318 243.961 81.8677C244.733 81.7035 245.374 81.8131 245.917 82.1931ZM248.417 84.9848C248.517 84.4905 248.51 83.9778 248.397 83.4467C248.284 82.9157 248.085 82.4588 247.793 82.0478C247.512 81.6344 247.161 81.3065 246.742 81.0605C246.33 80.8015 245.866 80.6319 245.341 80.5534C244.818 80.4635 244.265 80.4841 243.689 80.6067C243.112 80.7292 242.585 80.9418 242.143 81.2333C241.707 81.516 241.351 81.8597 241.07 82.266C240.798 82.6592 240.612 83.1048 240.511 83.5955C240.423 84.0875 240.431 84.5923 240.543 85.1162C240.654 85.6402 240.855 86.1191 241.136 86.5325C241.428 86.9435 241.778 87.2714 242.187 87.5198C242.609 87.7765 243.073 87.946 243.587 88.0268C244.108 88.1061 244.664 88.0811 245.251 87.9563C245.839 87.8314 246.338 87.6321 246.785 87.347C247.229 87.0627 247.588 86.7182 247.858 86.3143C248.142 85.9187 248.324 85.474 248.417 84.9848Z" fill="#A452F7"/>
<path d="M251.226 78.928L249.775 79.2363L252.574 92.4029L254.024 92.0946L251.226 78.928Z" fill="#A452F7"/>
<path d="M251.181 90.6805L241.633 92.71L241.905 93.9895L251.452 91.9601L251.181 90.6805Z" fill="#A452F7"/>
<path d="M279.039 73.0759L280.153 78.319L281.897 77.9482L280.771 72.6481L282.225 72.339L285.023 85.502L283.569 85.8111L282.169 79.2278L280.425 79.5986L281.793 86.0321L280.342 86.3404L277.588 73.3842L279.039 73.0759Z" fill="#A452F7"/>
<path d="M214.355 94.2422L214.618 95.479L224.057 93.4727L224.294 94.5848L214.855 96.5911L215.617 100.177L226.876 97.7835L226.61 96.5325L216.801 98.6174L216.565 97.5053L226.004 95.499L225.245 91.9276L214.355 94.2422Z" fill="#A452F7"/>
<path fill-rule="evenodd" clip-rule="evenodd" d="M218.123 87.6504L214.2 88.4844L214.866 91.6174L218.789 90.7834L218.123 87.6504ZM212.48 87.5273L213.684 93.191L220.512 91.7397L219.309 86.076L212.48 87.5273Z" fill="#A452F7"/>
<path d="M263.843 81.7561L268.137 80.8435L267.016 75.5719L268.47 75.2628L271.268 88.4258L269.814 88.7349L268.406 82.1089L264.112 83.0214L263.843 81.7561Z" fill="#A452F7"/>
<path d="M272.987 76.0024L271.167 76.3893L270.895 75.1097L276.704 73.875L276.976 75.1546L274.412 75.6995C274.49 76.1339 274.562 76.5654 274.602 76.8774C274.695 77.5618 274.764 78.2251 274.816 78.8623C275.409 80.029 276.129 81.1165 276.982 82.1347C277.732 83.0257 278.55 83.7906 279.436 84.4293L278.646 85.6515C277.982 85.1667 277.348 84.605 276.741 83.9628C276.045 83.2204 275.43 82.446 274.892 81.6475C274.86 82.567 274.783 83.485 274.656 84.406C274.512 85.4574 274.299 86.3296 273.793 87.5846L272.388 87.0712C273.139 85.1831 273.443 83.0321 273.419 81.0293C273.46 79.5453 273.284 77.6642 272.987 75.9988L272.987 76.0024Z" fill="#A452F7"/>
<path d="M261.085 79.5865C260.993 78.9021 260.753 77.612 260.648 77.0643L259.197 77.3726C259.654 79.2909 259.953 81.8388 259.907 83.7412C259.931 85.7441 259.625 87.8915 258.875 89.7832L260.281 90.2966C260.783 89.0423 260.995 88.1665 261.144 87.118C261.271 86.2006 261.351 85.2782 261.38 84.3594C261.917 85.1579 262.532 85.9288 263.229 86.6748C263.923 87.4101 264.656 88.0403 265.424 88.57L266.033 88.9919L266.861 87.7505L266.271 87.3841C265.254 86.6988 264.319 85.8506 263.473 84.8459C262.62 83.8312 261.9 82.7402 261.307 81.5735C261.258 80.932 261.186 80.273 261.093 79.5885L261.085 79.5865Z" fill="#A452F7"/>
</g>
<g filter="url(#filter1_d_456_1782)">
<rect width="65.7642" height="65.7642" rx="20" transform="matrix(0.984808 0.173648 -0.173998 0.984746 92.9844 92.7646)" fill="url(#paint1_linear_456_1782)"/>
<rect width="59.9615" height="59.9615" rx="20" transform="matrix(0.984808 0.173648 -0.173998 0.984746 92.9844 92.7646)" fill="url(#paint2_linear_456_1782)"/>
<path fill-rule="evenodd" clip-rule="evenodd" d="M131.357 118.764C131.357 118.769 131.357 118.774 131.359 118.779C132.108 120.388 131.774 122.279 131.11 126.04L129.523 135.021C128.855 138.803 128.523 140.678 127.263 141.934C126.004 143.19 124.109 143.501 120.332 144.14L118.743 144.41C111.595 145.618 108.03 146.216 105.972 144.155C103.932 142.082 104.56 138.529 105.821 131.392L107.597 121.343C108.858 114.207 109.485 110.654 112.112 109.403C114.737 108.168 117.897 109.952 124.202 113.516L125.602 114.313C128.927 116.203 130.601 117.143 131.356 118.749C131.358 118.754 131.358 118.759 131.357 118.764ZM129.477 123.708C129.479 123.699 129.473 123.691 129.465 123.69L128.092 123.448C127.326 123.313 126.814 122.582 126.95 121.815L127.087 121.038C127.29 119.892 126.525 118.8 125.38 118.598C124.937 118.52 124.683 118.711 124.605 119.154L123.207 127.068C123.005 128.213 123.769 129.305 124.915 129.507C125.357 129.585 125.611 129.394 125.689 128.952L125.899 127.763C126.106 126.592 127.223 125.81 128.393 126.017C128.836 126.095 129.09 125.904 129.168 125.461L129.477 123.708ZM120.906 119.885C120.155 118.888 118.934 118.232 117.226 117.931C115.518 117.63 114.146 117.828 113.08 118.521C112.032 119.201 111.367 120.294 111.101 121.804C110.834 123.314 111.079 124.599 111.828 125.611C112.597 126.596 113.836 127.239 115.529 127.538C117.221 127.836 118.606 127.656 119.651 126.991C120.714 126.314 121.382 125.205 121.654 123.665C121.926 122.125 121.673 120.885 120.906 119.885ZM114.811 120.477C115.331 120.113 115.979 120.007 116.802 120.152L116.894 120.168C117.702 120.311 118.289 120.634 118.654 121.155C119.02 121.659 119.121 122.338 118.97 123.191C118.819 124.045 118.49 124.663 117.972 125.012C117.454 125.361 116.809 125.452 115.986 125.307L115.894 125.291C115.086 125.148 114.498 124.825 114.129 124.335C113.765 123.815 113.664 123.137 113.815 122.283C113.966 121.429 114.293 120.826 114.811 120.477ZM125.05 130.922C125.045 130.926 125.038 130.925 125.034 130.92C124.882 130.709 124.595 130.567 124.159 130.49L114.445 128.777C113.552 128.62 112.7 129.216 112.543 130.109C112.462 130.566 112.637 130.817 113.08 130.895L121.94 132.458C122.154 132.495 122.241 132.621 122.201 132.85C122.1 133.422 121.554 133.805 120.981 133.704L113.462 132.378C113.02 132.3 112.699 132.338 112.481 132.504C112.266 132.654 112.118 132.958 112.039 133.401L111.441 136.786C111.361 137.243 111.398 137.564 111.549 137.78C111.697 138.01 111.986 138.155 112.428 138.233L121.471 139.828C122.203 139.957 122.77 140.041 123.175 140.066C123.579 140.09 123.87 140.047 124.062 139.939C124.269 139.834 124.396 139.652 124.439 139.408C124.583 138.591 123.769 137.781 122.944 137.697C122.652 137.667 122.336 137.622 121.997 137.562L114.693 136.274C114.479 136.237 114.391 136.111 114.432 135.882C114.531 135.318 115.07 134.941 115.634 135.041L123.137 136.364C123.579 136.442 123.9 136.404 124.118 136.238C124.349 136.09 124.497 135.786 124.575 135.344L125.181 131.913C125.261 131.461 125.226 131.143 125.065 130.925C125.062 130.92 125.055 130.919 125.05 130.922Z" fill="white"/>
</g>
<path d="M474.843 28.5206L472.637 21.9594L478.568 20.1647L480.842 26.4018L474.843 28.5206Z" fill="#6BA6EB"/>
<path d="M423.476 12.7507L424.467 3.01758L414.256 5.17501L413.994 14.7541L423.476 12.7507Z" fill="#FF77FA"/>
<path d="M397.229 46.8265L399.854 39.4148L392.961 37.4427L390.259 44.4896L397.229 46.8265Z" fill="#A153F9"/>
<path d="M404.905 87.5105L401.88 91.4222C402.287 89.0415 405.381 83.6334 406.911 82.9529C408.135 82.4084 412.296 83.2463 414.223 83.7333C431.364 86.0079 433.132 83.3888 434.39 82.0961C434.114 68.2887 423.672 60.4692 423.094 59.9932C422.515 59.5172 423.501 57.6125 424.317 56.1499C425.133 54.6874 427.105 54.1768 428.296 54.3805C429.248 54.5436 446.944 55.3737 455.673 55.7684C452.478 63.4211 441.696 59.7848 431.766 60.5353C443.095 78.5912 433.2 85.1912 427.657 88.3893C423.223 90.9478 410.642 88.8695 404.905 87.5105Z" fill="url(#paint3_linear_456_1782)"/>
<path d="M438.155 137.401L444.019 132.697L429.751 127.344L426.25 130.608C431.278 134.121 433.855 135.365 438.155 137.401Z" fill="#A6DEF6"/>
<path d="M440.134 120.875L443.488 124.693C440.208 126.657 436.841 130.511 435.475 132.057C434.916 131.602 433.611 129.602 432.307 128.239C434.543 125.511 437.96 122.693 440.134 120.875Z" fill="#FF99B5"/>
<path d="M53.4039 53.2042L50.373 49.8693C46.192 60.3172 46.9163 64.0475 47.0623 66.1638C47.2083 68.2801 50.7526 72.2884 52.9244 73.3199C54.6619 74.1451 61.1505 71.8861 64.1776 70.6535C62.6309 73.0441 60.4645 79.0844 64.1731 84.121C67.8816 89.1575 75.1836 88.0867 78.371 86.9217L75.3724 84.0571C72.4065 85.0493 66.2067 86.5323 65.1347 84.5272C63.7948 82.0207 67.6895 74.1915 68.7374 72.4653C69.7854 70.7391 70.2012 70.0016 69.8878 68.8419C69.6371 67.9142 67.6024 66.1644 66.1437 65.32C60.4496 67.3667 54.4531 71.7969 50.4066 70.6584C49.6552 63.1497 52.2229 58.6411 53.4039 53.2042Z" fill="url(#paint4_linear_456_1782)"/>
<path d="M22.2641 162.824L20.6055 153.182L30.9405 154.631L31.8609 164.17L22.2641 162.824Z" fill="#FFA666"/>
<path d="M53.8343 141.659L50.7059 134.445L57.4467 132.003L60.6268 138.848L53.8343 141.659Z" fill="#6BA6EB"/>
<path d="M87.1098 33.8977L91.4883 32.6668C91.331 36.9626 89.2087 46.0147 81.9775 47.8566C86.726 41.8326 86.5067 38.7444 87.1098 33.8977Z" fill="#A153F9"/>
<path d="M178.066 192.349L170.696 196.583C176.818 200.153 182.753 206.307 185.166 208.779C186.36 208.319 189.324 205.976 192.167 204.493C188.257 200.18 182.026 195.415 178.066 192.349Z" fill="#FF99B5"/>
<path d="M7.64584 96.0937L6.44896 104.033L19.531 102.984L19.9694 97.749C14.3751 96.3494 11.8442 96.2372 7.64584 96.0937Z" fill="#A6DEF6"/>
</g>
<defs>
<filter id="filter0_f_456_1782" x="141.067" y="98.6179" width="330.95" height="127.183" filterUnits="userSpaceOnUse" color-interpolation-filters="sRGB">
<feFlood flood-opacity="0" result="BackgroundImageFix"/>
<feBlend mode="normal" in="SourceGraphic" in2="BackgroundImageFix" result="shape"/>
<feGaussianBlur stdDeviation="3.55642" result="effect1_foregroundBlur_456_1782"/>
</filter>
<filter id="filter1_d_456_1782" x="64.7129" y="85.9304" width="129.865" height="129.849" filterUnits="userSpaceOnUse" color-interpolation-filters="sRGB">
<feFlood flood-opacity="0" result="BackgroundImageFix"/>
<feColorMatrix in="SourceAlpha" type="matrix" values="0 0 0 0 0 0 0 0 0 0 0 0 0 0 0 0 0 0 127 0" result="hardAlpha"/>
<feOffset dx="10" dy="20"/>
<feGaussianBlur stdDeviation="15"/>
<feComposite in2="hardAlpha" operator="out"/>
<feColorMatrix type="matrix" values="0 0 0 0 0.188235 0 0 0 0 0 0 0 0 0 0.376471 0 0 0 0.2 0"/>
<feBlend mode="normal" in2="BackgroundImageFix" result="effect1_dropShadow_456_1782"/>
<feBlend mode="normal" in="SourceGraphic" in2="effect1_dropShadow_456_1782" result="shape"/>
</filter>
<linearGradient id="paint0_linear_456_1782" x1="441.853" y1="142.233" x2="189.013" y2="246.859" gradientUnits="userSpaceOnUse">
<stop stop-color="white" stop-opacity="0"/>
<stop offset="0.664435" stop-color="#563400"/>
</linearGradient>
<linearGradient id="paint1_linear_456_1782" x1="0.501206" y1="13.4407" x2="63.5179" y2="61.104" gradientUnits="userSpaceOnUse">
<stop offset="0.4" stop-color="#07BFE0"/>
<stop offset="1" stop-color="#287EAE"/>
</linearGradient>
<linearGradient id="paint2_linear_456_1782" x1="0.894846" y1="21.8687" x2="57.9134" y2="55.7125" gradientUnits="userSpaceOnUse">
<stop stop-color="#70E9FF"/>
<stop offset="0.265585" stop-color="#07BFE0"/>
<stop offset="1" stop-color="#18B1CD"/>
</linearGradient>
<linearGradient id="paint3_linear_456_1782" x1="455.147" y1="57.9089" x2="403.23" y2="91.7385" gradientUnits="userSpaceOnUse">
<stop stop-color="#FFD953"/>
<stop offset="0.299864" stop-color="#FFDD7B"/>
<stop offset="0.44361" stop-color="#FF8A00"/>
<stop offset="0.585086" stop-color="#FFE27B"/>
<stop offset="0.81388" stop-color="#FFD67B"/>
<stop offset="1" stop-color="#FF8A00"/>
</linearGradient>
<linearGradient id="paint4_linear_456_1782" x1="46.2807" y1="55.0085" x2="76.3363" y2="89.9222" gradientUnits="userSpaceOnUse">
<stop stop-color="#FFE27B"/>
<stop offset="0.25" stop-color="#FF8A00"/>
<stop offset="0.5" stop-color="#FFE27B"/>
<stop offset="0.545" stop-color="#FF8A00"/>
<stop offset="0.75" stop-color="#FFE27B"/>
<stop offset="1" stop-color="#FF8A00"/>
</linearGradient>
<clipPath id="clip0_456_1782">
<rect width="488" height="230" fill="white"/>
</clipPath>
<clipPath id="clip1_456_1782">
<rect width="88.6609" height="13.5154" fill="white" transform="translate(195.486 90.7168) rotate(-12)"/>
</clipPath>
</defs>
</svg>
