<svg width="139" height="86" viewBox="0 0 139 86" fill="none" xmlns="http://www.w3.org/2000/svg">
<g opacity="0.2" filter="url(#filter0_f_449_1443)">
<circle cx="69.8357" cy="16.9567" r="49.7002" transform="rotate(-33.8362 69.8357 16.9567)" fill="url(#paint0_linear_449_1443)"/>
<ellipse opacity="0.6" cx="8.16843" cy="9.28027" rx="8.16843" ry="9.28027" transform="matrix(0.965579 -0.260109 0.369925 0.929062 32.0117 30.6205)" fill="url(#paint1_linear_449_1443)"/>
<g opacity="0.5">
<mask id="mask0_449_1443" style="mask-type:alpha" maskUnits="userSpaceOnUse" x="34" y="28" width="18" height="18">
<ellipse cx="43.3327" cy="37.1177" rx="7.95955" ry="9.46003" transform="rotate(-39.6447 43.3327 37.1177)" fill="url(#paint2_linear_449_1443)"/>
</mask>
<g mask="url(#mask0_449_1443)">
<g opacity="0.3" filter="url(#filter1_f_449_1443)">
<path fill-rule="evenodd" clip-rule="evenodd" d="M42.3543 45.2286C45.7392 42.4239 45.781 36.8889 42.4475 32.8658C41.1097 31.2512 39.4315 30.1255 37.6829 29.5377C41.084 27.1058 46.2536 28.165 49.4638 32.0393C52.7972 36.0624 52.7555 41.5974 49.3706 44.4021C47.3441 46.0812 44.5789 46.4011 41.9705 45.5242C42.1011 45.4308 42.2291 45.3323 42.3543 45.2286Z" fill="white"/>
</g>
</g>
</g>
</g>
<defs>
<filter id="filter0_f_449_1443" x="14.1309" y="-38.7488" width="111.41" height="111.411" filterUnits="userSpaceOnUse" color-interpolation-filters="sRGB">
<feFlood flood-opacity="0" result="BackgroundImageFix"/>
<feBlend mode="normal" in="SourceGraphic" in2="BackgroundImageFix" result="shape"/>
<feGaussianBlur stdDeviation="3" result="effect1_foregroundBlur_449_1443"/>
</filter>
<filter id="filter1_f_449_1443" x="17.6836" y="8.23706" width="54.2539" height="57.7614" filterUnits="userSpaceOnUse" color-interpolation-filters="sRGB">
<feFlood flood-opacity="0" result="BackgroundImageFix"/>
<feBlend mode="normal" in="SourceGraphic" in2="BackgroundImageFix" result="shape"/>
<feGaussianBlur stdDeviation="10" result="effect1_foregroundBlur_449_1443"/>
</filter>
<linearGradient id="paint0_linear_449_1443" x1="-13.8753" y1="77.5889" x2="74.3907" y2="11.3894" gradientUnits="userSpaceOnUse">
<stop stop-color="#B8B0FF"/>
<stop offset="1" stop-color="#867AFF"/>
</linearGradient>
<linearGradient id="paint1_linear_449_1443" x1="19.0298" y1="18.5605" x2="0" y2="18.5605" gradientUnits="userSpaceOnUse">
<stop stop-color="#968EFC"/>
<stop offset="1" stop-color="#553DF2"/>
</linearGradient>
<linearGradient id="paint2_linear_449_1443" x1="53.9163" y1="46.5778" x2="35.3731" y2="46.5778" gradientUnits="userSpaceOnUse">
<stop stop-color="#968EFC"/>
<stop offset="1" stop-color="#553DF2"/>
</linearGradient>
</defs>
</svg>
