<svg width="108" height="186" viewBox="0 0 108 186" fill="none" xmlns="http://www.w3.org/2000/svg">
<g clip-path="url(#clip0_448_4318)">
<path fill-rule="evenodd" clip-rule="evenodd" d="M-29.76 137.066C-12.5348 131.397 9.14908 119.905 30.9912 103.778C52.8333 87.6514 70.1998 70.3116 80.688 55.5184C85.9567 48.0872 89.2348 41.6539 90.6508 36.6035C92.0994 31.4365 91.2782 29.0535 90.5464 28.0624C89.8147 27.0713 87.779 25.585 82.4146 25.4484C77.1711 25.3148 70.0579 26.5538 61.4049 29.4013C44.1797 35.0698 22.4958 46.5622 0.653732 62.6889C-21.1884 78.8156 -38.5549 96.1554 -49.0431 110.949C-54.3118 118.38 -57.5898 124.813 -59.0058 129.864C-60.4545 135.031 -59.6333 137.414 -58.9015 138.405C-58.1698 139.396 -56.1341 140.882 -50.7697 141.019C-45.5262 141.152 -38.413 139.913 -29.76 137.066ZM-64.952 142.872C-54.1074 157.56 -9.15203 142.766 35.4585 109.829C80.069 76.8913 107.442 38.2832 96.597 23.5951C85.7523 8.90704 40.797 23.701 -3.81356 56.6384C-48.4241 89.5758 -75.7967 128.184 -64.952 142.872Z" fill="#44358F"/>
<circle cx="-17.7647" cy="97.22" r="84.2353" fill="#473893"/>
<g opacity="0.4">
<path fill-rule="evenodd" clip-rule="evenodd" d="M-29.76 137.066C-12.5348 131.397 9.14908 119.905 30.9912 103.778C52.8333 87.6514 70.1998 70.3116 80.688 55.5184C85.9567 48.0872 89.2348 41.6539 90.6508 36.6035C92.0994 31.4365 91.2782 29.0535 90.5464 28.0624C89.8147 27.0713 87.779 25.585 82.4146 25.4484C77.1711 25.3148 70.0579 26.5538 61.4049 29.4013C44.1797 35.0698 22.4958 46.5622 0.653732 62.6889C-21.1884 78.8156 -38.5549 96.1554 -49.0431 110.949C-54.3118 118.38 -57.5898 124.813 -59.0058 129.864C-60.4545 135.031 -59.6333 137.414 -58.9015 138.405C-58.1698 139.396 -56.1341 140.882 -50.7697 141.019C-45.5262 141.152 -38.413 139.913 -29.76 137.066ZM-64.952 142.872C-54.1074 157.56 -9.15203 142.766 35.4585 109.829C80.069 76.8913 107.442 38.2832 96.597 23.5951C85.7523 8.90704 40.797 23.701 -3.81356 56.6384C-48.4241 89.5758 -75.7967 128.184 -64.952 142.872Z" fill="#8EEFFF"/>
<circle cx="-17.7647" cy="97.22" r="84.2353" fill="url(#paint0_linear_448_4318)"/>
<mask id="mask0_448_4318" style="mask-type:alpha" maskUnits="userSpaceOnUse" x="-45" y="19" width="93" height="56">
<rect x="-44.0859" y="19.0016" width="91.3803" height="55.6555" fill="#D9D9D9"/>
</mask>
<g mask="url(#mask0_448_4318)">
<path fill-rule="evenodd" clip-rule="evenodd" d="M35.6846 32.1078C23.1176 38.4288 9.63808 46.7092 -3.81013 56.6385C-48.4206 89.5758 -75.7933 128.184 -64.9486 142.872C-54.1039 157.56 -9.1486 142.766 35.4619 109.829C46.676 101.549 56.8008 92.9109 65.5031 84.3846C65.0461 81.3953 64.4319 78.4577 63.6693 75.5806C54.547 84.9067 43.5049 94.5414 30.9946 103.778C9.15252 119.905 -12.5313 131.397 -29.7565 137.066C-38.4095 139.913 -45.5227 141.152 -50.7662 141.019C-56.1307 140.882 -58.1663 139.396 -58.8981 138.405C-59.6298 137.414 -60.451 135.031 -59.0024 129.864C-57.5864 124.813 -54.3083 118.38 -49.0396 110.949C-38.5515 96.1555 -21.1849 78.8157 0.657166 62.689C14.7855 52.2576 28.8475 43.7652 41.6796 37.5338C39.7696 35.6317 37.769 33.8207 35.6846 32.1078Z" fill="#8EEFFF"/>
</g>
<g opacity="0.8">
<mask id="mask1_448_4318" style="mask-type:alpha" maskUnits="userSpaceOnUse" x="-102" y="12" width="169" height="170">
<circle cx="-17.7647" cy="97.22" r="84.2353" fill="url(#paint1_linear_448_4318)"/>
</mask>
<g mask="url(#mask1_448_4318)">
<g filter="url(#filter0_f_448_4318)">
<path d="M100.723 92.1143C105.457 119.223 68.7985 203.627 34.5296 209.613C0.260786 215.598 -31.1911 213.532 -35.9256 186.424C-40.66 159.316 -23.1288 133.688 11.1401 127.703C45.4089 121.718 95.9883 65.0061 100.723 92.1143Z" fill="#0C67AA"/>
</g>
</g>
</g>
</g>
</g>
<defs>
<filter id="filter0_f_448_4318" x="-116.688" y="4.81732" width="297.824" height="287.557" filterUnits="userSpaceOnUse" color-interpolation-filters="sRGB">
<feFlood flood-opacity="0" result="BackgroundImageFix"/>
<feBlend mode="normal" in="SourceGraphic" in2="BackgroundImageFix" result="shape"/>
<feGaussianBlur stdDeviation="40" result="effect1_foregroundBlur_448_4318"/>
</filter>
<linearGradient id="paint0_linear_448_4318" x1="-58.7542" y1="19.7537" x2="47.292" y2="170.174" gradientUnits="userSpaceOnUse">
<stop stop-color="#60EFB3"/>
<stop offset="0.5" stop-color="#3ECBED"/>
<stop offset="1" stop-color="#0074C9"/>
</linearGradient>
<linearGradient id="paint1_linear_448_4318" x1="-58.7542" y1="19.7537" x2="47.292" y2="170.174" gradientUnits="userSpaceOnUse">
<stop stop-color="#60D3EF"/>
<stop offset="1" stop-color="#0074C9"/>
</linearGradient>
<clipPath id="clip0_448_4318">
<rect width="108" height="186" fill="white"/>
</clipPath>
</defs>
</svg>
