<svg width="72" height="135" viewBox="0 0 72 135" fill="none" xmlns="http://www.w3.org/2000/svg">
<circle cx="65.5" cy="65.5" r="63.5" fill="#41328C"/>
<g opacity="0.4">
<mask id="mask0_448_4311" style="mask-type:alpha" maskUnits="userSpaceOnUse" x="2" y="2" width="127" height="127">
<circle cx="65.5" cy="65.5" r="63.5" fill="url(#paint0_linear_448_4311)"/>
</mask>
<g mask="url(#mask0_448_4311)">
<circle cx="65.5" cy="65.5" r="63.5" fill="url(#paint1_linear_448_4311)"/>
<g opacity="0.1">
<path d="M90.7916 35.0212C81.7384 32.4044 73.4848 27.5546 66.7846 20.9138C60.0843 14.2729 55.1515 6.05298 52.437 -2.99353C54.8955 -3.52925 57.3834 -3.92017 59.8873 -4.16507C63.1806 8.51247 74.943 18.8578 88.1237 19.6912C96.4415 20.0553 104.567 17.1092 110.73 11.4942C112.11 12.6554 113.469 13.8566 114.779 15.1498C119.808 20.1073 124.038 25.8183 127.318 32.0784C115.818 37.1482 102.95 38.1846 90.7916 35.0212Z" fill="white"/>
<path d="M71.5857 77.4836C46.1854 66.4412 25.2786 47.0807 12.2859 22.5687C14.0354 20.2577 15.9272 18.0577 17.9502 15.9832C18.0202 15.9119 18.0701 15.861 18.1401 15.7897C29.0903 42.3426 53.5741 63.2173 81.8798 68.6686C99.9498 71.922 118.585 69.344 135.104 61.3054C135.46 69.8434 134.227 78.374 131.469 86.4604C111.071 88.5823 90.4701 85.4936 71.5857 77.4836Z" fill="white"/>
<path d="M-1.69877 64.2817C-1.72106 60.5877 -1.44279 56.8977 -0.866996 53.2489C6.10531 74.761 19.3726 93.6695 37.2094 107.516C52.1273 118.916 69.6632 126.375 88.2069 129.208C80.0035 131.935 71.36 133.081 62.7326 132.587C33.8838 118.163 11.0593 93.9663 -1.69877 64.2817Z" fill="white"/>
<path d="M6.57964 31.3979C8.25147 28.3114 10.1601 25.3602 12.2874 22.5697C25.28 47.0814 46.1867 66.4418 71.5867 77.4843C90.4681 85.4772 111.061 88.5515 131.448 86.4206C128.39 95.3269 123.529 103.504 117.17 110.439C71.3313 101.723 29.2632 72.379 6.57964 31.3979Z" fill="white"/>
</g>
</g>
</g>
<defs>
<linearGradient id="paint0_linear_448_4311" x1="129" y1="65.5" x2="2" y2="65.5" gradientUnits="userSpaceOnUse">
<stop stop-color="#9D6D97"/>
<stop offset="0.5" stop-color="#8F4088"/>
<stop offset="1" stop-color="#6C2383"/>
</linearGradient>
<linearGradient id="paint1_linear_448_4311" x1="129" y1="65.5" x2="2" y2="65.5" gradientUnits="userSpaceOnUse">
<stop stop-color="#9D6D97"/>
<stop offset="0.5" stop-color="#8F4088"/>
<stop offset="1" stop-color="#6C2383"/>
</linearGradient>
</defs>
</svg>
