<svg width="17" height="16" viewBox="0 0 17 16" fill="none" xmlns="http://www.w3.org/2000/svg">
<g clip-path="url(#clip0_6573_31855)">
<path d="M9.35697 13.8361C9.86981 14.2755 10.5182 14.5247 11.193 14.5417C11.8679 14.5586 12.5281 14.3424 13.0627 13.9292L13.528 13.5827C13.7331 13.4226 13.8676 13.1886 13.9026 12.9306C13.9376 12.6726 13.8704 12.4112 13.7153 12.2023L12.2063 10.2379C12.0481 10.0334 11.8159 9.89926 11.5598 9.86452C11.3037 9.82977 11.0442 9.89714 10.8372 10.0521C10.6285 10.2075 10.3674 10.2749 10.1098 10.24C9.85223 10.205 9.61857 10.0705 9.45885 9.86513L7.09261 6.75101C7.01349 6.64845 6.95553 6.53116 6.92209 6.40595C6.88866 6.28074 6.88041 6.15011 6.89784 6.02166C6.91527 5.89321 6.95802 5.7695 7.02361 5.65772C7.0892 5.54595 7.17633 5.44835 7.27991 5.37058C7.48423 5.21201 7.61822 4.97943 7.65302 4.72294C7.68782 4.46645 7.62065 4.20659 7.46597 3.9993L5.96737 2.02702C5.80762 1.82167 5.57399 1.68713 5.31641 1.65218C5.05874 1.61722 4.7977 1.68464 4.58901 1.84L4.13155 2.1969C3.5916 2.60286 3.20758 3.18261 3.04405 3.83863C2.88052 4.49466 2.94755 5.18698 3.23384 5.79917C4.74491 8.84449 6.82323 11.5723 9.35697 13.8361Z" fill="#333333" stroke="#333333" stroke-linecap="round" stroke-linejoin="round"/>
</g>
<defs>
<clipPath id="clip0_6573_31855">
<rect width="16" height="16" fill="white" transform="translate(0.25)"/>
</clipPath>
</defs>
</svg>
