<svg width="17" height="16" viewBox="0 0 17 16" fill="none" xmlns="http://www.w3.org/2000/svg">
<path d="M9.39667 2.22755C9.21601 2.08064 8.98685 2 8.75 2C8.51315 2 8.28399 2.08064 8.10333 2.22755L3.10333 6.29643C2.99262 6.38646 2.90366 6.49853 2.84265 6.62486C2.78163 6.75119 2.75002 6.88874 2.75 7.02797V13.0408C2.75 13.2952 2.85536 13.5392 3.04289 13.7191C3.23043 13.8989 3.48478 14 3.75 14H6.91667C7.04927 14 7.17645 13.9495 7.27022 13.8595C7.36399 13.7696 7.41667 13.6476 7.41667 13.5204V9.52378H10.0833V13.5204C10.0833 13.7851 10.3073 14 10.5833 14H13.75C14.0152 14 14.2696 13.8989 14.4571 13.7191C14.6446 13.5392 14.75 13.2952 14.75 13.0408V7.02797C14.75 6.88874 14.7184 6.75119 14.6574 6.62486C14.5963 6.49853 14.5074 6.38646 14.3967 6.29643L9.39667 2.22755Z" fill="#333333"/>
</svg>
