<svg width="24" height="24" viewBox="0 0 24 24" fill="none" xmlns="http://www.w3.org/2000/svg">
<rect width="24" height="24" rx="4" fill="#913CFF" fill-opacity="0.12"/>
<path d="M18.9916 13.2988C18.9499 12.6828 18.7532 12.0622 18.4068 11.4532C18.4012 11.4299 18.3922 11.4068 18.3794 11.3851L16.1744 7.62436C15.8008 6.9873 14.9866 6.77774 14.3595 7.15711C14.084 7.32369 13.8898 7.57665 13.7902 7.86196C13.3979 7.28636 12.6255 7.10927 12.0248 7.47274C11.752 7.63784 11.551 7.89107 11.4499 8.19309C11.2721 7.97449 11.0317 7.8191 10.7562 7.74821C10.4134 7.65994 10.0573 7.71264 9.75349 7.89646C9.4794 8.06236 9.2857 8.31371 9.18567 8.5974L7.46099 5.65632C7.08739 5.01926 6.27334 4.8097 5.64609 5.18907C5.01896 5.56858 4.81266 6.39567 5.18612 7.03272L9.35615 14.1445L8.44644 13.4999C8.4414 13.4964 8.43636 13.493 8.43106 13.4899C7.80247 13.1129 6.98908 13.3254 6.61788 13.9639C6.24906 14.5983 6.45324 15.4181 7.0724 15.7985L10.2787 18.247C10.9308 18.7476 11.6975 19 12.5626 19C12.7015 19 12.8431 18.9935 12.987 18.9805C13.9166 18.8962 14.9453 18.5267 15.9617 17.9116C17.2763 17.1162 18.2139 16.1375 18.6732 15.0813C18.9252 14.5017 19.0323 13.9019 18.9916 13.299V13.2988Z" fill="#A665FB"/>
</svg>
