<svg width="24" height="24" viewBox="0 0 24 24" fill="none" xmlns="http://www.w3.org/2000/svg">
<rect width="24" height="24" rx="4" fill="#07BFE0" fill-opacity="0.16"/>
<path fill-rule="evenodd" clip-rule="evenodd" d="M16.5736 6.89235C17 7.52452 17 8.35844 17 10.0196V13.9807C17 15.6485 17 16.4757 16.5736 17.1079C16.1473 17.74 15.3915 18.0158 13.8863 18.574L13.2532 18.8093C10.4044 19.8652 8.9832 20.3897 7.98837 19.6634C7 18.9304 7 17.3634 7 14.216L7 9.78417C7 6.6368 7 5.06983 7.98837 4.33679C8.97674 3.61048 10.4044 4.13504 13.2532 5.18416L13.8863 5.41954C15.3915 5.97773 16.1473 6.25346 16.5736 6.88563V6.89235ZM16.1602 9.13856L14.9845 9.13856V7.26896L14.1059 7.26896C13.9186 7.26896 13.8282 7.36984 13.8282 7.56487V11.9698L14.7067 11.9698C14.8941 11.9698 14.9845 11.869 14.9845 11.6739V10.2146L15.8824 10.2146C16.0698 10.2146 16.1602 10.1137 16.1602 9.91867V9.14528V9.13856ZM12.3618 8.15668C11.9806 7.7868 11.4315 7.5985 10.708 7.5985C9.9845 7.5985 9.4354 7.7868 9.0478 8.16341C8.66667 8.53329 8.47287 9.05113 8.47287 9.71692C8.47287 10.3827 8.66667 10.914 9.0478 11.2906C9.4354 11.6538 9.99096 11.8353 10.708 11.8353C11.4251 11.8353 11.9806 11.6538 12.3618 11.2906C12.7494 10.9207 12.9432 10.3962 12.9432 9.71692C12.9432 9.03768 12.7494 8.52657 12.3618 8.15668ZM9.90052 8.86955C10.0879 8.67452 10.3463 8.58037 10.6951 8.58037L10.7339 8.58037C11.0762 8.58037 11.3411 8.67452 11.5284 8.86955C11.7158 9.05785 11.8062 9.34031 11.8062 9.71692C11.8062 10.0935 11.7158 10.3827 11.5284 10.571C11.3411 10.7593 11.0827 10.8467 10.7339 10.8467L10.6951 10.8467C10.3527 10.8467 10.0879 10.7526 9.90052 10.571C9.71318 10.376 9.62274 10.0935 9.62274 9.71692C9.62274 9.34031 9.71318 9.05785 9.90052 8.86955ZM14.8618 12.5684C14.7842 12.4877 14.655 12.4473 14.4677 12.4473L9.66796 12.4473V13.1602C9.66796 13.362 9.7584 13.4561 9.94574 13.4561L13.699 13.4561C13.7894 13.4561 13.8346 13.5032 13.8346 13.6041V14.0614L10.2106 14.0614C10.0233 14.0614 9.89406 14.1017 9.81654 14.1891C9.73902 14.2698 9.70026 14.4111 9.70026 14.6061V16.0991C9.70026 16.3008 9.73902 16.4354 9.81654 16.5161C9.89406 16.6035 10.0233 16.6438 10.2106 16.6438L14.0413 16.6438C14.3514 16.6438 14.5904 16.6371 14.7584 16.6169C14.9264 16.5968 15.0426 16.5564 15.1137 16.4959C15.1912 16.4354 15.23 16.3479 15.23 16.2403V15.4468C14.9974 15.5745 14.6163 15.6351 14.093 15.6351L10.9987 15.6351C10.9083 15.6351 10.863 15.588 10.863 15.4871V15.0365L14.4742 15.0365C14.6615 15.0365 14.7907 14.9962 14.8682 14.9087C14.9522 14.828 14.991 14.6868 14.991 14.4918V12.9786C14.991 12.7769 14.9522 12.6424 14.8682 12.5617L14.8618 12.5684Z" fill="#07BFE0"/>
</svg>
