<svg width="51" height="30" viewBox="0 0 51 30" fill="none" xmlns="http://www.w3.org/2000/svg">
<g clip-path="url(#clip0_5937_971)">
<g clip-path="url(#clip1_5937_971)">
<path d="M43.5659 23.376C43.3803 22.9326 43.2577 22.4654 43.2018 21.988H45.0739V22.0934C45.2849 23.0093 45.8516 23.5346 46.6336 23.5346C47.5585 23.5346 48.0894 22.7969 48.0894 21.5064V20.8666C47.5964 21.2433 46.9941 21.4495 46.3735 21.4542C45.9241 21.4534 45.4797 21.3599 45.0681 21.1797C44.6565 20.9994 44.2867 20.7362 43.9817 20.4066C43.3404 19.7208 42.9869 18.8155 42.9939 17.8772C42.9814 16.9278 43.3466 16.0122 44.0095 15.3315C44.6723 14.6509 45.5785 14.2608 46.5291 14.2469C47.0915 14.2451 47.6459 14.3803 48.1442 14.6407C48.6425 14.9011 49.0698 15.2789 49.3889 15.7414C49.866 16.4293 50.1034 17.2547 50.0648 18.0906V21.1865C50.0648 22.6225 49.9066 23.2712 49.3889 23.9625C49.0694 24.3754 48.6598 24.7102 48.1913 24.9413C47.7229 25.1725 47.2078 25.2941 46.6853 25.2968C46.0378 25.2986 45.4027 25.1197 44.8516 24.7803C44.3004 24.4409 43.8551 23.9546 43.5659 23.376ZM44.9177 17.9314C44.9053 18.1436 44.9365 18.3561 45.0093 18.5558C45.0821 18.7555 45.195 18.9383 45.341 19.0929C45.4871 19.2475 45.6632 19.3706 45.8586 19.4548C46.054 19.539 46.2646 19.5824 46.4774 19.5824C46.6902 19.5824 46.9008 19.539 47.0962 19.4548C47.2916 19.3706 47.4677 19.2475 47.6138 19.0929C47.7598 18.9383 47.8727 18.7555 47.9455 18.5558C48.0183 18.3561 48.0495 18.1436 48.0371 17.9314C48.0489 17.7165 48.0177 17.5014 47.9453 17.2986C47.873 17.0959 47.7609 16.9095 47.6157 16.7505C47.4704 16.5915 47.2949 16.4629 47.0994 16.3724C46.9039 16.2818 46.6923 16.231 46.4769 16.223C46.0483 16.2566 45.6485 16.4519 45.3589 16.7692C45.0693 17.0866 44.9116 17.5021 44.9177 17.9314ZM17.0719 20.5868C16.3888 19.8928 16.008 18.9573 16.0124 17.9841C16.0047 16.9968 16.3851 16.0458 17.0719 15.3356C17.4067 14.9902 17.8079 14.716 18.2515 14.5294C18.6951 14.3429 19.1719 14.2479 19.6532 14.2501C20.127 14.2501 20.5958 14.3463 21.0312 14.5329C21.4666 14.7195 21.8594 14.9926 22.1859 15.3356C22.8689 16.0479 23.2474 16.9979 23.2411 17.9841C23.2306 18.9507 22.8465 19.8759 22.169 20.5662C21.8439 20.9075 21.454 21.1807 21.0221 21.3698C20.5901 21.5589 20.1247 21.6602 19.6532 21.6676C19.1724 21.6694 18.6961 21.5746 18.2527 21.3889C17.8093 21.2033 17.4077 20.9305 17.0719 20.5868ZM17.9362 17.9314C17.9246 18.1575 17.959 18.3835 18.0372 18.5959C18.1154 18.8083 18.2359 19.0027 18.3915 19.1673C18.547 19.332 18.7343 19.4634 18.9421 19.5538C19.1498 19.6441 19.3738 19.6915 19.6004 19.6931C20.0526 19.673 20.4792 19.4778 20.7897 19.149C21.1003 18.8201 21.2704 18.3834 21.2641 17.9314C21.2766 17.4777 21.1085 17.0374 20.7967 16.7072C20.4849 16.3769 20.0547 16.1835 19.6004 16.1693C19.1459 16.1832 18.7155 16.3765 18.4034 16.7068C18.0914 17.0371 17.9237 17.4775 17.9362 17.9314ZM24.7465 19.9065C24.3075 19.1662 24.1078 18.3087 24.1745 17.4508V10.565H26.2023V14.8334C26.6995 14.5186 27.2767 14.3527 27.8654 14.3555C28.3166 14.3579 28.7624 14.454 29.1744 14.6377C29.5864 14.8214 29.9557 15.0887 30.2588 15.4226C30.9036 16.112 31.2573 17.0233 31.2464 17.9666C31.2355 18.91 30.8608 19.8128 30.2002 20.4872C29.8792 20.8246 29.4931 21.0937 29.0654 21.2783C28.6376 21.463 28.1768 21.5594 27.7108 21.5617C27.1165 21.5599 26.5325 21.407 26.0138 21.1174C25.4951 20.8278 25.0593 20.4111 24.7465 19.9065ZM26.1505 17.9314C26.1448 18.3643 26.3112 18.7817 26.6134 19.092C26.9155 19.4023 27.3286 19.5802 27.762 19.5866C27.9738 19.5823 28.1827 19.5358 28.3764 19.4499C28.5701 19.364 28.7447 19.2403 28.8899 19.0862C29.0351 18.9321 29.1481 18.7505 29.2223 18.5523C29.2964 18.354 29.3302 18.1429 29.3217 17.9314C29.3335 17.7166 29.3023 17.5015 29.2299 17.2988C29.1576 17.0961 29.0456 16.9099 28.9004 16.7509C28.7552 16.5919 28.5797 16.4634 28.3843 16.3728C28.1888 16.2823 27.9773 16.2316 27.762 16.2235C27.3279 16.2548 26.9214 16.4476 26.6229 16.7639C26.3244 17.0802 26.1556 17.4968 26.15 17.9314H26.1505ZM39.9273 17.718C39.9579 17.3547 39.9037 16.9892 39.769 16.6504C39.6759 16.4811 39.5412 16.3383 39.3775 16.2355C39.2138 16.1327 39.0266 16.0732 38.8335 16.0628C38.6348 16.0789 38.4425 16.1403 38.2713 16.2421C38.1001 16.344 37.9545 16.4836 37.8457 16.6504C37.6874 16.8638 37.6874 17.024 37.6874 17.718V21.401H35.7679V17.7712C35.695 16.9563 35.9162 16.1422 36.3915 15.4758C36.6697 15.0861 37.0359 14.7672 37.4604 14.5451C37.8849 14.323 38.3559 14.2039 38.8351 14.1974C39.329 14.1964 39.8155 14.3178 40.2509 14.5506C40.6864 14.7835 41.0573 15.1205 41.3303 15.5316C41.7579 16.1779 41.959 16.9475 41.9022 17.7201V21.401H39.9267L39.9273 17.718ZM32.3883 21.401V15.4758C32.6704 15.5841 32.9705 15.6378 33.2727 15.6339C33.6318 15.651 33.9894 15.5776 34.3126 15.4205V21.401H32.3883ZM31.141 12.5401C31.1342 12.249 31.1857 11.9594 31.2922 11.6884C31.3988 11.4174 31.5584 11.1702 31.7617 10.9615C31.9649 10.7527 32.2078 10.5865 32.4761 10.4726C32.7444 10.3586 33.0328 10.2992 33.3244 10.2979C33.9076 10.3184 34.4604 10.563 34.8673 10.9808C35.2742 11.3986 35.5039 11.9572 35.5083 12.5401C35.5039 13.1229 35.2742 13.6814 34.8673 14.0991C34.4603 14.5168 33.9076 14.7614 33.3244 14.7818C32.7384 14.77 32.1806 14.5281 31.7719 14.1085C31.3632 13.6889 31.1366 13.1254 31.141 12.5401Z" fill="#FFC846"/>
<path d="M11.749 21.402V15.3166C11.7848 14.8789 11.7134 14.4391 11.5411 14.035C11.4222 13.8079 11.2428 13.618 11.0227 13.4861C10.8026 13.3543 10.5504 13.2857 10.2938 13.2878C10.0436 13.2864 9.79734 13.3496 9.57881 13.4712C9.36028 13.5928 9.1769 13.7687 9.04642 13.9818C8.78629 14.3554 8.78629 14.4086 8.78629 15.3161V21.3482H5.87476V15.3698C5.87476 14.5151 5.87476 14.4086 5.66687 14.035C5.53624 13.8219 5.35274 13.6461 5.13412 13.5246C4.9155 13.4031 4.66918 13.3401 4.419 13.3415C4.17114 13.3514 3.92907 13.4193 3.71231 13.5398C3.49555 13.6602 3.31017 13.8299 3.17113 14.035C2.96324 14.3554 2.96324 14.5156 2.96324 15.3698V21.402H0V15.8499C0 14.035 0.158292 13.3415 0.728145 12.4868C1.09684 11.8969 1.61029 11.4107 2.21983 11.0745C2.82936 10.7382 3.51478 10.5631 4.21111 10.5655C4.78779 10.5584 5.3594 10.6737 5.88814 10.9037C6.41689 11.1338 6.89071 11.4733 7.27829 11.8998C8.36998 10.8859 9.20154 10.5655 10.346 10.5655C11.0507 10.5567 11.7458 10.7287 12.3648 11.0651C12.9838 11.4016 13.5059 11.8911 13.8812 12.4868C14.5049 13.448 14.7128 14.1952 14.7128 15.8499V21.402H11.749ZM32.2326 12.5406C32.227 12.3945 32.2512 12.2487 32.3037 12.1123C32.3562 11.9758 32.4359 11.8513 32.5379 11.7465C32.64 11.6417 32.7624 11.5587 32.8975 11.5025C33.0327 11.4464 33.1779 11.4182 33.3243 11.4197C33.6143 11.4343 33.8881 11.558 34.0907 11.7659C34.2932 11.9738 34.4094 12.2506 34.416 12.5406C34.4091 12.8305 34.2928 13.1071 34.0904 13.315C33.8879 13.5229 33.6143 13.6466 33.3243 13.6614C33.0312 13.6556 32.7523 13.5347 32.548 13.3249C32.3436 13.1151 32.2303 12.8333 32.2326 12.5406Z" fill="#FF621B"/>
</g>
</g>
<defs>
<clipPath id="clip0_5937_971">
<rect width="51" height="30" fill="white"/>
</clipPath>
<clipPath id="clip1_5937_971">
<rect width="50.0642" height="30" fill="white"/>
</clipPath>
</defs>
</svg>
