<svg width="48" height="28" viewBox="0 0 48 28" fill="none" xmlns="http://www.w3.org/2000/svg">
<g clip-path="url(#clip0_6031_22118)">
<path d="M14.1739 15.642C14.9757 16.542 16.511 17.142 17.9348 17.142C18.6035 17.142 18.8516 16.9014 18.8516 16.6475C18.8516 16.2882 18.3267 16.064 17.4781 15.8068C15.9428 15.3585 13.7173 14.6365 13.7173 12.5398C13.7173 11.2047 15.2058 9.36182 18.3087 9.36182C20.092 9.36182 21.8718 9.93214 23.0656 11.0233L21.1383 13.0772C20.3222 12.2695 18.8984 11.864 17.9528 11.864C17.3487 11.864 17.1042 12.1047 17.1042 12.375C17.1042 12.7047 17.6759 12.9288 18.4921 13.1695C20.0453 13.6178 22.2817 14.3827 22.2817 16.2849C22.2817 18.1871 20.5343 19.6871 17.7226 19.6871C15.4 19.6871 13.3433 18.9222 12.2646 17.7387L14.1775 15.642H14.1739Z" fill="#E6000E"/>
<path d="M32.2196 19.5093L33.6578 13.4994L29.7855 19.5093H28.3149L27.319 13.4994L25.8808 19.5093H22.5801L24.9783 9.51367H29.4223L30.1738 14.3104L33.2515 9.51367H37.9257L35.5239 19.5093H32.2232H32.2196Z" fill="#E6000E"/>
<path d="M39.6262 19.5093L41.3916 12.151H38.4648L39.1012 9.51367H48.2374L47.601 12.151H44.6923L42.9268 19.5093H39.6262Z" fill="#E6000E"/>
<path d="M13.9761 15.4644L4.0957 9.1875L7.91771 9.9853L13.9761 15.4644Z" fill="#E6000E"/>
<path d="M13.6733 15.7344L1.67871 11.907L6.05805 11.4421L13.6733 15.7344Z" fill="#E6000E"/>
<path d="M13.4076 16.1137L0 14.7324L3.8364 13.3774L13.4076 16.1137Z" fill="#E6000E"/>
</g>
<defs>
<clipPath id="clip0_6031_22118">
<rect width="48" height="10.5" fill="white" transform="translate(0 9.1875)"/>
</clipPath>
</defs>
</svg>
