<svg width="54" height="28" viewBox="0 0 54 28" fill="none" xmlns="http://www.w3.org/2000/svg">
<path d="M25.9023 18.5637V17.5067H29.4478V15.828H26.9431V11.1047H33.1691V15.828H30.6645V17.5067H34.2099V18.5637H25.9023ZM31.9973 14.6891V12.2474H28.1V14.6891H31.9973Z" fill="#4A4A49"/>
<path d="M38.9833 12.0836H40.1065V18.3553H35.2395V11.6369H36.3739V14.1158H38.9833V12.0836ZM38.9833 15.158H36.3739V17.3057H38.9833V15.158ZM43.2813 13.632H44.9585V14.8082H43.2813V18.5675H42.0533V10.0625H43.2813V13.632Z" fill="#4A4A49"/>
<path d="M48.0547 15.8392C47.6765 15.8392 47.3359 15.7685 47.0139 15.627C46.6844 15.4967 46.4111 15.3106 46.1753 15.0761C45.9282 14.8417 45.7372 14.5699 45.6099 14.2424C45.4677 13.9372 45.3965 13.5948 45.3965 13.2337C45.3965 12.8727 45.4677 12.5414 45.6099 12.2101C45.741 11.8938 45.9282 11.6109 46.1753 11.3764C46.4111 11.1419 46.6844 10.9521 47.0139 10.8144C47.3321 10.6841 47.6765 10.6134 48.0547 10.6134C48.4103 10.6134 48.7623 10.6841 49.0955 10.8144C49.4137 10.9558 49.6982 11.1419 49.9453 11.3764C50.1812 11.6109 50.3721 11.8938 50.5106 12.2101C50.6417 12.5377 50.7128 12.8801 50.7128 13.2337C50.7128 13.5873 50.6417 13.9372 50.5106 14.2424C50.3684 14.5699 50.1812 14.8417 49.9453 15.0761C49.6982 15.3106 49.4137 15.5005 49.0955 15.627C48.766 15.7685 48.4103 15.8392 48.0547 15.8392ZM48.0547 11.7188C47.8413 11.7188 47.6541 11.7672 47.4744 11.8379C47.2872 11.9198 47.1299 12.024 46.9914 12.1655C46.8492 12.3069 46.7443 12.4707 46.6732 12.6456C46.5908 12.8317 46.5534 13.0327 46.5534 13.2337C46.5534 13.4459 46.5871 13.632 46.6732 13.8106C46.7443 13.9967 46.8492 14.1493 46.9914 14.2908C47.1337 14.4434 47.2872 14.5625 47.4744 14.6295C47.6503 14.7114 47.8413 14.7486 48.0547 14.7486C48.2568 14.7486 48.4553 14.7151 48.6462 14.6295C48.8222 14.5588 48.9757 14.4434 49.1179 14.2908C49.2602 14.1493 49.365 13.9967 49.4474 13.8106C49.5185 13.6357 49.5672 13.4459 49.5672 13.2337C49.5672 13.0327 49.5185 12.8355 49.4474 12.6456C49.365 12.4707 49.2602 12.3032 49.1179 12.1655C48.9757 12.024 48.8222 11.9198 48.6462 11.8379C48.459 11.7672 48.2568 11.7188 48.0547 11.7188ZM49.4736 19.5985H53.9999V20.5625H48.2831V17.9422H52.1916V17.2387H48.6013V16.2858H53.3859V18.895H49.4736V19.5985ZM52.4762 10.0625H53.6817V15.5489H52.4762V10.0625Z" fill="#4A4A49"/>
<path d="M21.5763 16.6133H11.3504C11.1443 16.6133 10.9756 16.4431 10.9756 16.2351C10.9756 16.0272 11.1443 15.857 11.3504 15.857H21.5763C21.7825 15.857 21.9512 16.0272 21.9512 16.2351C21.9512 16.4431 21.7825 16.6133 21.5763 16.6133Z" fill="#E73458"/>
<path d="M17.2393 24.0625C17.0332 24.0625 16.8645 23.8923 16.8645 23.6844V16.2351C16.8645 16.0272 17.0332 15.857 17.2393 15.857C17.4455 15.857 17.6142 16.0272 17.6142 16.2351V23.6844C17.6142 23.8923 17.4455 24.0625 17.2393 24.0625Z" fill="#E73458"/>
<path d="M21.5763 24.0625C21.3702 24.0625 21.2015 23.8923 21.2015 23.6844V16.2351C21.2015 16.0272 21.3702 15.857 21.5763 15.857C21.7825 15.857 21.9512 16.0272 21.9512 16.2351L21.9512 23.6844C21.9512 23.8923 21.7825 24.0625 21.5763 24.0625Z" fill="#E73458"/>
<path d="M19.4097 14.4617C18.4463 14.4617 17.6629 13.6714 17.6629 12.6996C17.6629 11.7278 18.4463 10.9375 19.4097 10.9375C20.3731 10.9375 21.1565 11.7278 21.1565 12.6996C21.1565 13.6714 20.3731 14.4617 19.4097 14.4617ZM19.4097 11.69C18.8587 11.69 18.4126 12.14 18.4126 12.6958C18.4126 13.2517 18.8624 13.7017 19.4097 13.7017C19.957 13.7017 20.4068 13.2517 20.4068 12.6958C20.4068 12.14 19.9607 11.69 19.4097 11.69Z" fill="#E73458"/>
<path d="M11.4731 16.625C11.2638 16.625 11.0926 16.4569 11.0926 16.2515V6.06105C11.0926 5.8556 11.2638 5.6875 11.4731 5.6875C11.6824 5.6875 11.8537 5.8556 11.8537 6.06105V16.2515C11.8537 16.4569 11.6824 16.625 11.4731 16.625Z" fill="#E73458"/>
<path d="M11.4731 10.7603H3.97659C3.76729 10.7603 3.59605 10.5922 3.59605 10.3867C3.59605 10.1813 3.76729 10.0132 3.97659 10.0132H11.4731C11.6824 10.0132 11.8537 10.1813 11.8537 10.3867C11.8537 10.5922 11.6824 10.7603 11.4731 10.7603Z" fill="#E73458"/>
<path d="M11.4731 6.4346H3.97659C3.76729 6.4346 3.59605 6.2665 3.59605 6.06105C3.59605 5.8556 3.76729 5.6875 3.97659 5.6875H11.4731C11.6824 5.6875 11.8537 5.8556 11.8537 6.06105C11.8537 6.2665 11.6824 6.4346 11.4731 6.4346Z" fill="#E73458"/>
<path d="M1.77329 9.96463C0.795318 9.96463 0 9.18391 0 8.22389C0 7.26387 0.795318 6.47942 1.77329 6.47942C2.75127 6.47942 3.54658 7.26014 3.54658 8.22016C3.54658 9.18018 2.75127 9.96089 1.77329 9.96089V9.96463ZM1.77329 7.22652C1.21391 7.22652 0.76107 7.67478 0.76107 8.22016C0.76107 8.76554 1.21771 9.2138 1.77329 9.2138C2.32887 9.2138 2.78551 8.76927 2.78551 8.22016C2.78551 7.67104 2.33268 7.22652 1.77329 7.22652Z" fill="#E73458"/>
</svg>
